<svg width="48" height="48" viewBox="0 0 48 48" fill="none" xmlns="http://www.w3.org/2000/svg">
<path d="M38 2C42.4183 2 46 5.58172 46 10V38C46 42.4183 42.4183 46 38 46H10C5.58172 46 2 42.4183 2 38V10C2 5.58172 5.58172 2 10 2H38ZM28.877 25.7168C27.5118 27.0158 25.7599 27.6777 24 27.6777C22.2401 27.6777 20.4882 27.0159 19.123 25.7168L11.1523 33.6875C11.3538 33.74 11.5601 33.7773 11.7773 33.7773H36.2227C36.4399 33.7773 36.6462 33.74 36.8477 33.6875L28.877 25.7168ZM9.42383 16.041C9.37134 16.2424 9.33406 16.4488 9.33398 16.666V31.334C9.33406 31.5512 9.37135 31.7576 9.42383 31.959L17.3828 24L9.42383 16.041ZM30.6172 24L38.5742 31.957C38.6279 31.757 38.6659 31.5511 38.666 31.334V16.666C38.6659 16.4487 38.6287 16.2425 38.5762 16.041L30.6172 24ZM11.7773 14.2227C11.5601 14.2227 11.3538 14.26 11.1523 14.3125L20.7148 23.877C22.5273 25.6867 25.4726 25.6866 27.2852 23.877L36.8477 14.3125C36.6462 14.26 36.4399 14.2227 36.2227 14.2227H11.7773Z" fill="#252522"/>
</svg>
