<svg width="48" height="48" viewBox="0 0 48 48" fill="none" xmlns="http://www.w3.org/2000/svg">
<g opacity="0.4">
<path d="M38 2C42.4183 2 46 5.58172 46 10V38C46 41.924 43.1745 45.1859 39.4473 45.8672H27.8066V30.9062H33.4766L34.5527 23.8672H27.8066V19.3008C27.8066 17.3746 28.7567 15.4961 31.7773 15.4961H34.8457V9.50195C34.8047 9.49493 32.0395 9.02344 29.3906 9.02344C23.8288 9.02369 20.1935 12.3971 20.1934 18.498V23.8672H14.0039V30.9062H20.1934V45.8672H8.55273C4.82552 45.1859 2 41.924 2 38V10C2 5.58172 5.58172 2 10 2H38Z" fill="#1877F2"/>
</g>
</svg>
