<svg width="48" height="48" viewBox="0 0 48 48" fill="none" xmlns="http://www.w3.org/2000/svg">
<g opacity="0.4">
<path d="M2 10C2 5.58172 5.58172 2 10 2H38C42.4183 2 46 5.58172 46 10V38C46 42.4183 42.4183 46 38 46H10C5.58172 46 2 42.4183 2 38V10Z" fill="url(#paint0_radial_2748_7282)"/>
<path d="M2 10C2 5.58172 5.58172 2 10 2H38C42.4183 2 46 5.58172 46 10V38C46 42.4183 42.4183 46 38 46H10C5.58172 46 2 42.4183 2 38V10Z" fill="url(#paint1_radial_2748_7282)"/>
<path d="M24.2445 8C19.8331 8 19.2795 8.01929 17.5469 8.09816C15.8177 8.17737 14.6373 8.45121 13.6045 8.853C12.5362 9.26798 11.63 9.82311 10.7271 10.7265C9.82363 11.6296 9.26865 12.5361 8.85242 13.6044C8.44973 14.6378 8.17563 15.8188 8.0978 17.5478C8.0203 19.2809 8 19.835 8 24.2475C8 28.6601 8.01963 29.2122 8.09814 30.9452C8.17766 32.6749 8.45142 33.8556 8.85276 34.8886C9.26798 35.9573 9.82295 36.8637 10.7261 37.7668C11.6286 38.6706 12.5349 39.2271 13.6025 39.6421C14.636 40.0438 15.8167 40.3177 17.5455 40.3969C19.2781 40.4758 19.8314 40.4951 24.2424 40.4951C28.6541 40.4951 29.206 40.4758 30.9386 40.3969C32.6679 40.3177 33.8495 40.0438 34.883 39.6421C35.951 39.2271 36.8559 38.6706 37.7584 37.7668C38.6619 36.8637 39.2169 35.9573 39.6331 34.889C40.0324 33.8556 40.3065 32.6746 40.3877 30.9456C40.4656 29.2125 40.4859 28.6601 40.4859 24.2475C40.4859 19.835 40.4656 19.2812 40.3877 17.5481C40.3065 15.8184 40.0324 14.6378 39.6331 13.6047C39.2169 12.5361 38.6619 11.6296 37.7584 10.7265C36.8549 9.82277 35.9513 9.26765 34.882 8.853C33.8465 8.45121 32.6655 8.17737 30.9363 8.09816C29.2037 8.01929 28.6521 8 24.2394 8H24.2445ZM22.7873 10.9279C23.2198 10.9273 23.7023 10.9279 24.2445 10.9279C28.5814 10.9279 29.0954 10.9435 30.808 11.0214C32.3917 11.0938 33.2513 11.3585 33.8238 11.5809C34.5818 11.8754 35.1223 12.2274 35.6904 12.7961C36.2589 13.3647 36.6109 13.9063 36.906 14.6645C37.1283 15.2366 37.3932 16.0963 37.4653 17.6805C37.5432 19.3932 37.5601 19.9077 37.5601 24.2438C37.5601 28.5799 37.5432 29.0944 37.4653 30.8071C37.3929 32.3913 37.1283 33.251 36.906 33.8231C36.6115 34.5813 36.2589 35.1212 35.6904 35.6895C35.1219 36.2582 34.5822 36.6102 33.8238 36.9047C33.2519 37.1281 32.3917 37.3921 30.808 37.4646C29.0957 37.5424 28.5814 37.5593 24.2445 37.5593C19.9072 37.5593 19.3932 37.5424 17.6809 37.4646C16.0972 37.3914 15.2377 37.1267 14.6647 36.9044C13.9067 36.6099 13.3653 36.2578 12.7968 35.6892C12.2283 35.1205 11.8763 34.5803 11.5813 33.8217C11.3589 33.2497 11.094 32.3899 11.0219 30.8058C10.9441 29.093 10.9285 28.5785 10.9285 24.2397C10.9285 19.901 10.9441 19.3892 11.0219 17.6764C11.0943 16.0923 11.3589 15.2325 11.5813 14.6598C11.8757 13.9016 12.2283 13.36 12.7968 12.7913C13.3653 12.2227 13.9067 11.8706 14.6647 11.5755C15.2373 11.3521 16.0972 11.088 17.6809 11.0153C19.1793 10.9476 19.76 10.9273 22.7873 10.9239V10.9279ZM32.9149 13.6257C31.8388 13.6257 30.9657 14.498 30.9657 15.5747C30.9657 16.6511 31.8388 17.5244 32.9149 17.5244C33.991 17.5244 34.8641 16.6511 34.8641 15.5747C34.8641 14.4983 33.991 13.6257 32.9149 13.6257ZM24.2445 15.9037C19.6378 15.9037 15.9029 19.6397 15.9029 24.2475C15.9029 28.8554 19.6378 32.5896 24.2445 32.5896C28.8511 32.5896 32.5846 28.8554 32.5846 24.2475C32.5846 19.6397 28.8511 15.9037 24.2445 15.9037ZM24.2445 18.8317C27.2345 18.8317 29.6588 21.2563 29.6588 24.2475C29.6588 27.2384 27.2345 29.6634 24.2445 29.6634C21.254 29.6634 18.8301 27.2384 18.8301 24.2475C18.8301 21.2563 21.254 18.8317 24.2445 18.8317Z" fill="white"/>
</g>
<defs>
<radialGradient id="paint0_radial_2748_7282" cx="0" cy="0" r="1" gradientUnits="userSpaceOnUse" gradientTransform="translate(13.6876 49.3889) rotate(-90) scale(43.6073 40.5582)">
<stop stop-color="#FFDD55"/>
<stop offset="0.1" stop-color="#FFDD55"/>
<stop offset="0.5" stop-color="#FF543E"/>
<stop offset="1" stop-color="#C837AB"/>
</radialGradient>
<radialGradient id="paint1_radial_2748_7282" cx="0" cy="0" r="1" gradientTransform="matrix(3.82596 19.1135 -78.7848 15.7793 -5.37023 5.16969)" gradientUnits="userSpaceOnUse">
<stop stop-color="#3771C8"/>
<stop offset="0.128" stop-color="#3771C8"/>
<stop offset="1" stop-color="#6600FF" stop-opacity="0"/>
</radialGradient>
</defs>
</svg>
