<svg width="48" height="48" viewBox="0 0 48 48" fill="none" xmlns="http://www.w3.org/2000/svg">
<path d="M38 2C42.4183 2 46 5.58172 46 10V38C46 42.4183 42.4183 46 38 46H10C5.58172 46 2 42.4183 2 38V10C2 5.58172 5.58172 2 10 2H38ZM25.3184 7.48438C24.7147 7.48437 24.709 7.45741 24.709 8.06055V29.5195C24.709 29.8055 24.7114 30.0916 24.6797 30.3457C24.4891 32.1577 23.6004 33.4936 21.9473 34.2246C20.2944 34.9874 18.6711 34.8278 17.209 33.6836C15.4611 32.3482 14.8879 30.0587 15.7461 28.0879C16.6047 26.1176 18.698 25.0365 20.8594 25.418C21.1135 25.4498 21.3554 25.5147 21.6133 25.5781V19.6016C20.7747 19.4109 19.1492 19.4105 18.0684 19.6328C12.537 20.7455 8.92703 25.7047 9.6582 31.3633C10.3574 37.0217 15.9025 41.7577 22.4512 40.2637C27.2509 39.1508 30.6445 34.8905 30.6445 29.9316V18.7734C32.9669 20.3628 35.6126 21.2211 38.4512 21.1895V15.373C37.9998 15.3413 37.5904 15.3155 37.209 15.252C33.6173 14.7746 30.8186 11.6345 30.5645 7.94727C30.5327 7.53397 30.4044 7.48438 30.0547 7.48438H25.3184Z" fill="black"/>
</svg>
