<svg width="48" height="48" viewBox="0 0 48 48" fill="none" xmlns="http://www.w3.org/2000/svg">
<g opacity="0.2">
<path d="M38 2C42.4183 2 46 5.58172 46 10V38C46 42.4183 42.4183 46 38 46H10C5.58172 46 2 42.4183 2 38V10C2 5.58172 5.58172 2 10 2H38ZM8.8457 10.25L20.3457 25.2871L9.44531 37.75H14.1094L22.5273 28.1348L29.873 37.75H39.2617L27.2715 21.8984L37.4648 10.25H32.8008L25.1191 19.041L18.4707 10.25H8.8457ZM17.0664 12.8926L33.752 34.9609H31.1602L14.2871 12.8926H17.0664Z" fill="black"/>
</g>
</svg>
