<svg width="48" height="48" viewBox="0 0 48 48" fill="none" xmlns="http://www.w3.org/2000/svg">
<path d="M38 2C42.4183 2 46 5.58172 46 10V38C46 42.4183 42.4183 46 38 46H10C5.58172 46 2 42.4183 2 38V10C2 5.58172 5.58172 2 10 2H38ZM23.9902 13.6191C23.9049 13.6192 14.707 13.6227 12.3906 14.2246C11.145 14.573 10.1196 15.5993 9.77148 16.8633C9.16694 19.1907 9.16602 24.0098 9.16602 24.0098C9.16604 24.0713 9.17083 28.8607 9.77148 31.1367C10.1196 32.4008 11.1266 33.4094 12.3906 33.7578C14.7252 34.3779 23.9049 34.3808 23.9902 34.3809C23.9902 34.3809 33.2822 34.3801 35.6094 33.7754C36.8732 33.427 37.8811 32.4384 38.2109 31.1562C38.834 28.8474 38.834 24.0273 38.834 24.0273C38.8341 23.9955 38.85 19.1831 38.2109 16.8633C37.8812 15.5991 36.8735 14.5898 35.6094 14.2598C33.2822 13.6184 23.9902 13.6191 23.9902 13.6191ZM28.7559 24.0098L21.041 28.4434V19.5566L28.7559 24.0098Z" fill="#FF0033"/>
</svg>
