<svg width="240" height="240" viewBox="0 0 240 240" fill="none" xmlns="http://www.w3.org/2000/svg">
<g clip-path="url(#clip0_4534_1148)">
<path d="M82.8855 111.579L93.3405 102.76C93.6979 102.458 93.9207 102.026 93.96 101.56C93.9993 101.094 93.8519 100.631 93.5502 100.274L91.6271 97.9976C91.3246 97.6406 90.8926 97.418 90.426 97.3788C89.9595 97.3395 89.4963 97.4867 89.1383 97.7881L78.6833 106.608C78.3259 106.91 78.1031 107.341 78.0637 107.807C78.0244 108.273 78.1718 108.736 78.4735 109.094L80.3979 111.37C80.7004 111.727 81.1321 111.949 81.5984 111.988C82.0646 112.027 82.5275 111.88 82.8855 111.579Z" fill="#3F3D56"/>
<path d="M92.7924 100.457C92.9549 100.65 93.0343 100.899 93.0131 101.151C92.9919 101.402 92.8719 101.634 92.6793 101.797L82.2243 110.617C82.0314 110.779 81.7818 110.858 81.5304 110.837C81.279 110.816 81.0463 110.696 80.8832 110.504L78.9588 108.228C78.7963 108.035 78.7169 107.786 78.7381 107.534C78.7593 107.283 78.8793 107.051 79.0719 106.888L89.5269 98.0683C89.7199 97.9059 89.9694 97.8266 90.2208 97.8478C90.4722 97.869 90.705 97.9888 90.868 98.1812L92.7924 100.457Z" fill="#0F766E"/>
<path d="M81.894 107.541C81.8457 107.501 81.8075 107.451 81.7822 107.393C81.757 107.336 81.7454 107.274 81.7485 107.211L81.8266 105.572C81.8279 105.519 81.8398 105.466 81.8618 105.417C81.8838 105.368 81.9153 105.324 81.9545 105.288C81.9938 105.251 82.0399 105.223 82.0902 105.205C82.1405 105.186 82.1941 105.178 82.2476 105.181C82.3011 105.183 82.3536 105.196 82.402 105.219C82.4504 105.242 82.4936 105.275 82.5293 105.315C82.5649 105.355 82.5921 105.402 82.6094 105.452C82.6267 105.503 82.6337 105.557 82.6299 105.61L82.5797 106.683L85.4398 105.823C85.5415 105.794 85.6504 105.806 85.7432 105.857C85.8359 105.908 85.9049 105.993 85.9354 106.094C85.9658 106.195 85.9552 106.304 85.9059 106.397C85.8565 106.491 85.7724 106.561 85.6716 106.593L82.2661 107.616C82.2046 107.634 82.1394 107.638 82.0762 107.626C82.013 107.614 81.9536 107.587 81.9029 107.548L81.894 107.541Z" fill="white"/>
<path d="M88.0706 100.009C88.0494 99.993 88.033 99.9715 88.0228 99.9468C88.0126 99.9222 88.0091 99.8953 88.0127 99.8688C88.0162 99.8424 88.0267 99.8174 88.043 99.7963C88.0593 99.7752 88.0809 99.7587 88.1056 99.7486C88.4891 99.6052 88.9041 99.5671 89.3073 99.6385C89.7106 99.71 90.0873 99.8882 90.3982 100.155C90.8133 100.461 91.1195 100.893 91.2721 101.386C91.3545 101.67 91.3847 101.967 91.3613 102.261C91.3602 102.281 91.3552 102.301 91.3466 102.319C91.3379 102.336 91.3258 102.352 91.311 102.366C91.2961 102.379 91.2788 102.389 91.26 102.395C91.2412 102.402 91.2213 102.405 91.2014 102.403L91.2006 102.404C91.16 102.401 91.1221 102.383 91.0953 102.352C91.0684 102.321 91.0548 102.281 91.0573 102.241C91.0899 101.886 91.0291 101.529 90.8811 101.205C90.7331 100.88 90.5029 100.6 90.2133 100.392C89.3268 99.7045 88.5246 99.9105 88.2216 100.03C88.1969 100.041 88.1698 100.044 88.1432 100.041C88.1166 100.037 88.0915 100.026 88.0706 100.009Z" fill="white"/>
<path d="M88.2804 103.932C88.2702 103.924 88.261 103.915 88.2531 103.905C87.6619 103.152 87.9639 102.199 87.9759 102.16L87.9795 102.152C87.99 102.126 88.2379 101.504 88.6947 101.381C88.8045 101.355 88.919 101.356 89.0284 101.384C89.1379 101.411 89.239 101.465 89.3233 101.54C89.4095 101.597 89.4804 101.674 89.53 101.764C89.5795 101.855 89.6062 101.956 89.6076 102.059C89.5957 102.22 89.5509 102.377 89.476 102.52C89.3429 102.824 89.2855 102.993 89.5422 103.214C89.5879 103.252 89.6424 103.277 89.7007 103.288C89.7589 103.299 89.819 103.295 89.8752 103.276C90.0107 103.225 90.132 103.143 90.229 103.036C90.3261 102.929 90.396 102.8 90.433 102.66C90.5276 102.335 90.5243 101.988 90.4236 101.665C90.3228 101.341 90.1291 101.054 89.8664 100.839C89.5731 100.606 89.207 100.484 88.8327 100.495C88.5222 100.506 88.2211 100.604 87.9634 100.777C87.5073 101.092 87.1709 101.883 87.1688 101.889C87.1611 101.907 87.1499 101.924 87.1358 101.938C87.1217 101.952 87.1051 101.962 87.0868 101.97C87.0685 101.977 87.0489 101.981 87.0291 101.981C87.0094 101.981 86.9899 101.977 86.9717 101.969L86.9708 101.968C86.9336 101.952 86.9041 101.922 86.8887 101.885C86.8733 101.847 86.8732 101.805 86.8884 101.768C86.9033 101.733 87.261 100.891 87.788 100.526C88.0484 100.35 88.3483 100.239 88.6614 100.205C88.9744 100.171 89.2911 100.215 89.5836 100.331C89.8761 100.448 90.1356 100.634 90.3392 100.874C90.5429 101.114 90.6846 101.4 90.7519 101.708C90.83 102.051 90.8208 102.409 90.7252 102.748C90.6741 102.936 90.5779 103.109 90.4449 103.251C90.3118 103.393 90.1461 103.501 89.9619 103.565C89.857 103.598 89.7454 103.604 89.6375 103.582C89.5296 103.56 89.4291 103.512 89.3452 103.44C88.9058 103.063 89.074 102.677 89.1968 102.395C89.3225 102.106 89.3738 101.96 89.1378 101.777C89.0902 101.731 89.0325 101.698 88.9694 101.68C88.9063 101.662 88.8398 101.659 88.7755 101.672C88.6205 101.734 88.4911 101.847 88.4083 101.992L88.4058 101.996C88.3031 102.151 88.237 102.328 88.2126 102.513C88.1769 102.723 88.1832 102.938 88.2311 103.145C88.2791 103.352 88.3678 103.548 88.4921 103.721C88.5044 103.736 88.5136 103.754 88.5191 103.773C88.5246 103.792 88.5262 103.812 88.524 103.832C88.5218 103.851 88.5158 103.87 88.5062 103.888C88.4967 103.905 88.4838 103.92 88.4683 103.932L88.4671 103.933C88.4402 103.953 88.4073 103.964 88.3735 103.964C88.3398 103.964 88.3071 103.953 88.2804 103.932Z" fill="white"/>
<path d="M87.3808 103.147C87.3643 103.134 87.3506 103.118 87.3405 103.1C87.3303 103.082 87.324 103.062 87.3218 103.041C87.2662 102.519 87.3813 101.993 87.6498 101.542L87.6524 101.54C87.7618 101.348 87.9093 101.181 88.0857 101.049C88.2621 100.917 88.4638 100.822 88.6783 100.77C88.8585 100.742 89.0429 100.753 89.2185 100.803C89.394 100.852 89.5567 100.94 89.695 101.059C89.8805 101.195 90.0236 101.381 90.1076 101.596C90.1915 101.81 90.213 102.043 90.1693 102.269C90.1325 102.494 90.0549 102.71 89.9403 102.907C89.9188 102.941 89.8845 102.966 89.845 102.975C89.8054 102.984 89.7639 102.977 89.7294 102.956C89.6949 102.934 89.6704 102.9 89.6612 102.861C89.652 102.821 89.6589 102.78 89.6804 102.745C89.7757 102.58 89.84 102.399 89.8701 102.21C89.9035 102.04 89.8873 101.863 89.8233 101.701C89.7594 101.539 89.6505 101.398 89.5093 101.296C89.4046 101.204 89.2811 101.136 89.1475 101.097C89.0138 101.057 88.8732 101.047 88.7353 101.068C88.5634 101.112 88.4021 101.19 88.2609 101.298C88.1197 101.405 88.0015 101.54 87.9131 101.694C87.6759 102.091 87.5743 102.555 87.6237 103.015C87.6256 103.034 87.6237 103.054 87.618 103.073C87.6123 103.092 87.6029 103.109 87.5904 103.124C87.5779 103.14 87.5625 103.152 87.5452 103.161C87.5278 103.171 87.5088 103.176 87.4892 103.178L87.4868 103.179C87.4488 103.182 87.411 103.17 87.3808 103.147Z" fill="white"/>
<path d="M88.6424 102.325C88.7042 102.413 88.8259 102.434 88.9141 102.372C89.0023 102.311 89.0237 102.189 88.9618 102.101C88.9 102.013 88.7783 101.991 88.6901 102.053C88.6019 102.115 88.5806 102.236 88.6424 102.325Z" fill="white"/>
<path d="M81.2838 172.48H77.1532V177.918H81.2838V172.48Z" fill="#ED9DA0"/>
<path d="M77.8584 181.672H86.6384C87.3934 181.671 88.1385 181.501 88.8193 181.175L90.4377 180.398C90.6159 180.313 90.7637 180.175 90.8613 180.003C90.959 179.831 91.0019 179.634 90.9843 179.437C90.9667 179.24 90.8895 179.053 90.7629 178.902C90.6363 178.75 90.4664 178.64 90.2758 178.587L86.9359 177.664L81.2237 174.666L81.2195 174.687C81.1132 175.227 80.9473 176.044 80.926 176.094C80.3402 176.764 79.7384 177.073 79.1372 177.012C78.0887 176.906 77.3917 175.696 77.3849 175.684L77.3796 175.675L77.369 175.676C77.2624 175.68 77.1584 175.709 77.0648 175.76C76.9712 175.811 76.8906 175.883 76.8292 175.97C76.59 176.331 76.7359 176.885 76.76 176.969C76.4735 177.249 76.3449 178.812 76.335 178.939C75.9208 179.377 75.724 179.798 75.7499 180.191C75.7721 180.38 75.8341 180.562 75.9318 180.726C76.0296 180.889 76.1608 181.03 76.3169 181.139C76.7548 181.487 77.2987 181.675 77.8584 181.672V181.672Z" fill="#090814"/>
<path d="M48.3892 175.222L52.3553 176.375L53.8761 171.153L49.9099 170.001L48.3892 175.222Z" fill="#ED9DA0"/>
<path d="M48.0176 179.022L56.4483 181.472C57.1735 181.682 57.9364 181.727 58.6813 181.604L60.4529 181.309C60.6476 181.276 60.8277 181.185 60.9692 181.047C61.1107 180.91 61.2068 180.732 61.2449 180.539C61.2829 180.345 61.2609 180.144 61.182 179.964C61.103 179.783 60.9708 179.63 60.8029 179.526L57.8549 177.708L53.2077 173.235L53.1977 173.254C52.9448 173.742 52.556 174.481 52.5226 174.523C51.7727 175.003 51.1084 175.132 50.5483 174.905C49.5708 174.51 49.2403 173.155 49.2369 173.141L49.2344 173.131L49.224 173.129C49.1205 173.103 49.0125 173.102 48.9083 173.125C48.8042 173.147 48.7067 173.194 48.6234 173.26C48.2928 173.54 48.2781 174.113 48.2777 174.2C47.9243 174.389 47.3639 175.854 47.3189 175.972C46.7985 176.278 46.4918 176.628 46.407 177.012C46.3756 177.2 46.3843 177.392 46.4325 177.576C46.4808 177.761 46.5675 177.932 46.6869 178.081C47.0099 178.537 47.4796 178.869 48.0178 179.022L48.0176 179.022Z" fill="#090814"/>
<path d="M61.6732 74.7529C61.6735 73.5132 62.0178 72.2978 62.6678 71.2417C63.3178 70.1856 64.2481 69.3301 65.3554 68.7702C66.4627 68.2103 67.7037 67.9679 68.9406 68.0699C70.1776 68.1719 71.362 68.6143 72.3624 69.348C73.3628 70.0817 74.1401 71.078 74.6079 72.2262C75.0757 73.3745 75.2158 74.6298 75.0126 75.8528C74.8094 77.0757 74.2708 78.2185 73.4566 79.1542C72.6425 80.09 71.5847 80.782 70.4006 81.1535L69.1024 89.723L62.4848 84.2153C63.3872 83.0293 64.1262 81.7278 64.682 80.3455C63.7571 79.7344 62.9983 78.9038 62.4735 77.9281C61.9487 76.9523 61.6743 75.8618 61.6747 74.7542L61.6732 74.7529Z" fill="#ED9DA0"/>
<path d="M59.0232 107.859L58.0538 94.3033C57.9696 93.1277 58.1184 91.9471 58.4915 90.8291L61.3649 82.2214L69.8263 84.936L73.3963 93.0945L75.3406 96.6553C75.7716 97.4446 75.9351 98.352 75.8069 99.2418C75.6786 100.132 75.2653 100.956 74.629 101.592L73.3965 102.823L75.1147 109.118L74.9339 109.112L75.1764 109.143C75.1764 109.143 86.6645 143.664 86.2523 173.023H71.5067L70.6314 138.943L68.0702 174.346L48.6392 173.228L59.0225 107.859H59.0232Z" fill="#E6E6E6"/>
<path d="M59.5173 83.5665C59.5173 83.5665 59.8309 85.9437 62.7362 86.0206L68.6295 86.1781C68.6295 86.1781 63.6476 74.068 65.697 75.4321C67.7463 76.7963 73.208 71.0768 73.208 71.0768L74.8198 74.0962C74.8198 74.0962 78.6697 72.7034 74.4029 69.2928C74.4029 69.2928 69.311 65.3603 63.9054 67.7221C58.4998 70.0839 59.5173 83.5665 59.5173 83.5665Z" fill="#090814"/>
<path d="M83.3494 110.531C83.4272 109.018 82.0079 107.715 80.1774 107.62C79.7003 107.586 79.2213 107.648 78.7683 107.802C78.3153 107.955 77.8974 108.197 77.539 108.513L77.4965 108.511L66.6456 107.389L67.4595 96.6317C67.7606 94.5516 67.1758 92.4539 65.1243 91.9833C64.5299 91.8467 63.9123 91.8461 63.3177 91.9815C62.723 92.117 62.1667 92.385 61.6904 92.7655C61.2141 93.146 60.8301 93.6292 60.5671 94.1789C60.3041 94.7286 60.169 95.3305 60.1718 95.9398L60.2338 109.489C60.2357 109.947 60.328 110.4 60.5055 110.822C60.6829 111.244 60.9419 111.627 61.2678 111.949C61.5937 112.271 61.9799 112.526 62.4044 112.699C62.829 112.871 63.2834 112.959 63.7418 112.956L77.3597 111.939C77.6835 112.291 78.0741 112.575 78.5089 112.774C78.9436 112.973 79.4137 113.084 79.8918 113.1C81.7225 113.195 83.2705 112.044 83.3481 110.532L83.3494 110.531Z" fill="#ED9DA0"/>
<path d="M68.504 91.8823L67.8504 104.155L58.7686 103.539L60.3746 90.7758" fill="#E6E6E6"/>
<path d="M102.084 181.925L35.2926 182C35.215 182 35.1406 181.969 35.0857 181.914C35.0308 181.859 35 181.785 35 181.707C35 181.63 35.0308 181.556 35.0857 181.501C35.1406 181.446 35.215 181.415 35.2926 181.415L102.084 181.341C102.162 181.341 102.236 181.371 102.291 181.426C102.346 181.481 102.377 181.556 102.377 181.633C102.377 181.711 102.346 181.785 102.291 181.84C102.236 181.895 102.162 181.925 102.084 181.925V181.925Z" fill="#E6E6E6"/>
<path d="M191.26 93.27H95.6673C94.8113 93.2649 93.9923 92.9208 93.39 92.3133C92.7877 91.7058 92.4513 90.8844 92.4545 90.0295V52.2401C92.4514 51.3852 92.788 50.564 93.3903 49.9566C93.9925 49.3493 94.8114 49.0053 95.6673 49.0002H191.26C192.115 49.0053 192.934 49.3494 193.537 49.9568C194.139 50.5642 194.475 51.3854 194.472 52.2403V90.0295C194.475 90.8843 194.139 91.7055 193.537 92.313C192.934 92.9204 192.115 93.2644 191.26 93.2696V93.27Z" fill="#090814"/>
<path d="M190.911 92.8968H96.0173C95.1718 92.8959 94.3612 92.5599 93.7633 91.9627C93.1654 91.3655 92.8291 90.5558 92.8281 89.7113V52.5582C92.8291 51.7137 93.1655 50.9041 93.7634 50.3069C94.3612 49.7097 95.1718 49.3738 96.0173 49.3729H190.911C191.756 49.3738 192.567 49.7098 193.165 50.307C193.763 50.9042 194.099 51.7139 194.1 52.5584V89.7113C194.099 90.5558 193.763 91.3655 193.165 91.9627C192.567 92.5599 191.756 92.8959 190.911 92.8968Z" fill="#F2F2F2"/>
<path d="M168.779 90.8653H111.08C106.78 90.8607 102.658 89.1526 99.6172 86.1157C96.5768 83.0788 94.8667 78.9611 94.8621 74.6663V67.6054C94.8666 63.3105 96.5767 59.1928 99.6171 56.1559C102.657 53.1189 106.78 51.4107 111.08 51.4061H175.847C180.147 51.4107 184.269 53.1189 187.31 56.1559C190.35 59.1928 192.06 63.3105 192.065 67.6054C192.058 73.772 189.602 79.684 185.237 84.0446C180.871 88.4051 174.953 90.8581 168.779 90.8653Z" fill="white"/>
<path d="M153.895 62.0417H115.755C115.646 62.0434 115.538 62.0235 115.436 61.983C115.335 61.9425 115.243 61.8822 115.165 61.8058C115.087 61.7293 115.025 61.6382 114.983 61.5376C114.941 61.4371 114.919 61.3292 114.919 61.2201C114.919 61.1111 114.941 61.0032 114.983 60.9027C115.025 60.8021 115.087 60.711 115.165 60.6345C115.243 60.558 115.335 60.4978 115.436 60.4573C115.538 60.4168 115.646 60.3969 115.755 60.3986H153.895C154.004 60.3969 154.113 60.4168 154.214 60.4573C154.315 60.4978 154.408 60.558 154.485 60.6345C154.563 60.711 154.625 60.8021 154.667 60.9027C154.709 61.0032 154.731 61.1111 154.731 61.2201C154.731 61.3292 154.709 61.4371 154.667 61.5376C154.625 61.6382 154.563 61.7293 154.485 61.8058C154.408 61.8822 154.315 61.9425 154.214 61.983C154.113 62.0235 154.004 62.0434 153.895 62.0417Z" fill="#E6E6E6"/>
<path d="M173.202 70.8072H115.755C115.646 70.809 115.538 70.789 115.436 70.7485C115.335 70.708 115.243 70.6478 115.165 70.5714C115.087 70.4949 115.025 70.4037 114.983 70.3032C114.941 70.2026 114.919 70.0947 114.919 69.9857C114.919 69.8767 114.941 69.7688 114.983 69.6682C115.025 69.5677 115.087 69.4765 115.165 69.4001C115.243 69.3236 115.335 69.2634 115.436 69.2229C115.538 69.1824 115.646 69.1624 115.755 69.1642H173.202C173.311 69.1624 173.42 69.1824 173.521 69.2229C173.623 69.2634 173.715 69.3236 173.793 69.4001C173.87 69.4765 173.932 69.5677 173.974 69.6682C174.016 69.7688 174.038 69.8767 174.038 69.9857C174.038 70.0947 174.016 70.2026 173.974 70.3032C173.932 70.4037 173.87 70.4949 173.793 70.5714C173.715 70.6478 173.623 70.708 173.521 70.7485C173.42 70.789 173.311 70.809 173.202 70.8072Z" fill="#E6E6E6"/>
<path d="M173.202 79.5726H115.755C115.539 79.5691 115.333 79.4811 115.182 79.3274C115.031 79.1737 114.946 78.9667 114.946 78.7511C114.946 78.5355 115.031 78.3285 115.182 78.1748C115.333 78.0211 115.539 77.933 115.755 77.9295H173.202C173.418 77.933 173.624 78.0211 173.776 78.1748C173.927 78.3285 174.012 78.5355 174.012 78.7511C174.012 78.9667 173.927 79.1737 173.776 79.3274C173.624 79.4811 173.418 79.5691 173.202 79.5726Z" fill="#E6E6E6"/>
<path d="M173.202 79.5726H115.755C115.539 79.5691 115.333 79.4811 115.182 79.3274C115.031 79.1737 114.946 78.9667 114.946 78.7511C114.946 78.5355 115.031 78.3285 115.182 78.1748C115.333 78.0211 115.539 77.933 115.755 77.9295H173.202C173.418 77.933 173.624 78.0211 173.776 78.1748C173.927 78.3285 174.012 78.5355 174.012 78.7511C174.012 78.9667 173.927 79.1737 173.776 79.3274C173.624 79.4811 173.418 79.5691 173.202 79.5726Z" fill="#E6E6E6"/>
<path d="M144.479 84.1979C151.701 84.1979 157.556 78.3497 157.556 71.1356C157.556 63.9215 151.701 58.0733 144.479 58.0733C137.256 58.0733 131.401 63.9215 131.401 71.1356C131.401 78.3497 137.256 84.1979 144.479 84.1979Z" fill="#0F766E"/>
<mask id="mask0_4534_1148" style="mask-type:luminance" maskUnits="userSpaceOnUse" x="131" y="58" width="27" height="27">
<path d="M144.479 84.1979C151.701 84.1979 157.556 78.3497 157.556 71.1356C157.556 63.9215 151.701 58.0733 144.479 58.0733C137.256 58.0733 131.401 63.9215 131.401 71.1356C131.401 78.3497 137.256 84.1979 144.479 84.1979Z" fill="white"/>
</mask>
<g mask="url(#mask0_4534_1148)">
<path d="M152.198 73.8697L140.5 74.0158C140.28 74.0158 140.069 73.9285 139.914 73.7733C139.758 73.6181 139.671 73.4075 139.671 73.188V69.3278C139.666 68.5161 139.822 67.7113 140.13 66.96C140.438 66.2086 140.891 65.5254 141.464 64.9497C142.037 64.374 142.718 63.9171 143.469 63.6053C144.219 63.2936 145.024 63.1331 145.837 63.1331C146.649 63.1331 147.454 63.2936 148.205 63.6053C148.955 63.9171 149.636 64.374 150.209 64.9497C150.782 65.5254 151.236 66.2086 151.543 66.96C151.851 67.7113 152.007 68.5161 152.002 69.3278L153.025 73.0423C153.025 73.2619 152.938 73.4724 152.783 73.6277C152.627 73.7829 152.417 73.8701 152.197 73.8701L152.198 73.8697Z" fill="#090814"/>
<path d="M145.786 73.9754C148.144 73.9754 150.056 72.066 150.056 69.7106C150.056 67.3551 148.144 65.4457 145.786 65.4457C143.428 65.4457 141.516 67.3551 141.516 69.7106C141.516 72.066 143.428 73.9754 145.786 73.9754Z" fill="#FFB9B9"/>
<path d="M147.927 73.0058C147.927 73.0058 147.852 76.0872 148.152 76.1623C148.453 76.2374 144.014 77.4399 144.014 77.4399L143.563 73.2312L147.927 73.0058Z" fill="#FFB9B9"/>
<path d="M139.071 92.2964C139.84 92.5016 147.444 95.6314 151.052 92.4602L153.883 78.4988L150.491 77.4303L149.308 75.9927C149.179 75.8368 149.018 75.7117 148.835 75.6268C148.651 75.5419 148.451 75.4993 148.25 75.5022L144.042 75.5584C143.856 75.5611 143.672 75.6022 143.503 75.6792C143.333 75.7561 143.182 75.8672 143.057 76.0054L141.71 77.5067L138.665 78.2144L139.071 92.2964Z" fill="#F2F2F2"/>
<path d="M152.593 79.5879L153.514 78.3615C153.514 78.3615 155.203 78.8047 156.061 81.2221C156.919 83.6395 160.434 102.952 160.434 102.952L156.648 104.708L151.522 87.6397L152.593 79.5879Z" fill="#F2F2F2"/>
<path d="M140.018 79.3171L138.743 78.1978C138.743 78.1978 137.408 78.5345 136.55 80.9517C135.691 83.3688 124.74 99.5747 124.74 99.5747L128.526 101.33L141.089 87.3684L140.018 79.3171Z" fill="#F2F2F2"/>
<path d="M150.236 69.4293H144.267C144.155 69.4292 144.047 69.3881 143.963 69.3139C143.879 69.2396 143.825 69.1373 143.811 69.026L143.733 68.4086C143.726 68.3493 143.699 68.2942 143.657 68.2514C143.616 68.2087 143.561 68.1805 143.502 68.1713C143.443 68.1621 143.383 68.1722 143.33 68.2002C143.277 68.2282 143.235 68.2726 143.209 68.3266L142.818 69.1633C142.781 69.2425 142.722 69.3094 142.648 69.3563C142.574 69.4032 142.489 69.4283 142.401 69.4285H141.495C141.373 69.4286 141.256 69.3804 141.169 69.2945C141.083 69.2086 141.035 69.0919 141.034 68.9702C141.034 68.9551 141.035 68.94 141.036 68.925L141.394 65.1956C141.402 65.1159 141.43 65.0395 141.476 64.9739C141.522 64.9083 141.584 64.8558 141.657 64.8214C142.938 64.1926 144.348 63.866 145.776 63.8668C147.204 63.8677 148.613 64.1959 149.894 64.8263C149.964 64.8589 150.024 64.9082 150.069 64.9698C150.115 65.0314 150.144 65.1033 150.155 65.1791L150.69 68.9035C150.7 68.9687 150.695 69.0352 150.676 69.0984C150.658 69.1616 150.626 69.22 150.583 69.2698C150.539 69.3196 150.486 69.3594 150.426 69.3867C150.366 69.4141 150.301 69.4281 150.235 69.428L150.236 69.4293Z" fill="#090814"/>
</g>
<path d="M194.442 103.826C200.273 103.826 205 99.1047 205 93.2802C205 87.4557 200.273 82.734 194.442 82.734C188.61 82.734 183.883 87.4557 183.883 93.2802C183.883 99.1047 188.61 103.826 194.442 103.826Z" fill="#0F766E"/>
<path d="M193.38 97.603C193.238 97.603 193.098 97.57 192.971 97.5067C192.845 97.4434 192.734 97.3514 192.65 97.2381L190.41 94.2568C190.278 94.0626 190.226 93.8251 190.264 93.5935C190.303 93.362 190.429 93.1542 190.617 93.0133C190.805 92.8725 191.041 92.8094 191.274 92.8373C191.507 92.8651 191.721 92.9817 191.87 93.1628L193.335 95.1132L197.096 89.4772C197.235 89.2878 197.442 89.1593 197.674 89.1185C197.906 89.0777 198.144 89.1276 198.34 89.2579C198.535 89.3883 198.673 89.5889 198.725 89.8182C198.776 90.0474 198.737 90.2876 198.615 90.4888L194.138 97.1961C194.057 97.3174 193.948 97.4176 193.82 97.4882C193.692 97.5588 193.55 97.5978 193.404 97.6019L193.38 97.603Z" fill="white"/>
<path d="M102.686 110.084L102.548 110.541C104.034 111.218 105.546 111.873 107.042 112.493L107.13 112.014C105.651 111.402 104.155 110.754 102.686 110.084ZM111.608 113.766L111.57 114.264C113.077 114.823 114.605 115.355 116.112 115.85L116.098 115.333C114.607 114.844 113.096 114.318 111.607 113.765L111.608 113.766ZM120.591 116.712L120.655 117.244C122.159 117.673 123.679 118.075 125.172 118.438L125.058 117.892C123.58 117.534 122.077 117.137 120.59 116.712L120.591 116.712ZM129.481 118.871L129.646 119.426C131.12 119.72 132.604 119.983 134.057 120.208L133.844 119.643C132.407 119.421 130.94 119.16 129.481 118.87L129.481 118.871ZM138.127 120.208L138.388 120.78C139.81 120.933 141.235 121.055 142.621 121.138L142.313 120.563C140.941 120.48 139.532 120.359 138.126 120.208L138.127 120.208ZM146.386 120.708L146.741 121.283C148.086 121.296 149.427 121.274 150.728 121.216L150.332 120.641C149.043 120.698 147.716 120.72 146.386 120.707L146.386 120.708ZM154.126 120.364L154.567 120.937C155.815 120.809 157.052 120.643 158.242 120.444L157.761 119.877C156.584 120.073 155.36 120.237 154.126 120.363L154.126 120.364ZM161.219 119.182L161.739 119.742C162.868 119.473 163.98 119.167 165.042 118.831L164.486 118.282C163.435 118.614 162.336 118.917 161.219 119.182ZM167.546 117.179L168.137 117.716C169.128 117.312 170.095 116.87 171.011 116.399L170.388 115.877C169.482 116.341 168.527 116.779 167.546 117.178L167.546 117.179ZM172.998 114.385L173.651 114.891C174.478 114.364 175.279 113.796 176.05 113.19L175.372 112.704C174.625 113.292 173.826 113.858 172.998 114.385L172.998 114.385ZM177.49 110.841L178.193 111.306C178.858 110.656 179.486 109.969 180.074 109.249L179.35 108.806C178.768 109.518 178.147 110.197 177.49 110.841L177.49 110.841Z" fill="#090814"/>
<path d="M101.106 107.546L101.24 107.998L99.0114 108.653L99.826 110.826L99.3831 110.991L98.3902 108.344L101.106 107.546Z" fill="#090814"/>
<path d="M179.586 106.003L179.729 106.452L181.943 105.747L182.485 108.004L182.944 107.892L182.284 105.143L179.586 106.003Z" fill="#090814"/>
</g>
<defs>
<clipPath id="clip0_4534_1148">
<rect width="170" height="133" fill="white" transform="translate(35 49)"/>
</clipPath>
</defs>
</svg>
