<svg width="240" height="240" viewBox="0 0 240 240" fill="none" xmlns="http://www.w3.org/2000/svg">
<g clip-path="url(#clip0_4546_1011)">
<path d="M66.9189 140.362C79.0243 140.362 88.8377 130.549 88.8377 118.444C88.8377 106.338 79.0243 96.5249 66.9189 96.5249C54.8135 96.5249 45.0001 106.338 45.0001 118.444C45.0001 130.549 54.8135 140.362 66.9189 140.362Z" fill="#F2F2F2"/>
<path d="M67.1148 119.357C71.942 119.357 75.8553 115.444 75.8553 110.617C75.8553 105.79 71.942 101.876 67.1148 101.876C62.2875 101.876 58.3743 105.79 58.3743 110.617C58.3743 115.444 62.2875 119.357 67.1148 119.357Z" fill="#2F2E41"/>
<path d="M88.9566 68.143C88.9489 72.4781 87.6559 76.7136 85.241 80.3138C82.8262 83.9141 79.3979 86.7174 75.3899 88.3693C71.3818 90.0211 66.9739 90.4474 62.7236 89.5941C58.4732 88.7408 54.5714 86.6464 51.5114 83.5755C48.4515 80.5047 46.3708 76.5954 45.5326 72.3421C44.6944 68.0888 45.1363 63.6824 46.8024 59.6802C48.4685 55.6781 51.2839 52.2598 54.8927 49.8577C58.5015 47.4556 62.7416 46.1777 67.0767 46.1853C69.9572 46.183 72.8098 46.7499 75.4705 47.8535C78.1313 48.9571 80.5477 50.5756 82.5809 52.616C84.6141 54.6565 86.2241 57.0786 87.3182 59.7433C88.4124 62.4079 88.9692 65.2625 88.9566 68.143Z" fill="#F2F2F2"/>
<path d="M118.932 140.362C131.037 140.362 140.85 130.549 140.85 118.444C140.85 106.338 131.037 96.5249 118.932 96.5249C106.826 96.5249 97.0128 106.338 97.0128 118.444C97.0128 130.549 106.826 140.362 118.932 140.362Z" fill="#F2F2F2"/>
<path d="M118.868 90.0229C130.973 90.0229 140.787 80.2095 140.787 68.1041C140.787 55.9987 130.973 46.1853 118.868 46.1853C106.762 46.1853 96.949 55.9987 96.949 68.1041C96.949 80.2095 106.762 90.0229 118.868 90.0229Z" fill="#F2F2F2"/>
<path d="M172.289 90.0229C184.395 90.0229 194.208 80.2095 194.208 68.1041C194.208 55.9987 184.395 46.1853 172.289 46.1853C160.184 46.1853 150.37 55.9987 150.37 68.1041C150.37 80.2095 160.184 90.0229 172.289 90.0229Z" fill="#F2F2F2"/>
<path d="M173.081 140.362C185.187 140.362 195 130.549 195 118.444C195 106.338 185.187 96.5249 173.081 96.5249C160.976 96.5249 151.162 106.338 151.162 118.444C151.162 130.549 160.976 140.362 173.081 140.362Z" fill="#F2F2F2"/>
<path d="M88.9566 171.896C88.9566 176.231 87.6711 180.469 85.2626 184.073C82.8542 187.678 79.4309 190.487 75.4258 192.146C71.4207 193.805 67.0135 194.239 62.7617 193.393C58.5098 192.548 54.6043 190.46 51.5389 187.395C48.4735 184.329 46.3859 180.424 45.5402 176.172C44.6944 171.92 45.1285 167.513 46.7875 163.508C48.4465 159.503 51.2559 156.079 54.8604 153.671C58.4649 151.262 62.7027 149.977 67.0378 149.977C69.9198 149.964 72.7758 150.522 75.4409 151.619C78.106 152.716 80.5274 154.33 82.5654 156.368C84.6033 158.406 86.2173 160.828 87.3143 163.493C88.4113 166.158 88.9694 169.014 88.9566 171.896Z" fill="#F2F2F2"/>
<path d="M120.276 193.815C132.382 193.815 142.195 184.001 142.195 171.896C142.195 159.79 132.382 149.977 120.276 149.977C108.171 149.977 98.3577 159.79 98.3577 171.896C98.3577 184.001 108.171 193.815 120.276 193.815Z" fill="#F2F2F2"/>
<path d="M56.8784 60.9739C57.7848 58.0855 59.8458 55.4363 62.6962 54.4599C65.5467 53.4834 69.7206 54.9709 71.8635 57.1066C75.7834 61.0132 76.74 74.4339 74.0469 78.675C73.5112 78.6467 71.6628 78.6257 71.1207 78.6054L70.3537 76.0492V78.5802C69.49 78.5535 68.6195 78.5351 67.7422 78.5249C64.801 78.4884 61.9884 77.313 59.8958 75.2458C57.8032 73.1786 56.5936 70.3805 56.5212 67.4399C56.451 64.6268 56.5213 62.1122 56.8784 60.9739Z" fill="#2F2E41"/>
<path d="M66.7125 70.547C70.1625 70.547 72.9592 67.7502 72.9592 64.3003C72.9592 60.8503 70.1625 58.0536 66.7125 58.0536C63.2626 58.0536 60.4658 60.8503 60.4658 64.3003C60.4658 67.7502 63.2626 70.547 66.7125 70.547Z" fill="#9E616A"/>
<path d="M61.3214 58.8142L68.5139 55.2127C69.9843 55.8753 71.2508 56.9193 72.1818 58.2363C73.1128 59.5533 73.6746 61.0954 73.8087 62.7027L73.988 64.8501L70.9761 64.0834L70.6462 61.3375L70.1347 63.8692L68.7448 63.5155L68.758 59.2526L67.3672 63.5125L62.4029 62.3719L61.3214 58.8142Z" fill="#2F2E41"/>
<path d="M112.913 110.219C114.622 110.219 116.007 108.834 116.007 107.124C116.007 105.415 114.622 104.03 112.913 104.03C111.204 104.03 109.818 105.415 109.818 107.124C109.818 108.834 111.204 110.219 112.913 110.219Z" fill="#2F2E41"/>
<path d="M117.864 121.978C122.194 121.978 125.703 118.468 125.703 114.139C125.703 109.809 122.194 106.299 117.864 106.299C113.534 106.299 110.024 109.809 110.024 114.139C110.024 118.468 113.534 121.978 117.864 121.978Z" fill="#2F2E41"/>
<path d="M118.513 121.976C122.031 121.976 124.883 119.124 124.883 115.606C124.883 112.088 122.031 109.235 118.513 109.235C114.994 109.235 112.142 112.088 112.142 115.606C112.142 119.124 114.994 121.976 118.513 121.976Z" fill="#9E616A"/>
<path d="M122.839 109.112C121.723 108.431 120.444 108.063 119.137 108.046C117.829 108.029 116.542 108.363 115.408 109.014C114.274 109.665 113.336 110.608 112.691 111.746C112.047 112.884 111.72 114.173 111.745 115.481C114.991 116.296 118.401 116.919 121.863 115.676L122.68 113.675L123.162 115.677C124.216 116.108 125.273 116.472 126.33 115.673C126.373 114.369 126.074 113.077 125.461 111.926C124.848 110.775 123.944 109.804 122.839 109.112Z" fill="#2F2E41"/>
<path d="M110.031 98.7239C107.892 97.7427 105.207 98.2031 103.425 99.7416C101.643 101.28 100.796 103.784 101.14 106.113C101.491 108.489 102.935 110.535 104.266 112.533C105.598 114.532 106.898 116.722 106.897 119.124C106.896 120.853 106.209 122.512 104.987 123.736C103.764 124.96 102.107 125.649 100.377 125.653C102.407 126.527 104.526 127.418 106.734 127.314C108.942 127.211 111.256 125.791 111.616 123.611C111.875 122.039 111.104 120.507 110.461 119.05C109.414 116.676 108.657 114.184 108.207 111.629C107.992 110.409 107.852 109.127 108.25 107.954C108.567 107.085 109.154 106.34 109.926 105.831C110.698 105.321 111.613 105.072 112.537 105.122L113.266 104.466C113.591 102.134 112.171 99.705 110.031 98.7239Z" fill="#2F2E41"/>
<path d="M163.344 59.5307C163.043 61.147 162.55 62.7214 161.874 64.2204C158.008 72.3999 169.019 69.7338 172.954 69.7338C177.256 69.7338 181.373 71.9962 180.744 61.9437C180.475 57.6498 177.256 54.1537 172.954 54.1537C169.279 54.1537 164.112 55.7871 163.344 59.5307Z" fill="#2F2E41"/>
<path d="M172.309 69.7319C175.805 69.7319 178.639 66.8977 178.639 63.4016C178.639 59.9055 175.805 57.0713 172.309 57.0713C168.813 57.0713 165.979 59.9055 165.979 63.4016C165.979 66.8977 168.813 69.7319 172.309 69.7319Z" fill="#FFB6B6"/>
<path d="M168.01 56.9487C169.12 56.2725 170.39 55.9067 171.689 55.8895C172.988 55.8724 174.268 56.2046 175.395 56.8514C176.522 57.4981 177.454 58.4357 178.094 59.5661C178.734 60.6965 179.059 61.9782 179.035 63.2771C175.809 64.0869 172.42 64.7067 168.981 63.4708L168.168 61.4826L167.689 63.4723C166.642 63.9004 165.591 64.2627 164.541 63.4681C164.498 62.1729 164.796 60.8891 165.405 59.745C166.014 58.6009 166.912 57.6367 168.01 56.9487Z" fill="#2F2E41"/>
<path d="M67.1182 120.506C71.4306 120.506 74.9265 117.01 74.9265 112.697C74.9265 108.385 71.4306 104.889 67.1182 104.889C62.8058 104.889 59.3099 108.385 59.3099 112.697C59.3099 117.01 62.8058 120.506 67.1182 120.506Z" fill="#FFB8B8"/>
<path d="M119.794 174.169C123.466 174.169 126.443 171.192 126.443 167.52C126.443 163.847 123.466 160.87 119.794 160.87C116.121 160.87 113.144 163.847 113.144 167.52C113.144 171.192 116.121 174.169 119.794 174.169Z" fill="#9E616A"/>
<path d="M119.761 70.34C123.709 70.34 126.909 67.14 126.909 63.1926C126.909 59.2453 123.709 56.0453 119.761 56.0453C115.814 56.0453 112.614 59.2453 112.614 63.1926C112.614 67.14 115.814 70.34 119.761 70.34Z" fill="#FFB8B8"/>
<path d="M126.054 58.471C126.054 58.471 127.915 54.9135 123.821 54.5901C123.821 54.5901 120.331 51.424 116.773 54.0113C116.773 54.0113 114.833 54.0113 113.772 56.2071C113.772 56.2071 112.246 55.6283 111.91 57.1774C111.91 57.1774 110.793 60.4115 111.91 63.3222C113.027 66.2329 113.398 66.5563 113.398 66.5563C113.398 66.5563 112.614 62.9443 117.081 62.6209C121.548 62.2974 125.645 59.4993 126.018 63.0568C126.39 66.6143 126.799 65.0072 126.799 65.0072C126.799 65.0072 130.334 59.9264 126.054 58.471Z" fill="#2F2E41"/>
<path d="M172.476 121.159C176.34 121.159 179.473 118.026 179.473 114.162C179.473 110.298 176.34 107.165 172.476 107.165C168.612 107.165 165.479 110.298 165.479 114.162C165.479 118.026 168.612 121.159 172.476 121.159Z" fill="#FFB6B6"/>
<path d="M76.002 166.651L75.8935 166.847C76.8589 164.468 75.9811 161.536 74.259 159.742C72.537 157.948 70.143 157.128 67.7858 156.803C66.0359 156.561 64.2195 156.568 62.5556 157.209C60.146 158.138 58.3051 160.286 56.768 162.522C56.065 163.544 55.3737 164.71 55.4438 165.988C55.5088 167.174 56.2127 168.18 56.7892 169.186C57.3657 170.192 57.8471 171.44 57.4334 172.539C57.1868 173.193 56.6657 173.664 56.2429 174.2C55.8201 174.735 55.4723 175.458 55.6766 176.13C55.7672 176.387 55.923 176.616 56.1287 176.795C56.3344 176.974 56.5829 177.096 56.85 177.15C57.3611 177.269 57.8914 177.191 58.409 177.113L71.8454 175.083C72.7584 174.945 73.6246 174.588 74.3699 174.043C75.1153 173.498 75.7178 172.781 76.1261 171.953C76.5344 171.125 76.7363 170.21 76.7147 169.287C76.6931 168.364 76.4486 167.459 76.002 166.651Z" fill="#2F2E41"/>
<path d="M72.4922 169.472C73.0734 165.891 70.6413 162.517 67.06 161.935C63.4787 161.354 60.1044 163.786 59.5232 167.368C58.9421 170.949 61.3742 174.323 64.9554 174.904C68.5367 175.486 71.911 173.054 72.4922 169.472Z" fill="#FFB9B9"/>
<path d="M83.4962 186.368C79.6988 190.689 74.3546 193.343 68.6172 193.758C62.8798 194.172 57.2095 192.314 52.8303 188.584L54.7103 183.338C55.1352 182.406 55.8057 181.608 56.6498 181.028C57.494 180.449 58.48 180.11 59.5022 180.048L60.6982 179.974L63.5501 177.515C63.5501 177.515 71.2345 177.24 71.1205 177.109L75.7751 179.909L75.7712 179.889L77.601 180.001C78.6233 180.063 79.6094 180.402 80.4536 180.981C81.2978 181.561 81.9682 182.36 82.3929 183.292L83.4962 186.368Z" fill="#0D9488"/>
<path d="M136.438 186.368C132.641 190.689 127.297 193.343 121.559 193.758C115.822 194.172 110.152 192.314 105.772 188.584L107.652 183.338C108.077 182.406 108.748 181.608 109.592 181.028C110.436 180.449 111.422 180.11 112.444 180.048L113.64 179.974L116.492 177.515C116.492 177.515 124.176 177.24 124.062 177.109L128.717 179.909L128.713 179.889L130.543 180.001C131.565 180.063 132.551 180.402 133.396 180.981C134.24 181.561 134.91 182.36 135.335 183.292L136.438 186.368Z" fill="#0D9488"/>
<path d="M72.239 162.323C72.0694 161.426 71.1544 161.015 70.3705 160.817C68.0966 160.236 65.7313 160.107 63.4076 160.434C61.7137 160.676 59.9795 161.209 58.7504 162.531C57.7593 163.644 57.1978 165.074 57.1666 166.565C57.1165 167.456 57.3156 168.343 57.7416 169.127C58.1839 169.876 58.9378 170.419 59.7161 170.4L59.7949 170.674C63.0931 170.214 66.1569 168.162 68.0865 165.12C67.7243 166.413 67.0036 167.577 66.0077 168.478C68.2345 167.587 70.1701 166.095 71.5989 164.169C71.9891 163.651 72.3679 163.005 72.239 162.323Z" fill="#2F2E41"/>
<path d="M83.3029 132.846C79.5056 137.167 74.1613 139.821 68.424 140.236C62.6866 140.65 57.0163 138.792 52.6371 135.062L54.5171 129.816C54.942 128.885 55.6124 128.086 56.4566 127.506C57.3008 126.927 58.2868 126.588 59.3089 126.526L60.505 126.452L63.3569 123.993C63.3569 123.993 71.0412 123.718 70.9272 123.587L75.5819 126.387L75.578 126.367L77.4078 126.48C78.43 126.541 79.4162 126.88 80.2604 127.46C81.1046 128.039 81.775 128.838 82.1996 129.77L83.3029 132.846Z" fill="#0D9488"/>
<path d="M135.424 133.109C131.626 137.43 126.282 140.084 120.545 140.499C114.807 140.913 109.137 139.055 104.758 135.325L106.638 130.079C107.063 129.148 107.733 128.349 108.577 127.769C109.422 127.19 110.408 126.851 111.43 126.789L112.626 126.715L115.478 124.256C115.478 124.256 123.162 123.981 123.048 123.85L127.703 126.65L127.699 126.63L129.529 126.742C130.551 126.804 131.537 127.143 132.381 127.723C133.225 128.302 133.896 129.101 134.32 130.033L135.424 133.109Z" fill="#0D9488"/>
<path d="M189.525 133.109C185.728 137.43 180.384 140.084 174.646 140.499C168.909 140.913 163.239 139.055 158.859 135.325L160.739 130.079C161.164 129.148 161.835 128.349 162.679 127.769C163.523 127.19 164.509 126.851 165.531 126.789L166.727 126.715L169.579 124.256C169.579 124.256 177.264 123.981 177.15 123.85L181.804 126.65L181.8 126.63L183.63 126.742C184.652 126.804 185.638 127.143 186.483 127.723C187.327 128.302 187.997 129.101 188.422 130.033L189.525 133.109Z" fill="#0D9488"/>
<path d="M83.3029 82.6091C79.5056 86.9299 74.1613 89.5841 68.424 89.9988C62.6866 90.4134 57.0163 88.5552 52.6371 84.8253L54.5171 79.5794C54.942 78.6477 55.6124 77.8492 56.4566 77.2695C57.3008 76.6898 58.2868 76.3508 59.3089 76.2889L60.505 76.2155L63.3569 73.7558C63.3569 73.7558 71.0412 73.4814 70.9272 73.35L75.5819 76.1498L75.578 76.1305L77.4078 76.2425C78.43 76.3042 79.4162 76.643 80.2604 77.2228C81.1046 77.8025 81.775 78.6011 82.1996 79.5331L83.3029 82.6091Z" fill="#0D9488"/>
<path d="M135.231 82.6788C131.433 86.9996 126.089 89.6538 120.352 90.0685C114.614 90.4831 108.944 88.6249 104.565 84.895L106.445 79.6491C106.87 78.7174 107.54 77.9188 108.384 77.3391C109.228 76.7595 110.215 76.4205 111.237 76.3586L112.433 76.2852L115.285 73.8255C115.285 73.8255 122.969 73.5511 122.855 73.4197L127.51 76.2195L127.506 76.2001L129.336 76.3122C130.358 76.3739 131.344 76.7127 132.188 77.2924C133.032 77.8721 133.703 78.6708 134.127 79.6027L135.231 82.6788Z" fill="#0D9488"/>
<path d="M189.332 82.6788C185.534 86.9996 180.19 89.6538 174.453 90.0685C168.716 90.4831 163.045 88.6249 158.666 84.895L160.546 79.6491C160.971 78.7174 161.641 77.9188 162.486 77.3391C163.33 76.7595 164.316 76.4205 165.338 76.3586L166.534 76.2852L169.386 73.8255C169.386 73.8255 177.07 73.5511 176.956 73.4197L181.611 76.2195L181.607 76.2001L183.437 76.3122C184.459 76.3739 185.445 76.7127 186.289 77.2924C187.134 77.8721 187.804 78.6708 188.229 79.6027L189.332 82.6788Z" fill="#0D9488"/>
<path d="M179.856 109.823C179.264 107.707 177.921 105.879 176.078 104.683C174.609 103.744 172.776 103.264 171.112 103.761C169.448 104.258 168.07 105.891 168.179 107.655C167.578 107.451 166.895 107.723 166.455 108.188C166.016 108.652 165.779 109.277 165.61 109.899C165.076 111.878 165.111 113.967 165.712 115.926L165.679 116.207C166.491 116.073 167.107 115.376 167.49 114.634C167.873 113.892 168.093 113.068 168.508 112.344C168.923 111.62 169.612 110.974 170.434 110.952L170.362 112.209C171.069 111.844 171.777 111.48 172.484 111.115C172.316 111.518 172.148 111.92 171.979 112.323C172.597 112.065 173.215 111.806 173.833 111.548C173.764 111.935 173.695 112.322 173.626 112.709C174.238 111.315 176.133 110.702 177.422 111.482C178.17 111.935 178.662 112.742 178.92 113.589C179.178 114.437 179.229 115.333 179.279 116.219C180.233 114.226 180.438 111.955 179.856 109.823Z" fill="#2F2E41"/>
<path d="M113.754 170.596C113.74 170.559 113.728 170.521 113.715 170.484C113.689 170.507 113.664 170.531 113.636 170.552L113.754 170.596Z" fill="#2F2E41"/>
<path d="M127.76 165.154C127.725 164.479 127.549 163.82 127.241 163.218C126.933 162.617 126.502 162.087 125.974 161.665C125.587 161.358 125.139 161.1 124.882 160.677C124.736 160.378 124.612 160.069 124.511 159.752C124 158.537 122.546 157.891 121.241 158.075C119.936 158.259 118.806 159.137 118.046 160.213C117.671 160.034 117.252 159.965 116.84 160.016C116.427 160.067 116.038 160.235 115.718 160.5C115.398 160.765 115.161 161.117 115.034 161.512C114.908 161.908 114.897 162.332 115.004 162.734C114.329 162.189 113.235 162.625 112.814 163.383C112.392 164.142 112.459 165.07 112.584 165.928C112.811 167.48 113.19 169.006 113.714 170.484C114.372 169.905 114.332 168.85 114.251 167.958C114.168 167.031 114.218 165.9 115.028 165.442C115.811 165 116.761 165.486 117.625 165.736C118.307 165.93 119.024 165.973 119.724 165.862C120.425 165.752 121.094 165.491 121.684 165.098C122.134 164.794 122.534 164.413 123.019 164.168C123.503 163.923 124.12 163.839 124.572 164.14C124.984 164.416 125.151 164.93 125.292 165.406C125.624 166.533 125.956 167.66 126.289 168.787C126.777 168.32 127.16 167.755 127.414 167.128C127.667 166.502 127.785 165.829 127.76 165.154Z" fill="#2F2E41"/>
<path d="M75.3561 109.959C75.4109 109.376 75.436 108.791 75.4313 108.205C75.4632 107.047 75.251 105.895 74.8086 104.825C74.2644 103.639 73.2942 102.702 72.0907 102.199C70.8978 101.718 69.5647 101.719 68.3727 102.202C67.2964 101.522 66.1006 100.983 64.8413 100.917C63.582 100.85 62.2505 101.317 61.4745 102.346C61.3012 102.617 61.1043 102.873 60.8862 103.11C60.2624 103.687 59.3144 103.604 58.4852 103.486C58.8571 103.805 59.2291 104.123 59.6012 104.442C59.151 104.56 58.7008 104.677 58.2505 104.795C58.7759 105.114 59.3013 105.432 59.8266 105.751C58.3014 106.666 57.6082 108.664 57.7913 110.479C57.9646 112.197 58.794 113.768 59.7855 115.164C60.1811 114.33 60.0958 113.331 60.0893 112.391C60.0857 112.086 60.1043 111.781 60.145 111.479C63.4959 112.282 66.9972 112.798 70.548 111.522L71.2605 109.778C71.3605 109.788 71.4606 109.798 71.5605 109.809L71.9734 111.524C72.9093 111.906 73.8472 112.24 74.7855 111.889C74.8311 112.154 74.8586 112.424 74.8798 112.684C74.9603 112.373 75.0301 112.06 75.0931 111.746C75.2171 111.679 75.3359 111.604 75.4484 111.519C75.4711 110.997 75.4401 110.475 75.3561 109.959Z" fill="#2F2E41"/>
</g>
<defs>
<clipPath id="clip0_4546_1011">
<rect width="150" height="147.629" fill="white" transform="translate(45 46.1853)"/>
</clipPath>
</defs>
</svg>
