<svg width="240" height="240" viewBox="0 0 240 240" fill="none" xmlns="http://www.w3.org/2000/svg">
<g clip-path="url(#clip0_3136_12524)">
<path d="M197.741 175.558C197.465 175.944 197.186 176.327 196.91 176.708C196.117 177.255 195.176 177.547 194.212 177.545H45.7879C44.8674 177.546 43.9664 177.28 43.194 176.779C42.9376 176.44 42.6842 176.099 42.4279 175.758L42.6842 175.617L117.823 133.923C118.49 133.553 119.239 133.359 120.001 133.358C120.763 133.357 121.512 133.55 122.18 133.917L197.488 175.417L197.741 175.558Z" fill="#0D9488"/>
<path d="M194.212 87.8862L129.092 50.2377C126.353 48.6542 123.246 47.8198 120.083 47.8182C116.92 47.8167 113.813 48.648 111.072 50.2288L45.7879 87.8862C44.5186 87.888 43.3018 88.3936 42.4043 89.2921C41.5068 90.1906 41.0018 91.4087 41 92.6793V172.752C41.0015 174.023 41.5064 175.241 42.404 176.14C43.3016 177.039 44.5185 177.544 45.7879 177.545H194.212C195.481 177.543 196.698 177.038 197.595 176.139C198.493 175.241 198.998 174.023 199 172.752V92.6793C198.998 91.4087 198.493 90.1906 197.596 89.2921C196.698 88.3936 195.481 87.888 194.212 87.8862ZM198.437 172.752C198.434 173.873 197.988 174.947 197.196 175.74C196.405 176.532 195.332 176.979 194.212 176.982H45.7879C44.6681 176.98 43.5947 176.533 42.8029 175.741C42.011 174.948 41.5653 173.873 41.5633 172.752V92.6793C41.5646 91.5581 42.0102 90.4832 42.8021 89.6903C43.5941 88.8975 44.6679 88.4515 45.7879 88.4501L111.072 50.7927C113.813 49.2119 116.92 48.3806 120.083 48.3821C123.246 48.3837 126.353 49.2181 129.092 50.8016L194.212 88.4501C195.332 88.4515 196.406 88.8975 197.198 89.6903C197.99 90.4832 198.435 91.5581 198.437 92.6793V172.752Z" fill="#3F3D56"/>
<path d="M120.084 133.19C119.594 133.191 119.107 133.109 118.644 132.948L118.558 132.917L118.541 132.728C118.488 132.754 118.434 132.779 118.381 132.803L118.324 132.828L118.267 132.803C118.149 132.75 118.031 132.691 117.917 132.627L66.0659 103.459V43.9025C66.0675 42.5196 66.6169 41.1937 67.5937 40.2159C68.5705 39.238 69.8949 38.688 71.2763 38.6864H168.724C170.105 38.688 171.429 39.238 172.406 40.2159C173.383 41.1937 173.932 42.5196 173.934 43.9025V103.535L173.862 103.575L122.252 132.627C121.589 132.997 120.843 133.191 120.084 133.19Z" fill="white"/>
<path d="M120.084 133.331C119.578 133.332 119.075 133.248 118.597 133.081L118.426 133.02L118.419 132.94L118.324 132.982L118.211 132.932C118.088 132.878 117.966 132.816 117.848 132.75L65.9252 103.541V43.9025C65.9268 42.4822 66.4911 41.1205 67.4943 40.1163C68.4974 39.112 69.8576 38.5471 71.2763 38.5455H168.724C170.142 38.5471 171.503 39.112 172.506 40.1163C173.509 41.1205 174.073 42.4822 174.075 43.9025V103.617L122.321 132.75C121.637 133.132 120.867 133.332 120.084 133.331ZM118.954 132.604C119.99 132.902 121.101 132.778 122.045 132.258L173.512 103.288V43.9025C173.51 42.6317 173.005 41.4134 172.108 40.5148C171.21 39.6162 169.993 39.1108 168.724 39.1094H71.2763C70.0069 39.1108 68.79 39.6162 67.8924 40.5148C66.9948 41.4134 66.4899 42.6317 66.4885 43.9025V103.211L69.8652 105.11L118.124 132.259C118.19 132.296 118.257 132.33 118.324 132.363C118.392 132.331 118.459 132.296 118.524 132.259L118.903 132.045L118.954 132.604Z" fill="#3F3D56"/>
<path d="M197.752 89.967L177.314 101.47L173.793 103.453L122.183 132.504C121.541 132.862 120.819 133.05 120.084 133.049C119.61 133.05 119.139 132.971 118.69 132.815C118.566 132.775 118.443 132.728 118.324 132.674C118.209 132.623 118.096 132.566 117.986 132.504L69.7273 105.356L66.2068 103.376L42.29 89.9219C42.2249 89.8846 42.1772 89.8231 42.1572 89.7508C42.1372 89.6784 42.1464 89.6011 42.183 89.5356C42.2196 89.4706 42.2805 89.4228 42.3523 89.4027C42.4241 89.3827 42.501 89.3919 42.566 89.4285L66.2068 102.728L69.7273 104.707L118.262 132.011C118.423 132.101 118.591 132.18 118.764 132.245C118.837 132.273 118.913 132.299 118.989 132.321C119.471 132.469 119.978 132.518 120.48 132.465C120.981 132.412 121.466 132.257 121.907 132.011L173.793 102.807L177.314 100.825L197.476 89.4764C197.508 89.4583 197.544 89.4466 197.581 89.4422C197.617 89.4378 197.654 89.4406 197.69 89.4506C197.726 89.4605 197.759 89.4774 197.788 89.5002C197.817 89.523 197.841 89.5513 197.859 89.5835C197.877 89.6158 197.889 89.6512 197.893 89.6879C197.898 89.7246 197.895 89.7619 197.885 89.7975C197.875 89.8331 197.858 89.8664 197.836 89.8955C197.813 89.9245 197.784 89.9489 197.752 89.967Z" fill="#3F3D56"/>
<path d="M87.2101 57.154H79.3242C78.7266 57.154 78.1535 56.9163 77.731 56.4933C77.3084 56.0703 77.071 55.4966 77.071 54.8984C77.071 54.3002 77.3084 53.7265 77.731 53.3035C78.1535 52.8805 78.7266 52.6428 79.3242 52.6428H87.2101C87.8076 52.6428 88.3807 52.8805 88.8033 53.3035C89.2258 53.7265 89.4632 54.3002 89.4632 54.8984C89.4632 55.4966 89.2258 56.0703 88.8033 56.4933C88.3807 56.9163 87.8076 57.154 87.2101 57.154Z" fill="#0D9488"/>
<path d="M96.5042 64.7666H79.3242C78.7266 64.7666 78.1535 64.5289 77.731 64.1059C77.3084 63.6829 77.071 63.1092 77.071 62.511C77.071 61.9128 77.3084 61.339 77.731 60.916C78.1535 60.493 78.7266 60.2554 79.3242 60.2554H96.5042C97.1018 60.2554 97.6748 60.493 98.0974 60.916C98.5199 61.339 98.7573 61.9128 98.7573 62.511C98.7573 63.1092 98.5199 63.6829 98.0974 64.1059C97.6748 64.5289 97.1018 64.7666 96.5042 64.7666Z" fill="#E6E6E6"/>
<path d="M144.503 85.0668H95.779C95.1814 85.0668 94.6083 84.8291 94.1858 84.4061C93.7633 83.9831 93.5259 83.4094 93.5259 82.8112C93.5259 82.213 93.7633 81.6392 94.1858 81.2162C94.6083 80.7932 95.1814 80.5556 95.779 80.5556H144.503C145.1 80.5556 145.673 80.7932 146.096 81.2162C146.518 81.6392 146.756 82.213 146.756 82.8112C146.756 83.4094 146.518 83.9831 146.096 84.4061C145.673 84.8291 145.1 85.0668 144.503 85.0668Z" fill="#0D9488"/>
<path d="M149.009 93.8071H90.991C90.3935 93.8071 89.8204 93.5695 89.3978 93.1465C88.9753 92.7235 88.7379 92.1498 88.7379 91.5515C88.7379 90.9533 88.9753 90.3796 89.3978 89.9566C89.8204 89.5336 90.3935 89.296 90.991 89.296H149.009C149.606 89.296 150.18 89.5336 150.602 89.9566C151.025 90.3796 151.262 90.9533 151.262 91.5515C151.262 92.1498 151.025 92.7235 150.602 93.1465C150.18 93.5695 149.606 93.8071 149.009 93.8071Z" fill="#E6E6E6"/>
<path d="M149.009 102.266H90.991C90.3935 102.266 89.8204 102.028 89.3978 101.605C88.9753 101.182 88.7379 100.608 88.7379 100.01C88.7379 99.4117 88.9753 98.838 89.3978 98.415C89.8204 97.992 90.3935 97.7544 90.991 97.7544H149.009C149.606 97.7544 150.18 97.992 150.602 98.415C151.025 98.838 151.262 99.4117 151.262 100.01C151.262 100.608 151.025 101.182 150.602 101.605C150.18 102.028 149.606 102.266 149.009 102.266Z" fill="#E6E6E6"/>
</g>
<defs>
<clipPath id="clip0_3136_12524">
<rect width="158" height="139" fill="white" transform="translate(41 38.5455)"/>
</clipPath>
</defs>
</svg>
