<svg width="240" height="240" viewBox="0 0 240 240" fill="none" xmlns="http://www.w3.org/2000/svg">
<g clip-path="url(#clip0_2732_1653)">
<path d="M134.288 74.3329H88.75C87.7123 74.3341 86.7174 74.7495 85.9836 75.4879C85.2498 76.2263 84.837 77.2274 84.8358 78.2717V180.116L84.3139 180.276L73.1426 183.718C72.6132 183.881 72.0413 183.825 71.5526 183.564C71.0639 183.302 70.6982 182.856 70.5358 182.324L37.3065 73.1013C37.1448 72.5686 37.1999 71.993 37.4597 71.5011C37.7195 71.0092 38.1628 70.6413 38.6921 70.4781L55.907 65.1739L105.813 49.8021L123.028 44.4978C123.29 44.4167 123.566 44.3884 123.838 44.4144C124.111 44.4405 124.376 44.5204 124.618 44.6497C124.861 44.7789 125.075 44.955 125.25 45.1677C125.424 45.3805 125.555 45.6258 125.635 45.8895L134.129 73.8077L134.288 74.3329Z" fill="#F2F2F2"/>
<path d="M144.225 73.8076L133.988 40.1599C133.818 39.5992 133.539 39.0778 133.169 38.6255C132.798 38.1732 132.342 37.7988 131.828 37.5238C131.313 37.2487 130.75 37.0783 130.17 37.0224C129.59 36.9665 129.005 37.0261 128.448 37.1979L104.245 44.6527L54.3413 60.0271L30.1382 67.4846C29.0139 67.832 28.0725 68.6141 27.5206 69.6593C26.9687 70.7044 26.8515 71.9272 27.1947 73.0593L62.1827 188.054C62.4615 188.967 63.024 189.767 63.7876 190.336C64.5513 190.904 65.4759 191.212 66.4258 191.212C66.8655 191.213 67.3026 191.146 67.7227 191.016L84.3138 185.906L84.8357 185.743V185.194L84.3138 185.354L67.5687 190.514C66.5763 190.818 65.5044 190.714 64.5881 190.225C63.6719 189.735 62.9861 188.899 62.6812 187.901L27.6958 72.9043C27.5447 72.4099 27.4921 71.8903 27.5408 71.3753C27.5896 70.8603 27.7389 70.3601 27.98 69.9032C28.2212 69.4464 28.5496 69.0419 28.9463 68.7129C29.3431 68.3839 29.8004 68.137 30.2921 67.9861L54.4952 60.5287L104.399 45.1569L128.602 37.6994C128.975 37.5849 129.363 37.5265 129.753 37.5261C130.59 37.528 131.404 37.7995 132.076 38.3009C132.749 38.8022 133.244 39.5071 133.49 40.3122L143.68 73.8076L143.842 74.3328H144.384L144.225 73.8076Z" fill="#3F3D56"/>
<path d="M59.0135 70.5639C58.5105 70.5636 58.0209 70.401 57.6165 70.1002C57.2121 69.7993 56.9142 69.3759 56.7664 68.8921L53.4053 57.8447C53.3149 57.5479 53.2836 57.2362 53.313 56.9272C53.3424 56.6183 53.4321 56.3182 53.5768 56.0441C53.7215 55.77 53.9184 55.5273 54.1563 55.3298C54.3943 55.1323 54.6685 54.984 54.9634 54.8931L100.875 40.7493C101.47 40.5664 102.113 40.6288 102.663 40.9227C103.213 41.2166 103.625 41.7181 103.808 42.3171L107.169 53.3647C107.351 53.964 107.288 54.6114 106.996 55.1647C106.704 55.7181 106.206 56.1322 105.611 56.3163L59.6996 70.4602C59.4773 70.5289 59.2461 70.5638 59.0135 70.5639Z" fill="#0D9488"/>
<path d="M76.6203 48.8045C79.5027 48.8045 81.8393 46.4532 81.8393 43.5527C81.8393 40.6523 79.5027 38.301 76.6203 38.301C73.738 38.301 71.4014 40.6523 71.4014 43.5527C71.4014 46.4532 73.738 48.8045 76.6203 48.8045Z" fill="#0D9488"/>
<path d="M76.6204 46.8783C78.4456 46.8783 79.9252 45.3894 79.9252 43.5528C79.9252 41.7161 78.4456 40.2272 76.6204 40.2272C74.7952 40.2272 73.3156 41.7161 73.3156 43.5528C73.3156 45.3894 74.7952 46.8783 76.6204 46.8783Z" fill="white"/>
<path d="M184.257 189.871H96.0566C95.4686 189.87 94.9048 189.635 94.489 189.216C94.0731 188.798 93.8392 188.23 93.8386 187.639V81.2914C93.8392 80.6996 94.0731 80.1323 94.4889 79.7138C94.9048 79.2954 95.4686 79.06 96.0566 79.0594H184.257C184.845 79.0601 185.409 79.2954 185.825 79.7139C186.241 80.1323 186.475 80.6996 186.475 81.2914V187.639C186.475 188.23 186.241 188.798 185.825 189.216C185.409 189.635 184.845 189.87 184.257 189.871Z" fill="#E6E6E6"/>
<path d="M143.68 73.8077H88.75C87.574 73.8094 86.4466 74.2802 85.615 75.117C84.7834 75.9538 84.3155 77.0882 84.3138 78.2716V185.354L84.8357 185.194V78.2716C84.837 77.2274 85.2498 76.2263 85.9836 75.4879C86.7174 74.7495 87.7122 74.3341 88.75 74.3329H143.842L143.68 73.8077ZM191.564 73.8077H88.75C87.574 73.8094 86.4466 74.2802 85.615 75.117C84.7834 75.9538 84.3155 77.0882 84.3138 78.2716V198.536C84.3155 199.719 84.7834 200.854 85.615 201.691C86.4466 202.527 87.574 202.998 88.75 203H191.564C192.74 202.998 193.867 202.527 194.699 201.691C195.53 200.854 195.998 199.719 196 198.536V78.2716C195.998 77.0882 195.53 75.9538 194.699 75.117C193.867 74.2802 192.74 73.8094 191.564 73.8077ZM195.478 198.536C195.477 199.58 195.064 200.581 194.33 201.32C193.596 202.058 192.602 202.474 191.564 202.475H88.75C87.7122 202.474 86.7174 202.058 85.9836 201.32C85.2498 200.581 84.837 199.58 84.8357 198.536V78.2716C84.837 77.2274 85.2498 76.2263 85.9836 75.4879C86.7174 74.7495 87.7122 74.3341 88.75 74.3329H191.564C192.602 74.3341 193.596 74.7495 194.33 75.4879C195.064 76.2263 195.477 77.2274 195.478 78.2716V198.536Z" fill="#3F3D56"/>
<path d="M164.164 85.3615H116.15C115.527 85.3608 114.93 85.1116 114.49 84.6685C114.05 84.2255 113.802 83.6248 113.801 82.9982V71.4444C113.802 70.8179 114.05 70.2172 114.49 69.7741C114.93 69.3311 115.527 69.0819 116.15 69.0811H164.164C164.787 69.0819 165.384 69.3311 165.824 69.7741C166.264 70.2172 166.512 70.8179 166.513 71.4444V82.9982C166.512 83.6248 166.264 84.2255 165.824 84.6685C165.384 85.1116 164.787 85.3608 164.164 85.3615Z" fill="#0D9488"/>
<path d="M140.157 69.8689C143.039 69.8689 145.376 67.5176 145.376 64.6172C145.376 61.7167 143.039 59.3654 140.157 59.3654C137.275 59.3654 134.938 61.7167 134.938 64.6172C134.938 67.5176 137.275 69.8689 140.157 69.8689Z" fill="#0D9488"/>
<path d="M140.157 67.816C141.913 67.816 143.336 66.3838 143.336 64.6172C143.336 62.8505 141.913 61.4184 140.157 61.4184C138.401 61.4184 136.978 62.8505 136.978 64.6172C136.978 66.3838 138.401 67.816 140.157 67.816Z" fill="white"/>
</g>
<defs>
<clipPath id="clip0_2732_1653">
<rect width="169" height="166" fill="white" transform="translate(27 37)"/>
</clipPath>
</defs>
</svg>
