<svg width="240" height="240" viewBox="0 0 240 240" fill="none" xmlns="http://www.w3.org/2000/svg">
<g clip-path="url(#clip0_2269_3056)">
<path d="M130.638 163.923C168.67 163.923 199.5 133.048 199.5 94.9613C199.5 56.875 168.67 26 130.638 26C92.6068 26 61.7763 56.875 61.7763 94.9613C61.7763 133.048 92.6068 163.923 130.638 163.923Z" fill="#F2F2F2"/>
<path d="M175.638 56.8393H49.4929C49.2224 56.8336 49.0078 56.6093 49.0136 56.3384C49.0192 56.0756 49.2306 55.864 49.4929 55.8584H175.638C175.909 55.8642 176.123 56.0885 176.118 56.3593C176.112 56.6221 175.901 56.8337 175.638 56.8393Z" fill="#CACACA"/>
<path d="M132.648 73.3695H97.7767C95.1574 73.3695 93.0341 75.4959 93.0341 78.1189V78.1189C93.0341 80.7419 95.1574 82.8683 97.7767 82.8683H132.648C135.267 82.8683 137.391 80.7419 137.391 78.1189C137.391 75.4959 135.267 73.3695 132.648 73.3695Z" fill="white"/>
<path d="M75.2495 92.3671H155.175C157.795 92.3671 159.918 94.4935 159.918 97.1166C159.918 99.7396 157.795 101.866 155.175 101.866H75.2495C72.6302 101.866 70.5069 99.7396 70.5069 97.1166C70.5069 94.4935 72.6302 92.3671 75.2495 92.3671Z" fill="white"/>
<path d="M75.2495 111.365H155.175C157.795 111.365 159.918 113.491 159.918 116.114C159.918 118.737 157.795 120.864 155.175 120.864H75.2495C72.6302 120.864 70.5069 118.737 70.5069 116.114C70.5069 113.491 72.6302 111.365 75.2495 111.365Z" fill="white"/>
<path d="M65.3447 204.582L65.1566 204.564C58.7745 203.904 53.0051 200.467 49.3812 195.165C48.3885 193.688 47.5856 192.091 46.9913 190.413L46.9342 190.252L47.1033 190.239C49.1223 190.076 51.1963 189.733 52.1177 189.57L46.1764 187.554L46.1397 187.377C45.7874 185.72 46.4775 184.015 47.8825 183.071C49.2913 182.081 51.1595 182.05 52.6009 182.991C53.2478 183.405 53.9244 183.814 54.5786 184.211C56.827 185.573 59.1519 186.981 60.895 188.908C63.5382 191.889 64.6968 195.905 64.048 199.838L65.3447 204.582Z" fill="#F2F2F2"/>
<path d="M86.9411 201.623L89.8691 201.623L91.2623 190.312L86.9403 190.312L86.9411 201.623Z" fill="#A0616A"/>
<path d="M86.8379 204.682L95.8426 204.682V204.568C95.8425 202.63 94.2733 201.058 92.3377 201.058L90.6926 199.809L87.6238 201.058L86.8377 201.058L86.8379 204.682Z" fill="#2F2E41"/>
<path d="M63.4742 193.501L65.8163 195.261L73.7091 187.05L70.2519 184.453L63.4742 193.501Z" fill="#A0616A"/>
<path d="M61.5583 195.886L68.7615 201.298L68.8298 201.207C69.9913 199.656 69.6778 197.456 68.1296 196.293L67.5626 194.304L64.3588 193.46L63.73 192.987L61.5583 195.886Z" fill="#2F2E41"/>
<path d="M73.208 148.543C73.208 148.543 73.3696 152.958 73.5735 156.5C73.6069 157.08 72.2482 157.711 72.2834 158.343C72.3068 158.762 72.5622 159.17 72.5859 159.607C72.6109 160.068 72.2583 160.477 72.2834 160.954C72.308 161.42 72.7102 161.954 72.7345 162.431C72.9956 167.565 73.9422 173.711 72.9943 175.429C72.5272 176.276 66.573 188.006 66.573 188.006C66.573 188.006 69.8905 192.99 70.8383 191.329C72.0902 189.135 81.7386 178.87 81.7386 176.91C81.7386 174.952 83.9708 160.28 83.9708 160.28L85.5272 168.963L86.2409 170.683L86.0166 171.693L86.4778 173.056L86.5028 174.405L86.9518 176.91C86.9518 176.91 85.6011 196.426 86.3617 196.969C87.1248 197.515 90.819 198.495 91.255 197.515C91.6887 196.535 94.5112 177.147 94.5112 177.147C94.5112 177.147 94.9662 168.263 95.4591 160.004C95.4875 159.525 95.824 158.946 95.8501 158.474C95.8809 157.926 95.6677 157.214 95.6961 156.682C95.7269 156.072 95.997 155.643 96.0231 155.059C96.2245 150.548 95.0938 145.054 94.7336 144.513C93.646 142.881 92.6673 141.575 92.6673 141.575C92.6673 141.575 78.0177 136.755 74.1031 141.653L73.208 148.543Z" fill="#2F2E41"/>
<path d="M87.8189 103.134L82.0115 101.971L79.3013 105.655C74.2444 110.634 74.1683 115.029 75.071 122.073V131.96L74.4176 138.588C74.4176 138.588 72.1046 143.433 74.4903 144.561C76.8759 145.689 92.5458 145.593 94.0419 145.143C95.538 144.692 94.2412 144.14 93.8483 142.041C93.1103 138.099 93.604 140 93.6547 138.745C94.3829 120.741 92.6868 113.35 92.5146 111.407L89.5611 106.042L87.8189 103.134Z" fill="#3F3D56"/>
<path d="M118.428 117.651C117.822 118.799 116.402 119.239 115.255 118.633C115.133 118.568 115.017 118.493 114.907 118.408L102.366 126.383L102.402 122.041L114.585 114.96C115.453 113.986 116.945 113.901 117.918 114.77C118.732 115.497 118.943 116.688 118.428 117.651Z" fill="#A0616A"/>
<path d="M83.2336 108.163L81.8058 108.011C80.4865 107.874 79.192 108.44 78.3953 109.502C78.0902 109.905 77.871 110.366 77.7515 110.857L77.7506 110.861C77.3925 112.34 77.9542 113.889 79.1761 114.793L84.1077 118.434C87.5685 123.117 94.0728 126.224 101.702 128.748L113.561 121.372L109.367 116.285L101.233 120.651L89.1415 111.277L89.1346 111.272L84.5327 108.303L83.2336 108.163Z" fill="#3F3D56"/>
<path d="M85.8566 100.279C89.5968 100.279 92.6289 97.2422 92.6289 93.4966C92.6289 89.751 89.5968 86.7145 85.8566 86.7145C82.1164 86.7145 79.0844 89.751 79.0844 93.4966C79.0844 97.2422 82.1164 100.279 85.8566 100.279Z" fill="#A0616A"/>
<path d="M86.0131 100.28C85.9585 100.282 85.9038 100.283 85.8491 100.285C85.8257 100.345 85.8005 100.406 85.7714 100.465L86.0131 100.28Z" fill="#2F2E41"/>
<path d="M87.8716 93.6847C87.8823 93.7515 87.8985 93.8173 87.9202 93.8814C87.9113 93.8143 87.895 93.7483 87.8716 93.6847Z" fill="#2F2E41"/>
<path d="M92.7153 87.0047C92.4366 87.8715 92.1878 86.772 91.2708 86.9698C90.1677 87.2077 88.884 87.126 87.9806 86.4488C86.6346 85.4598 84.8903 85.1936 83.3112 85.7361C81.7655 86.2837 79.1758 86.6699 78.7731 88.2615C78.6331 88.8148 78.5775 89.4152 78.2381 89.8738C77.9414 90.2747 77.4731 90.5032 77.0816 90.8118C75.7593 91.8537 76.7699 94.8137 77.3957 96.3777C78.0215 97.9417 79.4571 99.0811 81.0354 99.6647C82.5625 100.229 84.22 100.329 85.8491 100.285C86.1324 99.5486 86.01 98.6986 85.7762 97.9357C85.5231 97.1098 85.1483 96.3127 85.0426 95.4553C84.9369 94.5979 85.1691 93.6239 85.887 93.1449C86.5468 92.7045 87.6206 92.9728 87.8717 93.6847C87.7252 92.7946 88.6255 91.9333 89.5539 91.7818C90.5506 91.6192 91.5474 91.9796 92.5412 92.1589C93.5351 92.3383 93.1823 88.148 92.7153 87.0047Z" fill="#2F2E41"/>
<path d="M130.591 104.715C131.222 97.0763 125.55 90.3711 117.922 89.7388C110.294 89.1066 103.598 94.7868 102.967 102.426C102.336 110.065 108.008 116.77 115.636 117.403C123.264 118.035 129.96 112.355 130.591 104.715Z" fill="#0D9488"/>
<path d="M120.42 97.7877L116.779 101.434L113.138 97.7877C112.549 97.1975 111.594 97.1975 111.004 97.7877C110.415 98.3779 110.415 99.3347 111.004 99.9249L114.645 103.571L111.004 107.216C110.416 107.807 110.416 108.764 111.006 109.354C111.595 109.943 112.549 109.943 113.138 109.354L116.779 105.708L120.42 109.354C121.009 109.943 121.965 109.942 122.554 109.352C123.142 108.762 123.142 107.806 122.554 107.216L118.913 103.571L122.554 99.9249C123.143 99.3347 123.143 98.3779 122.554 97.7877C121.964 97.1975 121.009 97.1975 120.42 97.7877Z" fill="white"/>
<path d="M111.318 91.9052C111.726 93.1377 111.06 94.4684 109.829 94.8776C109.698 94.9212 109.563 94.9531 109.426 94.973L106.49 109.557L103.386 106.525L106.719 92.8192C106.618 91.5175 107.589 90.38 108.889 90.2786C109.977 90.1937 110.981 90.8661 111.318 91.9052Z" fill="#A0616A"/>
<path d="M80.1159 110.769L79.0183 111.696C78.0061 112.555 77.5177 113.882 77.7314 115.193C77.8104 115.692 77.9911 116.17 78.2622 116.596L78.2645 116.6C79.0818 117.882 80.5871 118.549 82.0843 118.292L88.1222 117.248C93.8926 117.99 100.634 115.44 107.735 111.674L110.63 97.9982L104.061 97.5073L101.575 106.408L86.4503 108.656L86.4414 108.657L81.1161 109.927L80.1159 110.769Z" fill="#3F3D56"/>
<path d="M114.496 204.917L40.8218 205C40.6435 204.999 40.4994 204.854 40.5 204.676C40.5006 204.498 40.6443 204.354 40.8218 204.353L114.496 204.27C114.674 204.271 114.818 204.416 114.818 204.594C114.817 204.772 114.673 204.916 114.496 204.917Z" fill="#CACACA"/>
<path d="M55.8928 50.6261C57.159 50.6261 58.1854 49.5752 58.1854 48.2789C58.1854 46.9826 57.159 45.9318 55.8928 45.9318C54.6266 45.9318 53.6001 46.9826 53.6001 48.2789C53.6001 49.5752 54.6266 50.6261 55.8928 50.6261Z" fill="#3F3D56"/>
<path d="M63.8129 50.6261C65.0791 50.6261 66.1056 49.5752 66.1056 48.2789C66.1056 46.9826 65.0791 45.9318 63.8129 45.9318C62.5467 45.9318 61.5203 46.9826 61.5203 48.2789C61.5203 49.5752 62.5467 50.6261 63.8129 50.6261Z" fill="#3F3D56"/>
<path d="M71.733 50.6261C72.9992 50.6261 74.0257 49.5752 74.0257 48.2789C74.0257 46.9826 72.9992 45.9318 71.733 45.9318C70.4668 45.9318 69.4404 46.9826 69.4404 48.2789C69.4404 49.5752 70.4668 50.6261 71.733 50.6261Z" fill="#3F3D56"/>
<path d="M80.7641 50.134C80.6937 50.134 80.6234 50.1067 80.5703 50.0524L79.0233 48.4687C78.9202 48.3632 78.9202 48.1945 79.0233 48.089L80.5703 46.5055C80.6753 46.3984 80.8471 46.3966 80.9537 46.5012C81.0608 46.6061 81.0626 46.778 80.9579 46.8852L79.5964 48.2789L80.9579 49.6727C81.0626 49.7798 81.0607 49.9517 80.9537 50.0566C80.901 50.1083 80.8325 50.134 80.7641 50.134Z" fill="#3F3D56"/>
<path d="M83.3636 50.134C83.2952 50.134 83.2267 50.1083 83.174 50.0566C83.0669 49.9517 83.0651 49.7799 83.1698 49.6727L84.5312 48.2789L83.1698 46.8852C83.0651 46.778 83.0669 46.6061 83.174 46.5012C83.2809 46.3963 83.4527 46.3982 83.5574 46.5055L85.1042 48.089C85.2074 48.1945 85.2074 48.3632 85.1042 48.4687L83.5574 50.0524C83.5043 50.1067 83.434 50.134 83.3636 50.134Z" fill="#3F3D56"/>
<path d="M164.292 46.2035H161.416C161.088 46.2035 160.822 46.4696 160.822 46.7981V49.6814C160.822 50.01 161.088 50.276 161.416 50.276H164.292C164.621 50.276 164.889 50.01 164.889 49.6814V46.7981C164.889 46.4696 164.621 46.2035 164.292 46.2035Z" fill="#3F3D56"/>
<path d="M157.244 46.2035H154.367C154.039 46.2035 153.773 46.4696 153.773 46.7981V49.6814C153.773 50.01 154.039 50.276 154.367 50.276H157.244C157.572 50.276 157.84 50.01 157.84 49.6814V46.7981C157.84 46.4696 157.572 46.2035 157.244 46.2035Z" fill="#3F3D56"/>
<path d="M170.935 46.3393H168.058C167.73 46.3393 167.464 46.6053 167.464 46.9339V49.8172C167.464 50.1457 167.73 50.4118 168.058 50.4118H170.935C171.263 50.4118 171.531 50.1457 171.531 49.8172V46.9339C171.531 46.6053 171.263 46.3393 170.935 46.3393Z" fill="#3F3D56"/>
<path d="M127.578 47.4361H104.586C104.184 47.4361 103.862 47.7619 103.862 48.161C103.862 48.5602 104.184 48.8859 104.586 48.8859H127.578C127.977 48.8859 128.302 48.5601 128.302 48.161C128.302 47.7619 127.977 47.4361 127.578 47.4361Z" fill="#3F3D56"/>
</g>
<defs>
<clipPath id="clip0_2269_3056">
<rect width="159" height="179" fill="white" transform="translate(40.5 26)"/>
</clipPath>
</defs>
</svg>
