<svg width="240" height="240" viewBox="0 0 240 240" fill="none" xmlns="http://www.w3.org/2000/svg">
<path d="M164.322 178.137H52.1283C49.9125 178.135 47.7881 177.244 46.2213 175.662C44.6545 174.079 43.7731 171.933 43.7707 169.694V70.7249C43.7732 68.4865 44.6546 66.3406 46.2214 64.7578C47.7882 63.1751 49.9125 62.2847 52.1283 62.2821H164.322C166.538 62.2846 168.662 63.1749 170.229 64.7577C171.796 66.3405 172.677 68.4864 172.68 70.7249V169.694C172.677 171.933 171.796 174.079 170.229 175.662C168.662 177.245 166.538 178.135 164.322 178.137Z" fill="white"/>
<path d="M138.295 89.0708H82.2311C80.6973 89.0708 79.4539 90.3268 79.4539 91.8762V148.51C79.4539 150.06 80.6973 151.316 82.2311 151.316H138.295C139.829 151.316 141.072 150.06 141.072 148.51V91.8762C141.072 90.3268 139.829 89.0708 138.295 89.0708Z" fill="#0D9488"/>
<path d="M164.322 178.404H52.1284C49.8427 178.401 47.6513 177.483 46.0351 175.85C44.4189 174.217 43.5098 172.003 43.5072 169.694V70.7248C43.5099 68.4159 44.419 66.2023 46.0352 64.5697C47.6514 62.9371 49.8427 62.0187 52.1284 62.0161H164.322C166.608 62.0187 168.799 62.937 170.415 64.5697C172.032 66.2024 172.941 68.416 172.943 70.725V169.694C172.941 172.003 172.032 174.217 170.415 175.85C168.799 177.483 166.608 178.401 164.322 178.404ZM52.1284 62.5481C49.9824 62.5505 47.925 63.4128 46.4075 64.9457C44.89 66.4786 44.0365 68.557 44.034 70.7248V169.694C44.0364 171.862 44.89 173.941 46.4074 175.474C47.9249 177.007 49.9823 177.869 52.1284 177.872H164.322C166.468 177.869 168.526 177.007 170.043 175.474C171.561 173.941 172.415 171.862 172.417 169.694V70.7248C172.415 68.5569 171.561 66.4785 170.043 64.9456C168.526 63.4127 166.468 62.5505 164.322 62.5481H52.1284Z" fill="#090814"/>
<path d="M31.1719 142.925C30.426 142.922 29.7042 142.657 29.1303 142.176C28.5564 141.695 28.1662 141.027 28.0265 140.287L24.0368 119.103C23.878 118.277 24.0447 117.421 24.5012 116.717C24.9577 116.013 25.6681 115.517 26.4812 115.335L44.3539 111.245C44.7701 111.15 45.201 111.139 45.6213 111.214C46.0416 111.289 46.4429 111.448 46.8017 111.681C47.1605 111.915 47.4696 112.218 47.7109 112.574C47.9523 112.929 48.121 113.33 48.2072 113.752L52.5555 135.032C52.7238 135.869 52.5598 136.739 52.0989 137.454C51.638 138.17 50.9172 138.674 50.0918 138.857L31.8598 142.85C31.6338 142.899 31.4032 142.924 31.1719 142.925Z" fill="#F2F2F2"/>
<path d="M29.7983 123.843C29.5686 123.842 29.3472 123.756 29.1775 123.599C29.0079 123.443 28.9022 123.228 28.8811 122.997C28.8601 122.766 28.9252 122.535 29.0637 122.35C29.2023 122.165 29.4043 122.038 29.6301 121.996L44.0793 119.269C44.1983 119.247 44.3205 119.248 44.4389 119.273C44.5573 119.299 44.6697 119.347 44.7695 119.416C44.8694 119.485 44.9548 119.574 45.0208 119.676C45.0869 119.779 45.1323 119.893 45.1546 120.013C45.1768 120.134 45.1754 120.257 45.1504 120.377C45.1254 120.496 45.0773 120.61 45.0089 120.711C44.9404 120.811 44.853 120.898 44.7516 120.964C44.6502 121.031 44.5367 121.077 44.4177 121.1L29.9686 123.826C29.9124 123.837 29.8554 123.843 29.7983 123.843Z" fill="#0D9488"/>
<path d="M31.1154 129.429C30.8895 129.429 30.6716 129.345 30.5029 129.193C30.3342 129.042 30.2266 128.833 30.2003 128.606C30.1741 128.379 30.2312 128.151 30.3606 127.964C30.4901 127.777 30.683 127.645 30.9027 127.592L44.5044 124.32C44.6224 124.291 44.7451 124.286 44.8652 124.305C44.9852 124.324 45.1005 124.366 45.2042 124.43C45.3079 124.494 45.398 124.578 45.4694 124.678C45.5409 124.777 45.5921 124.89 45.6203 125.009C45.6484 125.129 45.6529 125.253 45.6335 125.374C45.614 125.495 45.5711 125.611 45.507 125.715C45.443 125.82 45.3592 125.91 45.2604 125.982C45.1616 126.053 45.0498 126.104 44.9314 126.132L31.3296 129.404C31.2594 129.42 31.1875 129.429 31.1154 129.429Z" fill="#0D9488"/>
<path d="M32.0367 134.835C31.809 134.834 31.5895 134.749 31.4205 134.595C31.2515 134.44 31.1449 134.229 31.1213 134C31.0977 133.771 31.1588 133.542 31.2927 133.356C31.4266 133.17 31.6239 133.04 31.8466 132.992L41.1261 131.007C41.3641 130.959 41.6113 131.008 41.8141 131.143C42.0168 131.277 42.1587 131.488 42.209 131.727C42.2593 131.967 42.2139 132.217 42.0826 132.424C41.9514 132.63 41.7449 132.776 41.508 132.829L32.2288 134.814C32.1657 134.828 32.1013 134.834 32.0367 134.835Z" fill="#0D9488"/>
<path d="M177.658 75.1179C177.492 75.1178 177.326 75.1046 177.162 75.0786L158.732 72.1578C158.309 72.0906 157.904 71.9386 157.539 71.7106C157.175 71.4827 156.86 71.1834 156.612 70.8305C156.364 70.4776 156.189 70.0781 156.096 69.6556C156.003 69.2332 155.995 68.7962 156.072 68.3705L159.917 47.1592C160.064 46.3311 160.526 45.5938 161.203 45.1037C161.88 44.6137 162.719 44.4097 163.543 44.5349L181.672 47.2351C182.095 47.2981 182.5 47.4455 182.865 47.6685C183.23 47.8916 183.548 48.186 183.799 48.5344C184.05 48.8828 184.23 49.2783 184.328 49.6977C184.426 50.1172 184.441 50.5522 184.37 50.9773L180.826 72.4093C180.698 73.1654 180.311 73.8517 179.731 74.3473C179.151 74.8428 178.417 75.1157 177.658 75.1179Z" fill="#F2F2F2"/>
<path d="M178.382 56.4653C178.325 56.4652 178.268 56.4598 178.212 56.4491L163.762 53.7263C163.643 53.7039 163.53 53.658 163.428 53.5913C163.327 53.5246 163.239 53.4384 163.171 53.3375C163.033 53.1339 162.98 52.8831 163.025 52.6403C163.07 52.3976 163.208 52.1828 163.41 52.0431C163.612 51.9035 163.86 51.8505 164.1 51.8958L178.55 54.6186C178.776 54.6611 178.978 54.7873 179.117 54.9724C179.255 55.1575 179.32 55.3882 179.299 55.6193C179.278 55.8503 179.173 56.0652 179.003 56.2217C178.833 56.3781 178.612 56.465 178.382 56.4653Z" fill="#0D9488"/>
<path d="M177.019 61.3383C176.977 61.3384 176.935 61.3355 176.893 61.3297L163.039 59.4237C162.797 59.3904 162.578 59.2612 162.43 59.0646C162.282 58.8681 162.217 58.6202 162.25 58.3755C162.283 58.1308 162.411 57.9094 162.606 57.76C162.801 57.6105 163.046 57.5453 163.288 57.5787L177.142 59.4846C177.374 59.5163 177.585 59.6356 177.733 59.8185C177.88 60.0013 177.954 60.2341 177.938 60.4696C177.923 60.7051 177.819 60.9259 177.648 61.0871C177.478 61.2484 177.253 61.3382 177.019 61.3383Z" fill="#0D9488"/>
<path d="M171.458 66.3405C171.408 66.3403 171.358 66.3362 171.309 66.3282L161.946 64.7975C161.704 64.758 161.489 64.6232 161.346 64.4229C161.203 64.2226 161.144 63.9731 161.183 63.7293C161.222 63.4856 161.356 63.2675 161.554 63.1231C161.752 62.9786 161.999 62.9197 162.241 62.9592L171.604 64.49C171.833 64.5273 172.039 64.6502 172.182 64.8343C172.325 65.0184 172.395 65.2501 172.376 65.4834C172.358 65.7167 172.253 65.9344 172.083 66.0932C171.913 66.252 171.69 66.3403 171.458 66.3405H171.458Z" fill="#0D9488"/>
<path d="M121.457 117.866C121.457 118.69 121.384 119.512 121.239 120.322C120.976 121.357 120.579 122.353 120.057 123.282C119.057 125.076 117.985 125.746 117.104 127.502C116.953 127.621 116.797 127.727 116.639 127.832C116.322 128.038 116.287 129.048 115.951 129.222C115.949 129.224 115.946 129.224 115.944 129.227C115.841 129.405 115.781 129.605 115.771 129.811V129.816C115.601 130.819 115.454 132.861 115.285 134.069C115.262 134.215 115.241 134.349 115.218 134.467C115.161 134.787 115.101 134.991 115.035 135.016C114.215 135.336 113.867 134.898 112.969 135.016C112.487 135.081 110.028 135.48 109.528 135.48C108.108 135.48 107.339 134.991 106.19 134.467C106.109 134.432 106.029 134.395 105.944 134.358C105.913 134.347 105.887 134.333 105.857 134.321C105.528 134.18 105.215 130.616 104.905 129.266C104.905 129.266 104.904 129.264 104.903 129.263C104.903 129.262 104.903 129.261 104.903 129.259C104.839 128.979 104.775 128.796 104.71 128.759L104.662 128.731C104.458 128.613 104.258 128.483 104.063 128.349C102.881 126.36 100.599 124.468 99.4715 121.375C99.1483 120.234 98.9808 119.053 98.9739 117.866C98.9681 116.371 99.2546 114.89 99.8169 113.507C100.379 112.124 101.206 110.867 102.251 109.807C103.295 108.748 104.537 107.908 105.903 107.334C107.27 106.761 108.736 106.465 110.216 106.465C111.696 106.465 113.161 106.761 114.528 107.334C115.895 107.908 117.136 108.748 118.18 109.807C119.225 110.867 120.052 112.124 120.614 113.507C121.177 114.89 121.463 116.371 121.457 117.866Z" fill="#E6E6E6"/>
<path d="M121.239 120.323C120.977 121.358 120.579 122.353 120.058 123.283C119.058 125.077 117.986 125.746 117.105 127.503C116.519 128.673 116.019 130.326 115.678 133.112C115.657 133.277 115.701 133.464 115.678 133.627C115.626 133.986 115.689 133.921 115.474 134.246C115.375 134.301 115.315 134.223 115.283 134.07C115.232 133.684 115.227 133.294 115.269 132.907C115.331 131.863 115.498 130.827 115.769 129.817V129.813C115.824 129.611 115.883 129.416 115.942 129.229C117.005 125.961 118.964 124.48 119.852 122.77C124.516 113.805 115.897 103.798 106.403 107.278C105.894 107.466 105.921 107.575 105.894 107.589C105.18 107.902 104.6 108.039 103.907 108.514C99.7012 111.405 98.1914 117.127 100.089 121.841C101.116 124.392 103.269 125.832 104.661 128.732C104.744 128.9 104.825 129.076 104.902 129.26C104.902 129.261 104.902 129.262 104.902 129.264C104.903 129.265 104.903 129.266 104.904 129.267C105.559 130.885 105.911 132.611 105.944 134.359C105.946 134.39 105.949 134.419 105.949 134.449C106.031 134.456 106.111 134.461 106.189 134.467C107.408 134.574 108.197 134.771 108.605 134.558L109.055 134.604C109.204 134.815 111.711 134.558 112.111 134.553H112.214C113.216 134.579 114.218 134.55 115.217 134.467C115.267 134.462 115.32 134.455 115.371 134.448C115.437 134.464 115.496 134.505 115.534 134.563C115.572 134.62 115.587 134.691 115.575 134.759C115.606 135.051 115.127 135.897 114.965 135.992C114.495 136.27 106.832 136.412 106.1 135.89C105.887 135.739 105.73 135.52 105.656 135.268C105.583 135.015 105.596 134.745 105.694 134.502C105.68 134.437 105.399 134.251 105.386 134.191C105.249 133.402 105.412 131.403 104.471 129.148C104.354 128.872 104.218 128.605 104.063 128.349C102.881 126.36 100.598 124.469 99.4717 121.374C98.8806 119.712 98.6738 117.936 98.867 116.181C99.2731 111.824 102.993 107.537 107.169 106.455C115.907 104.188 123.286 112.193 121.239 120.323Z" fill="#010001"/>
<path d="M115.074 136.232C115.802 136.931 115.413 137.167 115.074 137.982C114.647 137.885 107.332 138.357 106.312 137.982C106.149 137.915 106.006 137.808 105.896 137.67C105.785 137.532 105.711 137.367 105.681 137.192C105.65 137.018 105.664 136.838 105.721 136.67C105.778 136.502 105.876 136.351 106.007 136.232C109.02 136.572 112.061 136.572 115.074 136.232Z" fill="#010001"/>
<path d="M115.482 138.291C115.768 138.934 115.22 139.328 114.972 139.835L114.463 139.938L106.414 139.835C105.929 139.74 105.622 139.055 105.497 138.6C105.488 138.539 105.498 138.476 105.526 138.421C105.553 138.366 105.596 138.32 105.65 138.291L106.312 138.085C108.972 138.302 111.643 138.371 114.31 138.291C114.488 138.186 114.69 138.131 114.896 138.131C115.102 138.131 115.304 138.186 115.482 138.291Z" fill="#010001"/>
<path d="M108.878 129.917H108.667V126.431L104.777 118.11L104.968 118.019L108.878 126.382V129.917Z" fill="#0F0F10"/>
<path d="M110.157 100.422C110.588 100.125 110.595 103.602 110.463 103.715C109.96 104.143 110.012 100.521 110.157 100.422Z" fill="#F2F2F2"/>
<path d="M106.692 100.731C107.032 100.51 107.813 103.802 107.763 103.972C107.475 104.942 106.533 100.834 106.692 100.731Z" fill="#F2F2F2"/>
<path d="M113.621 100.731C114.025 100.623 113.344 103.824 113.264 103.973C112.5 105.377 113.401 100.789 113.621 100.731Z" fill="#F2F2F2"/>
<path d="M112.167 129.922L111.993 126.049L111.997 126.034L114.062 117.459L114.267 117.51L112.205 126.07L112.377 129.913L112.167 129.922Z" fill="#0F0F10"/>
<path d="M164.872 191.5C164.325 191.498 163.795 191.305 163.372 190.953C162.95 190.601 162.661 190.112 162.555 189.57L158.424 168.046C158.359 167.705 158.368 167.354 158.451 167.017C158.534 166.68 158.689 166.366 158.905 166.095C159.12 165.825 159.392 165.606 159.7 165.453C160.009 165.3 160.347 165.217 160.69 165.209L180.653 164.775C181.212 164.759 181.758 164.947 182.192 165.302C182.627 165.658 182.921 166.159 183.022 166.714L186.937 187.588C187 187.921 186.991 188.265 186.912 188.595C186.832 188.925 186.684 189.235 186.476 189.502C186.269 189.77 186.007 189.989 185.709 190.146C185.41 190.303 185.082 190.394 184.746 190.412L165 191.496C164.957 191.499 164.914 191.5 164.872 191.5Z" fill="#F2F2F2"/>
<path d="M177.632 171.592C177.385 171.449 177.092 171.41 176.816 171.483C176.541 171.556 176.304 171.735 176.158 171.982L172.572 179.159C171.599 177.632 170.372 176.287 168.944 175.184C168.484 174.824 167.737 175.114 167.47 175.574C167.145 176.136 167.395 176.704 167.857 177.063C169.513 178.386 170.825 180.096 171.678 182.047C172.008 182.781 173.195 182.735 173.539 182.047L178.019 173.081C178.157 172.831 178.193 172.536 178.121 172.259C178.049 171.981 177.874 171.743 177.633 171.592L177.632 171.592Z" fill="#0D9488"/>
</svg>
