<svg width="240" height="240" viewBox="0 0 240 240" fill="none" xmlns="http://www.w3.org/2000/svg">
<g clip-path="url(#clip0_3045_524)">
<path d="M52.1989 200.671C52.1951 200.71 52.1991 200.75 52.2108 200.789C52.2224 200.827 52.2415 200.862 52.2668 200.893C52.2921 200.923 52.3232 200.949 52.3583 200.967C52.3934 200.986 52.4318 200.998 52.4714 201.001H188.358C188.435 200.988 188.505 200.947 188.555 200.887C188.605 200.827 188.633 200.751 188.633 200.672C188.633 200.594 188.605 200.518 188.555 200.458C188.505 200.397 188.435 200.357 188.358 200.343H52.4714C52.4318 200.347 52.3934 200.358 52.3583 200.377C52.3232 200.395 52.2921 200.421 52.2668 200.452C52.2415 200.482 52.2224 200.518 52.2108 200.556C52.1991 200.594 52.1951 200.634 52.1989 200.674V200.671Z" fill="#D6D6E3"/>
<path d="M125.215 168.185C125.017 169.551 124.336 170.8 123.295 171.704C122.254 172.607 120.924 173.104 119.547 173.104C118.171 173.104 116.84 172.607 115.8 171.704C114.759 170.8 114.077 169.551 113.88 168.185H99.3806V200.341H139.718V168.185H125.215Z" fill="#D6D6E3"/>
<path d="M200.668 169.008H38.4286C37.8325 169.007 37.2611 168.769 36.8396 168.347C36.4181 167.924 36.1808 167.351 36.1798 166.753V73.8894C36.1808 73.2915 36.418 72.7184 36.8395 72.2956C37.261 71.8728 37.8325 71.6349 38.4286 71.634H200.668C201.264 71.6351 201.836 71.8731 202.257 72.2959C202.678 72.7186 202.915 73.2916 202.916 73.8894V166.754C202.915 167.351 202.678 167.925 202.257 168.347C201.835 168.77 201.264 169.008 200.668 169.009L200.668 169.008Z" fill="#090814"/>
<path d="M199.112 75.4866H40.3483V165.335H199.112V75.4866Z" fill="white"/>
<g opacity="0.8">
<path opacity="0.5" d="M203.857 61.8382C203.351 61.1494 202.304 61.8966 202.777 62.6095C202.9 62.7977 203.036 62.9773 203.165 63.1509C204.722 65.26 205.527 67.8206 206.222 70.3502C206.393 70.9772 206.558 71.6359 206.364 72.2483C206.607 70.5919 206.497 68.9025 206.041 67.292C205.588 65.684 205.003 64.1165 204.292 62.6054C204.174 62.3351 204.029 62.078 203.857 61.8382Z" fill="#0D9488"/>
<path d="M193.753 66.2677C192.711 66.2344 192.569 67.8333 193.616 67.9171C193.89 67.938 194.165 67.9446 194.431 67.9526C197.646 68.0405 200.683 69.2069 203.612 70.4609C204.328 70.7703 205.071 71.1174 205.502 71.7778C204.183 70.2455 202.449 69.1229 200.604 68.2972C198.759 67.4716 196.792 66.9303 194.826 66.4159C194.475 66.3269 194.115 66.2772 193.753 66.2677Z" fill="#0D9488"/>
<path opacity="0.2" d="M194.043 70.2003C193.38 70.2232 193.53 71.1703 194.197 71.1744C194.372 71.1744 194.547 71.1744 194.714 71.1618C196.742 71.0791 198.82 71.6406 200.835 72.2571C201.345 72.3707 201.819 72.61 202.213 72.9533C201.143 72.1246 199.93 71.5003 198.635 71.1116C197.36 70.731 196.058 70.4439 194.742 70.2524C194.511 70.211 194.277 70.1935 194.043 70.2003Z" fill="#0D9488"/>
<path opacity="0.5" d="M207.619 87.7715C207.807 88.4112 208.682 88.0307 208.522 87.3806C208.48 87.2111 208.43 87.0439 208.382 86.883C207.799 84.9328 207.826 82.7733 207.922 80.662C207.906 80.1393 208.019 79.6208 208.251 79.1528C207.717 80.3978 207.416 81.7306 207.361 83.0849C207.309 84.4194 207.355 85.756 207.497 87.0839C207.515 87.317 207.556 87.5477 207.62 87.7726L207.619 87.7715Z" fill="#0D9488"/>
<path opacity="0.2" d="M195.252 60.9456C194.854 60.8767 194.822 61.4599 195.22 61.5475C195.324 61.5704 195.429 61.5894 195.531 61.6059C196.752 61.815 197.921 62.415 199.047 63.0398C199.337 63.1731 199.59 63.3763 199.783 63.6313C199.248 62.9998 198.602 62.4719 197.878 62.074C197.164 61.6849 196.424 61.3475 195.662 61.0643C195.529 61.0119 195.392 60.972 195.252 60.945V60.9456Z" fill="#0D9488"/>
<path d="M189.086 76.4082C188.073 76.9316 188.93 78.3669 189.97 77.8903C190.243 77.7649 190.508 77.6247 190.762 77.493C193.859 75.8814 197.454 75.2891 200.993 74.8321C201.86 74.7219 202.786 74.623 203.59 74.9679C201.4 74.3409 199.07 74.2968 196.816 74.5497C194.563 74.8026 192.373 75.3858 190.203 75.9776C189.817 76.0826 189.443 76.2269 189.086 76.4082Z" fill="#0D9488"/>
<path opacity="0.5" d="M191.981 81.9956C191.252 82.6772 192.398 83.4819 193.152 82.8317C193.361 82.6603 193.542 82.4785 193.726 82.3083C195.943 80.2179 198.876 78.7338 201.796 77.3624C202.513 77.0258 205.462 76.6831 206.25 76.7013C204.192 76.8853 199.997 77.5374 198.121 78.3735C196.29 79.2465 194.52 80.2432 192.823 81.3567C192.523 81.5427 192.241 81.7566 191.981 81.9956Z" fill="#0D9488"/>
<path d="M197.175 90.9173C196.967 91.8914 198.353 91.906 198.611 90.9319C198.678 90.6768 198.732 90.4197 198.784 90.1751C199.426 87.1921 200.996 84.2948 202.621 81.5041C203.021 80.8184 205.253 78.8537 205.912 78.4209C204.324 79.7462 201.233 82.6705 200.178 84.437C199.167 86.1996 198.275 88.0287 197.509 89.9117C197.366 90.2355 197.254 90.5722 197.175 90.9173Z" fill="#0D9488"/>
<path d="M207.63 56.6689C207.133 55.6551 205.716 56.489 206.17 57.5301C206.289 57.8017 206.421 58.0673 206.548 58.3224C208.073 61.4202 208.599 65.0115 208.992 68.5256C209.088 69.3909 209.169 70.3108 208.819 71.105C209.417 68.9161 209.588 66.6322 209.325 64.3782C209.105 62.1351 208.576 59.9571 208.026 57.7852C207.932 57.4005 207.799 57.0265 207.63 56.6689Z" fill="#0D9488"/>
<path d="M199.73 58.3954C199.756 58.4106 199.786 58.4193 199.816 58.4205C199.871 58.4205 199.909 58.3654 199.933 58.3138C200.056 58.0441 199.985 57.6868 200.176 57.4777C200.37 57.7111 200.526 57.9735 200.639 58.2554L201.366 58.0298C201.4 58.1713 201.406 58.3182 201.382 58.4618C201.358 58.6054 201.306 58.7428 201.229 58.8659C201.356 58.9225 201.472 59.0018 201.571 59.1001C201.62 59.1498 201.654 59.2122 201.67 59.2802C201.686 59.3483 201.682 59.4195 201.66 59.4858C201.492 59.5264 201.32 59.5433 201.147 59.5359C201.175 59.8567 201.157 60.1799 201.092 60.4954C201.091 60.5188 201.084 60.5416 201.074 60.5625C201.063 60.5833 201.048 60.6017 201.03 60.6166C200.978 60.6522 200.907 60.6166 200.853 60.5874C200.603 60.4339 200.396 60.2178 200.254 59.9604L199.977 60.5833C199.958 60.6498 199.915 60.7069 199.856 60.7442C199.815 60.7587 199.771 60.759 199.729 60.7449C199.688 60.7309 199.653 60.7034 199.629 60.6668C199.585 60.591 199.558 60.5064 199.55 60.4188L199.448 59.7918C199.447 59.7597 199.435 59.7288 199.415 59.704C199.384 59.6808 199.347 59.6696 199.308 59.6725H198.536C198.492 59.5348 198.628 59.407 198.759 59.3505C198.89 59.294 199.047 59.248 199.113 59.1205C199.247 58.8593 198.905 58.4935 199.047 58.2717C199.226 58.0232 199.505 58.2846 199.73 58.3954Z" fill="#0D9488"/>
<path opacity="0.5" d="M213.776 61.8382C214.282 61.1494 215.326 61.8966 214.856 62.6095C214.731 62.7977 214.597 62.9773 214.468 63.1509C212.911 65.26 212.106 67.8206 211.408 70.3502C211.238 70.9772 211.073 71.6359 211.269 72.2483C211.026 70.5919 211.136 68.9025 211.592 67.292C212.048 65.6873 212.632 64.1221 213.339 62.6117C213.458 62.3396 213.604 62.0804 213.776 61.8382Z" fill="#0D9488"/>
<path d="M223.878 66.2677C224.92 66.2344 225.062 67.8333 224.015 67.9171C223.742 67.938 223.466 67.9446 223.202 67.9526C219.984 68.0405 216.95 69.2069 214.021 70.4609C213.305 70.7703 212.55 71.1174 212.131 71.7778C213.45 70.2455 215.182 69.1229 217.029 68.2972C218.9 67.5125 220.833 66.8833 222.807 66.4159C223.157 66.327 223.516 66.2775 223.878 66.2677Z" fill="#0D9488"/>
<path opacity="0.5" d="M223.588 70.2003C224.253 70.2232 224.103 71.1703 223.436 71.1744C223.261 71.1744 223.086 71.1744 222.919 71.1618C220.889 71.0791 218.813 71.6406 216.798 72.2571C216.288 72.3703 215.814 72.6096 215.42 72.9533C216.49 72.1246 217.703 71.5003 218.999 71.1116C220.277 70.7291 221.582 70.4406 222.902 70.2483C223.129 70.2089 223.359 70.1927 223.589 70.2L223.588 70.2003Z" fill="#0D9488"/>
<path opacity="0.2" d="M222.381 60.9456C222.779 60.8767 222.811 61.4599 222.413 61.5475C222.309 61.5704 222.204 61.5894 222.102 61.6059C220.881 61.815 219.709 62.415 218.584 63.0398C218.295 63.1732 218.043 63.3764 217.85 63.6313C218.384 62.9998 219.029 62.472 219.753 62.074C220.468 61.6853 221.209 61.3479 221.971 61.0643C222.104 61.0119 222.242 60.972 222.382 60.945L222.381 60.9456Z" fill="#0D9488"/>
<path opacity="0.2" d="M211.983 88.982C211.894 89.3792 211.346 89.1911 211.419 88.7729C211.437 88.6685 211.462 88.5638 211.485 88.4635C211.763 87.2533 211.663 85.9384 211.521 84.6568C211.511 84.3374 211.421 84.0256 211.26 83.7496C211.635 84.4868 211.872 85.2868 211.959 86.1097C212.042 86.9207 212.067 87.7368 212.032 88.5514C212.031 88.6962 212.014 88.8405 211.983 88.982Z" fill="#0D9488"/>
<path opacity="0.5" d="M222.125 86.3458C222.438 86.8767 221.671 86.8417 221.333 86.3103C221.246 86.1726 221.164 86.0323 221.086 85.8921C220.136 84.272 218.691 82.6689 217.235 81.1198C216.89 80.7183 216.487 80.3703 216.04 80.0873C217.176 80.8649 218.225 81.7642 219.167 82.7692C220.101 83.7496 220.925 84.7717 221.734 85.7918C221.877 85.9673 222.008 86.1524 222.125 86.3458Z" fill="#0D9488"/>
<path opacity="0.2" d="M194.378 86.3458C194.065 86.8767 194.832 86.8417 195.168 86.3103C195.258 86.1726 195.339 86.0323 195.415 85.8921C196.366 84.272 197.81 82.6689 199.267 81.1198C199.611 80.7179 200.014 80.3698 200.461 80.0873C199.324 80.8644 198.276 81.7637 197.334 82.7692C196.4 83.7496 195.573 84.7717 194.767 85.7918C194.624 85.9673 194.494 86.1524 194.377 86.3458H194.378Z" fill="#0D9488"/>
<path opacity="0.2" d="M204.526 88.982C204.616 89.3792 205.164 89.1911 205.091 88.7729C205.072 88.6685 205.047 88.5638 205.024 88.4635C204.747 87.2533 204.847 85.9384 204.989 84.6568C204.999 84.3374 205.089 84.0256 205.249 83.7496C204.878 84.4895 204.645 85.2915 204.563 86.1158C204.479 86.9268 204.455 87.7429 204.49 88.5574C204.488 88.6998 204.5 88.8419 204.527 88.9817L204.526 88.982Z" fill="#0D9488"/>
<path opacity="0.2" d="M219.184 64.9277C219.582 64.8567 219.614 65.4399 219.216 65.5297C219.111 65.5526 219.007 65.5694 218.905 65.5848C217.684 65.7939 216.515 66.3958 215.387 67.0209C215.097 67.1533 214.845 67.3559 214.653 67.6105C215.187 66.979 215.833 66.4518 216.558 66.0553C217.271 65.6646 218.011 65.3271 218.774 65.0457C218.906 64.9919 219.044 64.9523 219.184 64.9277Z" fill="#0D9488"/>
<path opacity="0.2" d="M215.456 57.1097C215.8 56.9006 216.045 57.4254 215.708 57.6574C215.62 57.718 215.529 57.7722 215.443 57.8268C214.386 58.4789 213.526 59.4739 212.715 60.4772C212.494 60.7074 212.336 60.9901 212.254 61.2987C212.514 60.5128 212.916 59.7815 213.44 59.1414C213.957 58.5126 214.518 57.9222 215.12 57.375C215.223 57.2756 215.335 57.187 215.456 57.1097Z" fill="#0D9488"/>
<path d="M228.547 76.4082C229.56 76.9316 228.703 78.3669 227.663 77.8903C227.39 77.7649 227.123 77.6247 226.871 77.493C223.774 75.8814 220.177 75.2891 216.64 74.8321C215.773 74.7219 214.847 74.623 214.043 74.9679C216.231 74.3409 218.563 74.2968 220.816 74.5497C223.07 74.8026 225.26 75.3858 227.429 75.9776C227.815 76.083 228.19 76.2272 228.547 76.4082Z" fill="#0D9488"/>
<path opacity="0.5" d="M225.652 81.9956C226.379 82.6772 225.235 83.4819 224.478 82.8317C224.28 82.6603 224.089 82.4785 223.907 82.3083C221.688 80.2179 218.755 78.7338 215.837 77.3624C215.12 77.0258 212.169 76.6831 211.384 76.7013C213.441 76.8853 217.636 77.5374 219.512 78.3735C221.344 79.2465 223.115 80.2432 224.812 81.3567C225.111 81.5431 225.392 81.7572 225.652 81.9964V81.9956Z" fill="#0D9488"/>
<path d="M217.067 92.0297C217.156 93.0215 215.773 92.8658 215.639 91.8644C215.603 91.6032 215.584 91.341 215.561 91.0908C215.297 88.0514 214.102 84.9808 212.837 82.0061C212.527 81.2766 210.558 79.0482 209.957 78.5349C211.368 80.0485 214.069 83.3427 214.895 85.224C215.678 87.0991 216.334 89.0252 216.858 90.9892C216.959 91.3283 217.029 91.6761 217.067 92.028L217.067 92.0297Z" fill="#0D9488"/>
<path d="M217.9 58.3954C217.874 58.4107 217.845 58.4193 217.815 58.4205C217.76 58.4205 217.721 58.3654 217.698 58.3138C217.573 58.0441 217.646 57.6868 217.454 57.4777C217.261 57.7111 217.104 57.9735 216.992 58.2554L216.264 58.0298C216.23 58.1713 216.224 58.3182 216.248 58.4619C216.271 58.6056 216.324 58.743 216.402 58.8659C216.274 58.9224 216.157 59.0018 216.058 59.1001C216.009 59.1501 215.975 59.2126 215.96 59.2806C215.944 59.3486 215.948 59.4196 215.97 59.4858C216.138 59.5265 216.31 59.5434 216.483 59.5359C216.456 59.8567 216.475 60.1797 216.538 60.4954C216.542 60.5425 216.565 60.5859 216.6 60.6166C216.655 60.6522 216.725 60.6166 216.78 60.5874C217.03 60.4339 217.236 60.2178 217.378 59.9604L217.649 60.6084C217.668 60.6752 217.711 60.7325 217.77 60.7693C217.81 60.7841 217.855 60.7845 217.896 60.7705C217.937 60.7564 217.972 60.7286 217.995 60.6919C218.041 60.6168 218.069 60.5319 218.077 60.4439L218.177 59.8169C218.18 59.7847 218.192 59.7541 218.213 59.729C218.243 59.7059 218.281 59.6947 218.319 59.6976H219.09C219.134 59.5599 218.996 59.432 218.865 59.3756C218.733 59.3191 218.579 59.2731 218.513 59.1455C218.379 58.8844 218.721 58.5185 218.577 58.2968C218.407 58.0232 218.128 58.2846 217.9 58.3954Z" fill="#0D9488"/>
<path opacity="0.2" d="M220.097 88.4508C220.071 88.4661 220.042 88.4747 220.012 88.4759C219.957 88.4759 219.918 88.4208 219.895 88.3715C219.772 88.0999 219.843 87.7445 219.651 87.5227C219.458 87.7564 219.302 88.0188 219.188 88.3004L218.461 88.0748C218.427 88.2163 218.422 88.3632 218.445 88.5068C218.469 88.6504 218.521 88.7878 218.598 88.9109C218.471 88.9675 218.355 89.0468 218.257 89.1451C218.208 89.1948 218.173 89.2571 218.158 89.3252C218.142 89.3933 218.145 89.4644 218.167 89.5307C218.335 89.5721 218.507 89.5897 218.68 89.5831C218.652 89.9032 218.671 90.2256 218.735 90.5404C218.737 90.5641 218.743 90.5873 218.754 90.6085C218.764 90.6297 218.779 90.6485 218.797 90.6638C218.85 90.6972 218.921 90.6638 218.975 90.6324C219.225 90.4789 219.431 90.2628 219.573 90.0054L219.844 90.6534C219.864 90.7201 219.907 90.7778 219.965 90.8164C220.006 90.8284 220.05 90.8272 220.091 90.8129C220.131 90.7987 220.167 90.7722 220.192 90.7371C220.236 90.6614 220.263 90.5767 220.271 90.4892L220.373 89.8726C220.372 89.8549 220.375 89.8371 220.382 89.8208C220.389 89.8044 220.4 89.7899 220.413 89.7785C220.427 89.7671 220.443 89.7591 220.46 89.7551C220.477 89.7511 220.495 89.7513 220.513 89.7555C220.769 89.7555 221.027 89.7451 221.284 89.7555C221.327 89.6178 221.192 89.4922 221.061 89.4335C220.929 89.3748 220.773 89.3332 220.706 89.2035C220.573 88.9442 220.915 88.5765 220.773 88.3569C220.61 88.0786 220.321 88.3401 220.097 88.4508Z" fill="#0D9488"/>
<path d="M226.265 68.3039C226.238 68.3203 226.208 68.329 226.177 68.3289C226.122 68.3289 226.085 68.2738 226.062 68.2245C225.937 67.9548 226.008 67.5975 225.819 67.3757C225.625 67.6099 225.469 67.873 225.356 68.1554L224.629 67.9275C224.594 68.069 224.588 68.216 224.612 68.3597C224.636 68.5034 224.688 68.6408 224.766 68.7636C224.638 68.8196 224.521 68.899 224.422 68.9978C224.374 69.0481 224.34 69.1105 224.325 69.1784C224.309 69.2462 224.312 69.3171 224.333 69.3835C224.501 69.4249 224.674 69.4425 224.847 69.4358C224.821 69.7559 224.839 70.0782 224.902 70.3932C224.907 70.4408 224.929 70.485 224.965 70.5166C225.02 70.5499 225.088 70.5166 225.142 70.4874C225.393 70.3337 225.599 70.1177 225.742 69.8604L226.011 70.5083C226.031 70.5754 226.074 70.6332 226.132 70.6714C226.173 70.6854 226.218 70.6852 226.259 70.6708C226.3 70.6565 226.335 70.6287 226.359 70.5921C226.406 70.5171 226.434 70.4322 226.442 70.3441L226.541 69.7171C226.544 69.686 226.556 69.6563 226.575 69.6314C226.606 69.6074 226.644 69.5961 226.683 69.6H227.452C227.498 69.4642 227.361 69.3367 227.229 69.278C227.098 69.2193 226.942 69.1777 226.877 69.0501C226.744 68.789 227.086 68.4231 226.942 68.2014C226.769 67.9317 226.488 68.1931 226.265 68.3039Z" fill="#0D9488"/>
<path d="M201.612 91.4649C201.576 91.4867 201.535 91.4989 201.493 91.5005C201.416 91.5005 201.362 91.4231 201.33 91.352C201.157 90.9779 201.257 90.4886 200.991 90.1729C200.721 90.4981 200.504 90.8635 200.347 91.2558L199.33 90.9423C199.283 91.1395 199.276 91.344 199.309 91.5439C199.342 91.7439 199.415 91.9352 199.522 92.1066C199.344 92.1841 199.182 92.2948 199.045 92.4327C198.977 92.5023 198.93 92.5892 198.908 92.6839C198.886 92.7785 198.89 92.8775 198.92 92.9699C199.155 93.0275 199.396 93.0522 199.637 93.0432C199.599 93.4899 199.625 93.9397 199.714 94.3791C199.719 94.4446 199.75 94.5054 199.8 94.5485C199.841 94.5651 199.886 94.5699 199.929 94.5625C199.973 94.5551 200.014 94.5358 200.047 94.5066C200.398 94.2899 200.685 93.9842 200.88 93.6204L201.258 94.5234C201.284 94.6168 201.345 94.6971 201.427 94.749C201.484 94.7691 201.546 94.7693 201.604 94.7496C201.661 94.7298 201.71 94.6913 201.743 94.6402C201.805 94.5357 201.843 94.4186 201.853 94.2975L201.995 93.4383C201.996 93.3932 202.013 93.35 202.041 93.3148C202.084 93.283 202.137 93.2681 202.191 93.273C202.549 93.273 202.908 93.2584 203.264 93.273C203.327 93.0801 203.135 92.9052 202.953 92.8237C202.772 92.7421 202.553 92.6837 202.462 92.506C202.274 92.1424 202.758 91.6363 202.551 91.3228C202.313 90.9468 201.923 91.3123 201.612 91.4649Z" fill="#0D9488"/>
<path d="M191.354 68.9058C191.318 68.9276 191.276 68.9398 191.233 68.9413C191.158 68.9413 191.104 68.8639 191.071 68.7928C190.9 68.4165 190.998 67.9295 190.733 67.6118C190.463 67.9376 190.245 68.3036 190.087 68.6967L189.074 68.381C189.026 68.5784 189.018 68.7835 189.051 68.9839C189.085 69.1843 189.158 69.376 189.266 69.5474C189.088 69.6244 188.926 69.7352 188.789 69.8736C188.721 69.9428 188.673 70.0296 188.651 70.1245C188.629 70.2193 188.633 70.3184 188.664 70.4108C188.899 70.4679 189.14 70.4918 189.381 70.4819C189.343 70.9285 189.368 71.3782 189.456 71.8177C189.458 71.8507 189.467 71.8829 189.482 71.9124C189.497 71.9418 189.518 71.9679 189.544 71.9891C189.619 72.0373 189.714 71.9891 189.791 71.9472C190.141 71.7299 190.429 71.4243 190.624 71.0609L191.002 71.964C191.029 72.0563 191.088 72.1362 191.168 72.1899C191.226 72.21 191.288 72.2102 191.345 72.1904C191.403 72.1707 191.452 72.1322 191.485 72.0811C191.548 71.9768 191.586 71.8596 191.598 71.7384L191.737 70.8772C191.741 70.8329 191.757 70.7907 191.785 70.756C191.828 70.7231 191.881 70.7081 191.935 70.7141C192.292 70.7141 192.649 70.6995 193.008 70.7014C193.069 70.5113 192.879 70.3337 192.696 70.254C192.512 70.1744 192.296 70.1119 192.204 69.9342C192.018 69.5706 192.5 69.0667 192.296 68.7532C192.057 68.3873 191.667 68.749 191.354 68.9058Z" fill="#0D9488"/>
<path opacity="0.2" d="M222.486 82.8758C222.467 82.888 222.445 82.8945 222.423 82.8945C222.381 82.8945 222.354 82.8526 222.335 82.8171C222.244 82.608 222.298 82.3573 222.156 82.1901C222.013 82.3623 221.897 82.5564 221.815 82.765L221.275 82.5978C221.248 82.7038 221.243 82.8141 221.261 82.922C221.278 83.0299 221.318 83.133 221.377 83.2248C221.283 83.2669 221.196 83.3257 221.123 83.3984C221.087 83.4358 221.062 83.4823 221.051 83.5327C221.04 83.5831 221.042 83.6357 221.058 83.6849C221.182 83.7141 221.31 83.7267 221.437 83.7226C221.417 83.9596 221.431 84.1983 221.479 84.4312C221.48 84.4488 221.485 84.4661 221.493 84.4819C221.501 84.4977 221.512 84.5117 221.525 84.5232C221.565 84.5483 221.617 84.5232 221.656 84.5003C221.842 84.385 221.995 84.2229 222.098 84.0301L222.307 84.5089C222.322 84.5585 222.353 84.6013 222.396 84.6301C222.427 84.6405 222.46 84.6404 222.491 84.6299C222.521 84.6193 222.548 84.5988 222.565 84.5717C222.598 84.5164 222.618 84.4542 222.624 84.3899L222.698 83.932C222.698 83.9188 222.7 83.9055 222.705 83.8933C222.71 83.8811 222.718 83.8704 222.728 83.862C222.739 83.8536 222.751 83.8478 222.764 83.845C222.777 83.8423 222.79 83.8428 222.803 83.8463H223.374C223.407 83.7438 223.305 83.6499 223.209 83.608C223.106 83.581 223.014 83.5217 222.947 83.4386C222.848 83.2441 223.105 82.9766 222.995 82.8116C222.884 82.6466 222.644 82.7942 222.486 82.8758Z" fill="#0D9488"/>
<path opacity="0.2" d="M208.545 90.9445C208.525 90.9567 208.503 90.9632 208.48 90.9633C208.44 90.9633 208.411 90.9214 208.395 90.8839C208.303 90.6853 208.355 90.4261 208.215 90.2569C208.071 90.43 207.955 90.6247 207.871 90.8338L207.333 90.6666C207.307 90.7725 207.302 90.8829 207.32 90.9907C207.337 91.0986 207.377 91.2017 207.436 91.2936C207.341 91.3348 207.254 91.3937 207.181 91.4671C207.145 91.5041 207.119 91.5504 207.108 91.601C207.096 91.6515 207.098 91.7044 207.115 91.7536C207.239 91.783 207.368 91.7957 207.496 91.7914C207.476 92.0283 207.489 92.2668 207.536 92.4999C207.537 92.5172 207.542 92.5341 207.549 92.5495C207.557 92.5649 207.568 92.5786 207.581 92.5898C207.621 92.6173 207.673 92.5898 207.713 92.5688C207.899 92.4537 208.052 92.2916 208.157 92.0986L208.365 92.5774C208.38 92.6269 208.412 92.6698 208.455 92.6986C208.485 92.709 208.519 92.7089 208.549 92.6984C208.58 92.6878 208.606 92.6673 208.624 92.6402C208.657 92.5849 208.677 92.5226 208.682 92.4583L208.757 92.0005C208.758 91.9769 208.767 91.9543 208.782 91.9357C208.805 91.9198 208.833 91.9118 208.861 91.9129H209.432C209.463 91.8104 209.363 91.7165 209.265 91.6746C209.162 91.6486 209.071 91.589 209.005 91.5052C208.905 91.3107 209.161 91.0432 209.053 90.8782C208.945 90.7131 208.711 90.8611 208.545 90.9445Z" fill="#0D9488"/>
<path opacity="0.5" d="M195.06 62.7037C195.041 62.7156 195.019 62.7221 194.997 62.7225C194.977 62.7188 194.958 62.7097 194.942 62.696C194.927 62.6824 194.915 62.6648 194.909 62.6451C194.818 62.436 194.87 62.1853 194.73 62.0181C194.586 62.1904 194.47 62.3844 194.386 62.593L193.849 62.4258C193.822 62.5318 193.818 62.642 193.835 62.7498C193.853 62.8577 193.892 62.9607 193.951 63.0528C193.856 63.0932 193.77 63.1514 193.696 63.2241C193.66 63.2612 193.635 63.3076 193.623 63.3581C193.611 63.4086 193.614 63.4613 193.63 63.5106C193.754 63.5419 193.883 63.5546 194.011 63.5484C193.991 63.786 194.004 64.0253 194.051 64.2591C194.052 64.2765 194.057 64.2934 194.066 64.3089C194.074 64.3243 194.085 64.3379 194.098 64.349C194.138 64.374 194.188 64.349 194.23 64.328C194.416 64.2121 194.568 64.0492 194.672 63.8556L194.88 64.3363C194.894 64.3856 194.926 64.428 194.97 64.4553C195 64.4657 195.034 64.4656 195.064 64.4551C195.095 64.4445 195.121 64.424 195.139 64.3969C195.172 64.3416 195.192 64.2794 195.197 64.2151L195.272 63.7594C195.274 63.7358 195.282 63.7132 195.297 63.6947C195.32 63.6771 195.348 63.6689 195.376 63.6718H195.947C195.979 63.5715 195.879 63.4773 195.781 63.4335C195.683 63.3897 195.572 63.3583 195.52 63.2641C195.42 63.0712 195.679 62.8021 195.568 62.6371C195.458 62.4721 195.226 62.6222 195.06 62.7037Z" fill="#0D9488"/>
<path opacity="0.5" d="M202.235 78.6178C202.217 78.6303 202.195 78.6369 202.173 78.6366C202.131 78.6366 202.104 78.5969 202.087 78.5592C201.996 78.3501 202.048 78.0994 201.906 77.9322C201.764 78.1051 201.648 78.299 201.564 78.5071L201.025 78.3399C200.999 78.4459 200.995 78.5561 201.012 78.6638C201.03 78.7715 201.069 78.8746 201.127 78.9669C201.033 79.0087 200.947 79.0675 200.875 79.1404C200.838 79.1774 200.813 79.2237 200.801 79.2743C200.789 79.3248 200.792 79.3777 200.808 79.427C200.932 79.4572 201.06 79.4699 201.187 79.4647C201.168 79.7024 201.182 79.9417 201.229 80.1755C201.23 80.1927 201.235 80.2096 201.243 80.225C201.251 80.2405 201.262 80.2541 201.275 80.2653C201.314 80.2903 201.367 80.2653 201.406 80.2424C201.593 80.1273 201.746 79.9652 201.85 79.7721L202.059 80.2509C202.072 80.3011 202.104 80.3443 202.148 80.3722C202.178 80.3828 202.211 80.3828 202.242 80.3722C202.272 80.3616 202.298 80.341 202.315 80.3137C202.349 80.2587 202.369 80.1964 202.375 80.1319L202.45 79.6763C202.45 79.6506 202.46 79.626 202.478 79.6074C202.489 79.5983 202.501 79.5916 202.515 79.5876C202.529 79.5837 202.543 79.5826 202.557 79.5845H203.126C203.159 79.4843 203.059 79.3881 202.961 79.3462C202.858 79.3202 202.766 79.2606 202.7 79.1768C202.601 78.984 202.857 78.7148 202.748 78.5498C202.64 78.3848 202.402 78.5363 202.235 78.6178Z" fill="#0D9488"/>
<path opacity="0.5" d="M197.027 72.4155C197.008 72.4261 196.986 72.4325 196.964 72.4342C196.945 72.4297 196.926 72.4199 196.911 72.406C196.896 72.3921 196.885 72.3745 196.879 72.3549C196.787 72.1563 196.839 71.897 196.698 71.7279C196.554 71.901 196.439 72.0957 196.356 72.3048L195.816 72.1375C195.791 72.2436 195.787 72.3537 195.804 72.4614C195.822 72.5691 195.861 72.6722 195.918 72.7646C195.824 72.805 195.737 72.8632 195.664 72.9359C195.629 72.9734 195.604 73.0198 195.592 73.0702C195.581 73.1207 195.584 73.1733 195.6 73.2224C195.723 73.2537 195.851 73.2665 195.979 73.2602C195.959 73.4979 195.973 73.7371 196.021 73.9709C196.022 73.9882 196.027 74.005 196.035 74.0205C196.042 74.0359 196.053 74.0496 196.067 74.0607C196.106 74.0858 196.158 74.0607 196.198 74.0398C196.384 73.9235 196.537 73.7607 196.642 73.5673L196.85 74.048C196.864 74.0972 196.895 74.1396 196.938 74.1673C196.968 74.1778 197.002 74.1777 197.032 74.1671C197.063 74.1565 197.089 74.1361 197.107 74.1089C197.141 74.0538 197.161 73.9916 197.167 73.9271L197.24 73.4715C197.242 73.4478 197.251 73.4253 197.265 73.4067C197.277 73.3976 197.29 73.3908 197.304 73.3869C197.318 73.383 197.333 73.3819 197.348 73.3838H197.916C197.95 73.2836 197.848 73.1894 197.752 73.1455C197.656 73.1017 197.543 73.0703 197.489 72.9761C197.391 72.7833 197.648 72.5141 197.539 72.3491C197.431 72.1841 197.194 72.3312 197.027 72.4155Z" fill="#0D9488"/>
<path opacity="0.5" d="M219.399 73.8748C219.381 73.8872 219.359 73.8938 219.336 73.8935C219.295 73.8935 219.268 73.8538 219.251 73.8161C219.159 73.607 219.211 73.3563 219.07 73.1891C218.926 73.3615 218.811 73.5556 218.728 73.764L218.188 73.5968C218.162 73.7028 218.158 73.813 218.176 73.9207C218.193 74.0284 218.232 74.1315 218.29 74.2238C218.196 74.2658 218.11 74.3246 218.036 74.3974C218 74.4348 217.976 74.4812 217.964 74.5317C217.953 74.5821 217.955 74.6347 217.971 74.6839C218.095 74.7142 218.223 74.7269 218.351 74.7216C218.331 74.9593 218.345 75.1986 218.392 75.4324C218.394 75.4497 218.398 75.4665 218.406 75.4819C218.414 75.4974 218.425 75.511 218.438 75.5222C218.478 75.5473 218.53 75.5222 218.57 75.4993C218.756 75.3842 218.909 75.2221 219.013 75.0291L219.222 75.5079C219.236 75.558 219.268 75.6013 219.311 75.6291C219.342 75.6393 219.375 75.6392 219.405 75.6286C219.435 75.618 219.461 75.5976 219.478 75.5707C219.512 75.5156 219.533 75.4533 219.539 75.3888L219.614 74.9332C219.612 74.9198 219.614 74.9063 219.619 74.8938C219.624 74.8814 219.632 74.8704 219.643 74.8617C219.653 74.853 219.665 74.847 219.678 74.8442C219.691 74.8413 219.705 74.8417 219.718 74.8453H220.287C220.32 74.745 220.218 74.6489 220.122 74.607C220.019 74.58 219.927 74.5206 219.859 74.4376C219.761 74.2447 220.018 73.9756 219.909 73.8106C219.801 73.6456 219.568 73.7932 219.399 73.8748Z" fill="#0D9488"/>
<path opacity="0.2" d="M208.544 72.6538C208.525 72.6659 208.503 72.6724 208.48 72.6725C208.44 72.6725 208.411 72.6329 208.394 72.5951C208.303 72.386 208.355 72.1353 208.215 71.9681C208.071 72.1405 207.955 72.3345 207.871 72.5431L207.333 72.3758C207.307 72.4818 207.302 72.5921 207.32 72.6999C207.338 72.8077 207.377 72.9108 207.436 73.0028C207.341 73.0433 207.254 73.1015 207.181 73.1742C207.145 73.2113 207.12 73.2576 207.108 73.3081C207.096 73.3586 207.098 73.4114 207.114 73.4607C207.239 73.4921 207.368 73.5048 207.496 73.4984C207.476 73.7361 207.489 73.9753 207.536 74.2092C207.539 74.2438 207.556 74.2758 207.581 74.299C207.621 74.3241 207.673 74.299 207.713 74.2781C207.899 74.1624 208.053 73.9995 208.157 73.8056L208.365 74.2863C208.379 74.3358 208.411 74.3783 208.455 74.4056C208.485 74.4161 208.518 74.416 208.549 74.4054C208.58 74.3948 208.606 74.3744 208.624 74.3472C208.657 74.2919 208.677 74.2297 208.682 74.1654L208.757 73.7097C208.758 73.6861 208.767 73.6636 208.782 73.645C208.804 73.6274 208.833 73.6192 208.861 73.6221H209.432C209.463 73.5219 209.363 73.4276 209.265 73.3838C209.167 73.34 209.057 73.3086 209.005 73.2144C208.905 73.0216 209.161 72.7524 209.053 72.5874C208.945 72.4224 208.711 72.5723 208.544 72.6538Z" fill="#0D9488"/>
<path opacity="0.3" d="M205.137 74.142C205.117 74.1526 205.096 74.159 205.074 74.1607C205.054 74.1561 205.036 74.1464 205.021 74.1325C205.006 74.1186 204.995 74.1009 204.989 74.0814C204.897 73.8723 204.949 73.6235 204.807 73.4544C204.664 73.6272 204.548 73.822 204.466 74.0312L203.926 73.8618C203.901 73.9679 203.897 74.078 203.914 74.1857C203.932 74.2933 203.97 74.3964 204.028 74.4888C203.933 74.5293 203.847 74.5874 203.774 74.6602C203.738 74.6976 203.714 74.7441 203.702 74.7945C203.691 74.8449 203.693 74.8975 203.709 74.9467C203.833 74.978 203.961 74.9907 204.089 74.9844C204.069 75.2221 204.083 75.4614 204.13 75.6952C204.132 75.7125 204.136 75.7293 204.144 75.7448C204.152 75.7602 204.163 75.7739 204.176 75.785C204.216 75.8101 204.268 75.785 204.308 75.7641C204.494 75.6478 204.647 75.485 204.751 75.2916L204.96 75.7723C204.974 75.8218 205.006 75.8643 205.049 75.8916C205.08 75.9018 205.113 75.9016 205.143 75.8911C205.173 75.8805 205.199 75.8601 205.216 75.8332C205.25 75.7781 205.271 75.7159 205.277 75.6514L205.352 75.1957C205.352 75.1723 205.36 75.1497 205.374 75.131C205.386 75.1218 205.399 75.1151 205.413 75.1112C205.427 75.1073 205.442 75.1062 205.457 75.1081H206.026C206.059 75.0078 205.957 74.9136 205.861 74.8698C205.765 74.826 205.652 74.7946 205.598 74.7004C205.5 74.5076 205.757 74.2384 205.648 74.0734C205.54 73.9084 205.304 74.0585 205.137 74.142Z" fill="#0D9488"/>
<path opacity="0.2" d="M201.963 65.1454C201.943 65.1575 201.921 65.164 201.898 65.1641C201.859 65.1641 201.829 65.1245 201.813 65.0867C201.721 64.8776 201.773 64.6269 201.633 64.4597C201.489 64.6321 201.373 64.8261 201.289 65.0346L200.752 64.8674C200.725 64.9734 200.72 65.0837 200.738 65.1916C200.755 65.2995 200.795 65.4026 200.854 65.4944C200.759 65.5365 200.673 65.5952 200.599 65.668C200.563 65.705 200.538 65.7513 200.526 65.8018C200.514 65.8524 200.517 65.9052 200.533 65.9545C200.658 65.9847 200.786 65.9974 200.914 65.9922C200.894 66.2298 200.907 66.4691 200.954 66.703C200.957 66.7376 200.974 66.7696 201 66.7928C201.039 66.8179 201.091 66.7928 201.131 66.7699C201.318 66.6556 201.471 66.4933 201.575 66.2997L201.783 66.7785C201.798 66.8281 201.83 66.8709 201.873 66.8997C201.904 66.9101 201.937 66.91 201.967 66.8995C201.998 66.8889 202.024 66.8684 202.042 66.8413C202.075 66.786 202.095 66.7238 202.1 66.6595L202.175 66.2038C202.176 66.1801 202.185 66.1575 202.2 66.1391C202.222 66.1213 202.251 66.1131 202.279 66.1162H202.85C202.882 66.0137 202.782 65.9198 202.683 65.8779C202.58 65.8519 202.489 65.7923 202.423 65.7085C202.323 65.514 202.579 65.2465 202.471 65.0815C202.362 64.9165 202.129 65.0638 201.963 65.1454Z" fill="#0D9488"/>
<path opacity="0.3" d="M208.217 76.8889C208.197 76.8992 208.175 76.9055 208.153 76.9076C208.113 76.9076 208.084 76.8657 208.067 76.8283C207.976 76.6296 208.028 76.3704 207.888 76.2013C207.744 76.3744 207.628 76.569 207.544 76.7781L207.006 76.6109C206.98 76.7169 206.975 76.8272 206.993 76.935C207.01 77.0429 207.05 77.146 207.109 77.2379C207.014 77.2784 206.928 77.3365 206.854 77.4093C206.818 77.4464 206.793 77.4927 206.781 77.5432C206.769 77.5937 206.772 77.6465 206.788 77.6958C206.912 77.727 207.041 77.7398 207.169 77.7335C207.149 77.9711 207.162 78.2104 207.209 78.4443C207.212 78.4789 207.229 78.5109 207.255 78.5341C207.294 78.5592 207.346 78.5341 207.388 78.5132C207.574 78.3968 207.726 78.234 207.83 78.0407L208.038 78.5214C208.053 78.5708 208.085 78.6131 208.128 78.6404C208.159 78.6509 208.192 78.6508 208.222 78.6402C208.253 78.6296 208.279 78.6092 208.297 78.582C208.33 78.5268 208.35 78.4645 208.355 78.4002L208.43 77.9445C208.432 77.9209 208.441 77.8984 208.455 77.8798C208.478 77.8622 208.506 77.854 208.534 77.8569H209.105C209.136 77.7567 209.036 77.6624 208.938 77.6186C208.84 77.5748 208.73 77.5434 208.678 77.4492C208.578 77.2564 208.834 76.9872 208.726 76.8222C208.617 76.6572 208.384 76.8013 208.217 76.8889Z" fill="#0D9488"/>
</g>
<g opacity="0.6">
<path opacity="0.5" d="M117.298 45.5331C117.231 45.4509 117.135 45.3972 117.03 45.3831C116.925 45.369 116.819 45.3955 116.732 45.4572C116.646 45.5189 116.587 45.6112 116.566 45.7154C116.545 45.8195 116.564 45.9277 116.62 46.018C116.697 46.1351 116.783 46.248 116.864 46.3566C117.842 47.682 118.347 49.2831 118.787 50.8801C118.928 51.2616 118.959 51.6756 118.874 52.0738C119.025 51.0325 118.954 49.9709 118.666 48.9591C118.38 47.9506 118.012 46.967 117.567 46.018C117.495 45.8472 117.405 45.6847 117.298 45.5331H117.298Z" fill="#0D9488"/>
<path d="M110.95 48.3197C110.289 48.2988 110.205 49.3021 110.862 49.3544C111.035 49.369 111.208 49.3732 111.375 49.3773C113.396 49.4324 115.306 50.1674 117.143 50.9575C117.595 51.152 118.068 51.3757 118.331 51.7936C117.478 50.847 116.428 50.1004 115.255 49.6071C114.079 49.1136 112.865 48.7199 111.624 48.4302C111.404 48.3688 111.178 48.3318 110.951 48.32L110.95 48.3197Z" fill="#0D9488"/>
<path opacity="0.2" d="M111.133 50.7864C110.716 50.801 110.81 51.3969 111.231 51.3988H111.554C112.829 51.3465 114.134 51.6999 115.401 52.0876C115.722 52.1582 116.019 52.3085 116.266 52.5245C115.594 52.004 114.831 51.6118 114.017 51.3674C113.218 51.1255 112.401 50.9424 111.575 50.8198C111.429 50.7947 111.281 50.7836 111.133 50.7864Z" fill="#0D9488"/>
<path opacity="0.5" d="M119.661 61.8296C119.78 62.231 120.331 61.9927 120.23 61.5817C120.203 61.4751 120.172 61.3726 120.141 61.2701C119.776 60.0431 119.793 58.6885 119.853 57.3612C119.843 57.0324 119.915 56.7062 120.062 56.4122C119.724 57.1942 119.532 58.0316 119.495 58.883C119.463 59.7201 119.491 60.5584 119.58 61.3913C119.594 61.5392 119.622 61.6855 119.663 61.8282L119.661 61.8296Z" fill="#0D9488"/>
<path opacity="0.2" d="M111.894 44.975C111.642 44.9312 111.623 45.299 111.873 45.3532L112.067 45.391C112.849 45.5665 113.596 45.8709 114.278 46.2918C114.46 46.3747 114.619 46.5019 114.739 46.6618C114.403 46.2654 113.998 45.9345 113.543 45.6855C113.094 45.4431 112.629 45.2336 112.151 45.0585C112.068 45.0236 111.982 44.996 111.894 44.9758L111.894 44.975Z" fill="#0D9488"/>
<path d="M108.019 54.689C107.384 55.0171 107.921 55.9201 108.576 55.6212C108.747 55.5419 108.913 55.454 109.072 55.3733C111.019 54.3595 113.278 53.9873 115.499 53.7011C116.045 53.63 116.627 53.5694 117.131 53.7837C115.742 53.4223 114.297 53.3356 112.875 53.5286C111.47 53.7208 110.081 54.0206 108.721 54.4253C108.479 54.4891 108.243 54.5773 108.019 54.6887L108.019 54.689Z" fill="#0D9488"/>
<path opacity="0.5" d="M109.839 58.2006C109.38 58.6188 110.095 59.1329 110.575 58.7241C110.7 58.6152 110.822 58.5037 110.933 58.3959C112.327 57.0832 114.17 56.1488 116.004 55.2876C116.454 55.0785 118.297 54.8694 118.803 54.8694C117.512 54.9865 114.87 55.3898 113.697 55.9146C112.544 56.4656 111.43 57.0941 110.362 57.7959C110.176 57.9145 110.001 58.0503 109.84 58.2015L109.839 58.2006Z" fill="#0D9488"/>
<path d="M113.1 63.8043C112.966 64.4167 113.839 64.4313 114.002 63.8043C114.044 63.6454 114.079 63.4845 114.112 63.3299C114.514 61.4486 115.5 59.6362 116.521 57.8824C116.772 57.4519 118.174 56.2102 118.589 55.9469C117.59 56.783 115.648 58.6163 114.987 59.7241C114.355 60.8322 113.798 61.9817 113.32 63.1649C113.228 63.371 113.154 63.5851 113.1 63.8046L113.1 63.8043Z" fill="#0D9488"/>
<path d="M119.67 42.289C119.357 41.6515 118.467 42.1761 118.751 42.8303C118.824 42.9998 118.907 43.167 118.986 43.3279C119.945 45.2739 120.277 47.5252 120.522 49.739C120.583 50.2804 120.635 50.8594 120.414 51.3592C120.79 49.9838 120.897 48.5486 120.73 47.1324C120.564 45.7328 120.292 44.3479 119.918 42.9893C119.859 42.7482 119.776 42.5136 119.67 42.289H119.67Z" fill="#0D9488"/>
<path d="M114.701 43.3739C114.717 43.3838 114.735 43.3889 114.753 43.3885C114.77 43.3857 114.786 43.3781 114.799 43.3666C114.812 43.3552 114.821 43.3403 114.826 43.3237C114.905 43.1524 114.86 42.9328 114.981 42.7907C115.102 42.9376 115.2 43.1027 115.271 43.2799L115.729 43.1378C115.75 43.2265 115.753 43.3185 115.738 43.4084C115.723 43.4983 115.69 43.5843 115.641 43.6612C115.719 43.697 115.79 43.7465 115.85 43.8075C115.88 43.839 115.901 43.8783 115.911 43.921C115.921 43.9638 115.918 44.0083 115.905 44.0499C115.799 44.0768 115.69 44.088 115.582 44.0833C115.6 44.2845 115.589 44.4872 115.548 44.6852C115.546 44.7151 115.532 44.7429 115.509 44.7626C115.491 44.7698 115.471 44.7718 115.451 44.7685C115.432 44.7652 115.414 44.7567 115.399 44.7439C115.241 44.6462 115.111 44.5085 115.022 44.3447L114.853 44.7502C114.84 44.7926 114.813 44.8289 114.776 44.8527C114.75 44.8618 114.722 44.862 114.697 44.8532C114.671 44.8445 114.649 44.8273 114.634 44.8045C114.606 44.7572 114.589 44.7043 114.584 44.6497L114.52 44.2609C114.519 44.2407 114.512 44.2212 114.499 44.2058C114.48 44.1913 114.456 44.1846 114.432 44.1871H113.949C113.919 44.1014 114.003 44.0218 114.088 43.978C114.173 43.9342 114.267 43.9133 114.308 43.8337C114.393 43.6684 114.174 43.4405 114.268 43.3006C114.362 43.1606 114.566 43.3031 114.701 43.3739Z" fill="#0D9488"/>
<path opacity="0.5" d="M123.53 45.5331C123.594 45.4428 123.691 45.3816 123.8 45.3632C123.909 45.3447 124.021 45.3705 124.111 45.4348C124.201 45.4991 124.262 45.5967 124.281 45.706C124.299 45.8154 124.273 45.9276 124.209 46.018C124.13 46.1351 124.047 46.248 123.965 46.3566C122.988 47.6819 122.479 49.2831 122.043 50.8801C121.9 51.2614 121.869 51.6754 121.953 52.0738C121.802 51.0324 121.873 49.9708 122.162 48.9591C122.447 47.9503 122.814 46.9666 123.26 46.018C123.332 45.8472 123.423 45.6846 123.53 45.5331Z" fill="#0D9488"/>
<path d="M129.879 48.3197C130.538 48.2988 130.623 49.3021 129.964 49.3544C129.793 49.369 129.618 49.3732 129.453 49.3773C127.432 49.4324 125.521 50.1674 123.685 50.9575C123.235 51.152 122.762 51.3757 122.499 51.7936C123.352 50.847 124.402 50.1004 125.575 49.6071C126.75 49.1139 127.964 48.7202 129.204 48.4302C129.425 48.3689 129.651 48.332 129.88 48.32L129.879 48.3197Z" fill="#0D9488"/>
<path opacity="0.5" d="M129.707 50.7861C130.124 50.8007 130.028 51.3966 129.609 51.3986H129.286C128.011 51.3462 126.706 51.6997 125.439 52.0873C125.119 52.1575 124.821 52.3078 124.574 52.5242C125.246 52.0033 126.009 51.6111 126.823 51.3672C127.624 51.1278 128.442 50.9475 129.27 50.8277C129.414 50.8001 129.56 50.7864 129.707 50.7861Z" fill="#0D9488"/>
<path opacity="0.2" d="M128.936 44.975C129.188 44.9312 129.207 45.299 128.957 45.3532L128.761 45.391C127.98 45.5665 127.234 45.8709 126.552 46.2918C126.37 46.3747 126.212 46.5019 126.091 46.6618C126.426 46.2655 126.831 45.9347 127.286 45.6858C127.735 45.4438 128.201 45.2343 128.68 45.0588C128.763 45.0233 128.849 44.9953 128.936 44.975Z" fill="#0D9488"/>
<path opacity="0.2" d="M122.413 62.5908C122.358 62.8387 122.012 62.7161 122.058 62.4633C122.065 62.397 122.079 62.3318 122.1 62.2688C122.239 61.4777 122.247 60.6689 122.123 59.8753C122.116 59.675 122.059 59.4796 121.958 59.3067C122.194 59.7695 122.342 60.272 122.396 60.7888C122.448 61.2985 122.464 61.8113 122.444 62.3233C122.443 62.4133 122.432 62.503 122.413 62.5908Z" fill="#0D9488"/>
<path opacity="0.5" d="M128.776 60.9348C128.972 61.2671 128.49 61.2442 128.28 60.912C128.225 60.8241 128.174 60.7365 128.124 60.6527C127.528 59.6334 126.619 58.6271 125.704 57.6552C125.488 57.4025 125.236 57.1834 124.956 57.005C125.67 57.4937 126.329 58.0586 126.921 58.6899C127.509 59.3169 128.026 59.9442 128.534 60.588C128.623 60.6981 128.703 60.8141 128.776 60.9351V60.9348Z" fill="#0D9488"/>
<path opacity="0.2" d="M111.343 60.9348C111.148 61.2671 111.629 61.2442 111.841 60.912C111.896 60.8241 111.948 60.7365 111.996 60.6527C112.592 59.6334 113.501 58.6271 114.416 57.6552C114.632 57.4024 114.885 57.1833 115.166 57.005C114.452 57.4937 113.792 58.0586 113.199 58.6899C112.613 59.3169 112.094 59.9442 111.585 60.588C111.497 60.698 111.416 60.8139 111.343 60.9348Z" fill="#0D9488"/>
<path opacity="0.2" d="M117.719 62.5908C117.774 62.8387 118.119 62.7161 118.076 62.4633C118.064 62.3963 118.049 62.3316 118.035 62.2688C117.894 61.4778 117.887 60.6689 118.012 59.8753C118.017 59.675 118.073 59.4794 118.174 59.3067C117.939 59.7695 117.79 60.272 117.737 60.7888C117.684 61.2984 117.669 61.8112 117.691 62.323C117.692 62.4129 117.702 62.5024 117.72 62.5905L117.719 62.5908Z" fill="#0D9488"/>
<path opacity="0.2" d="M126.929 47.4773C127.179 47.4335 127.198 47.7993 126.948 47.8555C126.883 47.8701 126.816 47.8806 126.754 47.891C125.972 48.0664 125.224 48.3716 124.542 48.7941C124.361 48.8776 124.203 49.0047 124.082 49.1641C124.417 48.7671 124.823 48.4355 125.278 48.1858C125.726 47.9434 126.192 47.7339 126.67 47.5588C126.754 47.5231 126.84 47.4957 126.929 47.4773Z" fill="#0D9488"/>
<path opacity="0.2" d="M124.584 42.567C124.793 42.4312 124.956 42.7634 124.745 42.9097L124.578 43.0163C123.919 43.4753 123.339 44.0403 122.863 44.6885C122.725 44.834 122.626 45.0124 122.575 45.207C122.738 44.7128 122.99 44.2529 123.319 43.8502C123.644 43.4552 123.996 43.0843 124.374 42.7402C124.438 42.6754 124.508 42.6174 124.584 42.567Z" fill="#0D9488"/>
<path d="M132.811 54.689C133.446 55.0171 132.909 55.9201 132.254 55.6212C132.083 55.5419 131.917 55.454 131.756 55.3733C129.811 54.3595 127.553 53.9873 125.33 53.7011C124.784 53.63 124.203 53.5694 123.699 53.7837C125.087 53.4226 126.531 53.3359 127.952 53.5286C129.359 53.7206 130.748 54.0204 132.108 54.4253C132.351 54.4898 132.586 54.578 132.811 54.6887V54.689Z" fill="#0D9488"/>
<path opacity="0.5" d="M130.992 58.2006C131.45 58.6188 130.735 59.1329 130.256 58.7241C130.131 58.6152 130.008 58.5037 129.895 58.3959C128.501 57.0832 126.66 56.1488 124.824 55.2876C124.376 55.0785 122.521 54.8694 122.027 54.8694C123.318 54.9865 125.958 55.3898 127.131 55.9146C128.284 56.4652 129.399 57.0938 130.466 57.7959C130.654 57.9144 130.829 58.0501 130.992 58.2015V58.2006Z" fill="#0D9488"/>
<path d="M125.602 64.5013C125.656 65.1283 124.789 65.0247 124.705 64.3988C124.684 64.2335 124.67 64.0707 124.655 63.914C124.49 62.0035 123.738 60.0739 122.944 58.205C122.75 57.7472 121.512 56.3466 121.137 56.0248C122.023 56.9758 123.719 59.0433 124.238 60.2266C124.73 61.405 125.142 62.6153 125.472 63.8492C125.536 64.062 125.579 64.2804 125.602 64.5013Z" fill="#0D9488"/>
<path d="M126.123 43.3739C126.106 43.384 126.087 43.389 126.068 43.3885C126.051 43.385 126.035 43.3772 126.023 43.3659C126.01 43.3545 126 43.34 125.995 43.3237C125.917 43.1524 125.961 42.9328 125.842 42.7907C125.72 42.9376 125.622 43.1026 125.551 43.2799L125.094 43.1378C125.073 43.2264 125.069 43.3186 125.084 43.4085C125.099 43.4985 125.133 43.5845 125.182 43.6612C125.104 43.697 125.034 43.7465 124.973 43.8075C124.943 43.839 124.922 43.8783 124.912 43.921C124.903 43.9638 124.905 44.0083 124.918 44.0499C125.024 44.0766 125.133 44.0878 125.241 44.0833C125.225 44.2846 125.237 44.4872 125.277 44.6852C125.28 44.7151 125.294 44.7429 125.316 44.7626C125.335 44.7698 125.355 44.7718 125.374 44.7685C125.393 44.7652 125.411 44.7567 125.426 44.7439C125.585 44.6462 125.715 44.5085 125.803 44.3447L125.972 44.7502C125.985 44.792 126.011 44.8282 126.047 44.8527C126.073 44.8619 126.101 44.8621 126.127 44.8534C126.153 44.8446 126.176 44.8274 126.191 44.8045C126.219 44.7572 126.236 44.7043 126.241 44.6497L126.306 44.2609C126.306 44.2407 126.313 44.2212 126.326 44.2058C126.345 44.1913 126.369 44.1846 126.393 44.1871H126.877C126.906 44.1014 126.818 44.0218 126.737 43.978C126.656 43.9342 126.556 43.9133 126.514 43.8337C126.432 43.6684 126.649 43.4405 126.556 43.3006C126.462 43.1606 126.264 43.3031 126.123 43.3739Z" fill="#0D9488"/>
<path opacity="0.2" d="M127.502 62.2561C127.485 62.2658 127.467 62.2716 127.447 62.2729C127.412 62.2729 127.389 62.2374 127.374 62.2059C127.297 62.0365 127.341 61.815 127.222 61.6729C127.099 61.8193 127.001 61.9845 126.93 62.1621L126.474 62.02C126.452 62.1085 126.449 62.2005 126.464 62.2904C126.478 62.3803 126.511 62.4664 126.559 62.5434C126.481 62.5795 126.411 62.6299 126.351 62.6919C126.32 62.7233 126.299 62.7626 126.289 62.8054C126.28 62.8481 126.282 62.8928 126.296 62.9343C126.402 62.9593 126.51 62.9699 126.619 62.9657C126.602 63.167 126.613 63.3696 126.652 63.5677C126.655 63.5976 126.669 63.6253 126.692 63.6451C126.725 63.666 126.769 63.6451 126.804 63.6264C126.962 63.5286 127.091 63.3909 127.18 63.2272L127.35 63.6327C127.362 63.6751 127.388 63.7118 127.425 63.7352C127.451 63.7443 127.479 63.7445 127.505 63.7357C127.53 63.727 127.552 63.7098 127.567 63.687C127.596 63.6399 127.614 63.587 127.619 63.5321L127.682 63.1434C127.684 63.1236 127.692 63.1047 127.703 63.0883C127.722 63.0735 127.747 63.0668 127.771 63.0696H128.255C128.282 62.9839 128.197 62.9043 128.115 62.8605C128.034 62.8167 127.934 62.7958 127.892 62.7161C127.81 62.5509 128.026 62.3252 127.934 62.1831C127.842 62.0409 127.644 62.185 127.502 62.2561Z" fill="#0D9488"/>
<path d="M131.375 49.5988C131.358 49.6083 131.339 49.614 131.32 49.6156C131.284 49.6156 131.261 49.5801 131.247 49.5487C131.168 49.3792 131.213 49.1577 131.092 49.0156C130.971 49.1626 130.873 49.3276 130.802 49.5049L130.344 49.3627C130.323 49.4514 130.32 49.5434 130.335 49.6333C130.35 49.7232 130.383 49.8092 130.432 49.8861C130.353 49.9218 130.283 49.9722 130.223 50.0346C130.192 50.0659 130.171 50.1051 130.161 50.1479C130.151 50.1907 130.153 50.2354 130.167 50.277C130.273 50.3022 130.381 50.3127 130.49 50.3085C130.473 50.5097 130.484 50.7123 130.523 50.9104C130.526 50.9403 130.54 50.9681 130.563 50.9878C130.581 50.995 130.601 50.997 130.62 50.9937C130.64 50.9904 130.658 50.9819 130.673 50.9691C130.831 50.8714 130.961 50.7337 131.05 50.5699L131.221 50.9754C131.232 51.0178 131.259 51.0545 131.296 51.0779C131.321 51.087 131.349 51.0872 131.375 51.0784C131.4 51.0697 131.422 51.0525 131.437 51.0297C131.466 50.983 131.483 50.9299 131.487 50.8751L131.552 50.4864C131.552 50.4662 131.56 50.4467 131.573 50.4313C131.592 50.4168 131.616 50.4101 131.639 50.4126H132.125C132.153 50.3269 132.067 50.2473 131.983 50.2035C131.9 50.1597 131.804 50.1387 131.764 50.0591C131.678 49.8938 131.897 49.666 131.805 49.5261C131.714 49.3861 131.516 49.5277 131.375 49.5988Z" fill="#0D9488"/>
<path d="M115.887 64.1501C115.864 64.1639 115.839 64.1717 115.812 64.1729C115.764 64.1729 115.73 64.1228 115.71 64.079C115.602 63.8429 115.664 63.5376 115.502 63.3368C115.332 63.5415 115.196 63.7715 115.097 64.0184L114.459 63.822C114.43 63.9458 114.425 64.0744 114.446 64.2001C114.466 64.3258 114.512 64.4461 114.58 64.5536C114.468 64.6034 114.366 64.6744 114.28 64.7627C114.237 64.8062 114.207 64.8605 114.193 64.9199C114.179 64.9793 114.182 65.0414 114.201 65.0994C114.348 65.1365 114.5 65.152 114.651 65.1454C114.629 65.425 114.645 65.7064 114.699 65.9815C114.701 66.0024 114.706 66.0227 114.716 66.0414C114.725 66.0601 114.738 66.0767 114.754 66.0903C114.8 66.1195 114.86 66.0903 114.909 66.0628C115.128 65.9258 115.309 65.7343 115.434 65.5068L115.669 66.0732C115.686 66.1322 115.724 66.1828 115.775 66.2154C115.813 66.2307 115.854 66.2322 115.892 66.2195C115.931 66.2069 115.963 66.181 115.984 66.1465C116.023 66.0833 116.048 66.0117 116.055 65.9374L116.142 65.398C116.142 65.3824 116.145 65.3668 116.152 65.3526C116.158 65.3383 116.168 65.3257 116.18 65.3157C116.192 65.3056 116.206 65.2985 116.221 65.2946C116.236 65.2908 116.252 65.2905 116.267 65.2936H116.941C116.98 65.1743 116.858 65.0617 116.745 65.0115C116.631 64.9614 116.495 64.9236 116.436 64.8024C116.32 64.5746 116.622 64.257 116.491 64.0603C116.329 63.8244 116.085 64.0517 115.887 64.1501Z" fill="#0D9488"/>
<path d="M109.443 49.9773C109.42 49.9905 109.394 49.9977 109.368 49.9983C109.319 49.9983 109.285 49.95 109.265 49.9062C109.157 49.6701 109.219 49.3627 109.057 49.1641C108.888 49.3688 108.751 49.5988 108.653 49.8456L108.015 49.647C107.985 49.7709 107.98 49.8995 108.001 50.0252C108.022 50.1509 108.068 50.2711 108.136 50.3787C108.024 50.4301 107.922 50.5009 107.835 50.5878C107.793 50.6316 107.763 50.6864 107.749 50.7462C107.736 50.8059 107.739 50.8683 107.758 50.9264C107.905 50.9625 108.055 50.978 108.206 50.9724C108.184 51.252 108.2 51.5333 108.254 51.8085C108.256 51.829 108.262 51.849 108.271 51.8674C108.28 51.8857 108.293 51.9019 108.309 51.9151C108.355 51.9465 108.416 51.9151 108.464 51.89C108.684 51.7528 108.865 51.5604 108.989 51.3319L109.224 51.9005C109.243 51.9585 109.28 52.0085 109.33 52.0426C109.366 52.0545 109.405 52.0542 109.441 52.0417C109.477 52.0293 109.508 52.0054 109.528 51.9738C109.568 51.9104 109.592 51.8389 109.599 51.7647L109.687 51.2233C109.689 51.1957 109.7 51.1694 109.718 51.1481C109.731 51.1374 109.746 51.1294 109.762 51.1247C109.778 51.1199 109.795 51.1185 109.812 51.1206H110.486C110.526 50.9994 110.407 50.8886 110.29 50.8385C110.174 50.7884 110.04 50.7487 109.982 50.6294C109.865 50.4016 110.167 50.0839 110.04 49.8872C109.885 49.6594 109.641 49.879 109.443 49.9773Z" fill="#0D9488"/>
<path opacity="0.2" d="M128.997 58.7519C128.985 58.7601 128.971 58.7645 128.957 58.7646C128.944 58.7621 128.933 58.7563 128.923 58.7478C128.913 58.7394 128.906 58.7285 128.902 58.7163C128.847 58.5888 128.879 58.4279 128.789 58.3213C128.702 58.4305 128.632 58.5525 128.581 58.683L128.241 58.5786C128.226 58.6444 128.223 58.7127 128.234 58.7795C128.245 58.8462 128.27 58.9101 128.306 58.9673C128.246 58.9929 128.193 59.0299 128.147 59.0761C128.124 59.0993 128.108 59.1283 128.101 59.1601C128.093 59.1919 128.095 59.2251 128.105 59.256C128.183 59.275 128.263 59.2827 128.343 59.2789C128.33 59.4286 128.34 59.5793 128.371 59.7263C128.373 59.7478 128.383 59.7675 128.4 59.7814C128.413 59.7869 128.428 59.7885 128.443 59.7859C128.458 59.7833 128.471 59.7767 128.482 59.7668C128.6 59.6944 128.696 59.5919 128.761 59.4698L128.886 59.7728C128.895 59.8035 128.915 59.8301 128.941 59.848C128.961 59.8545 128.982 59.8543 129.001 59.8475C129.02 59.8406 129.037 59.8276 129.048 59.8103C129.067 59.7735 129.079 59.7329 129.081 59.6913L129.127 59.4029C129.127 59.3945 129.128 59.3862 129.132 59.3786C129.135 59.371 129.14 59.3643 129.147 59.359C129.153 59.3537 129.161 59.3499 129.169 59.348C129.177 59.346 129.185 59.346 129.193 59.3478H129.551C129.571 59.2849 129.509 59.2265 129.448 59.1993C129.388 59.172 129.313 59.1511 129.284 59.0927C129.221 58.9714 129.382 58.802 129.313 58.6976C129.244 58.5932 129.103 58.7026 128.997 58.7519Z" fill="#0D9488"/>
<path opacity="0.2" d="M120.243 63.8217C120.231 63.829 120.217 63.8334 120.203 63.8344C120.191 63.8317 120.179 63.8256 120.169 63.8168C120.159 63.808 120.152 63.7967 120.148 63.7842C120.093 63.6589 120.126 63.4977 120.036 63.3911C119.948 63.5001 119.878 63.6221 119.827 63.7528L119.488 63.6484C119.472 63.7142 119.47 63.7825 119.481 63.8493C119.492 63.916 119.516 63.9799 119.552 64.0371C119.493 64.0627 119.439 64.0997 119.394 64.1459C119.371 64.1691 119.355 64.1982 119.347 64.2299C119.34 64.2617 119.341 64.2949 119.352 64.3258C119.43 64.3448 119.51 64.3525 119.589 64.3487C119.577 64.4976 119.586 64.6477 119.617 64.7939C119.619 64.8161 119.628 64.8369 119.644 64.8523C119.669 64.8669 119.703 64.8523 119.727 64.8377C119.845 64.7654 119.941 64.663 120.006 64.541L120.131 64.844C120.14 64.8747 120.16 64.9013 120.186 64.9192C120.205 64.9254 120.226 64.925 120.245 64.9182C120.265 64.9114 120.281 64.8985 120.292 64.8815C120.313 64.8471 120.325 64.8084 120.328 64.7685L120.376 64.4801C120.376 64.4718 120.377 64.4635 120.381 64.4559C120.384 64.4483 120.389 64.4416 120.396 64.4363C120.402 64.431 120.41 64.4272 120.418 64.4252C120.426 64.4233 120.434 64.4232 120.443 64.425H120.8C120.821 64.3622 120.758 64.3016 120.697 64.2765C120.637 64.2514 120.562 64.2283 120.533 64.1699C120.47 64.0487 120.631 63.8793 120.562 63.7749C120.493 63.6704 120.347 63.7715 120.243 63.8217Z" fill="#0D9488"/>
<path opacity="0.5" d="M111.783 46.0808C111.771 46.0878 111.758 46.0921 111.744 46.0935C111.716 46.0935 111.7 46.0659 111.689 46.0433C111.631 45.918 111.664 45.7549 111.574 45.6502C111.486 45.7589 111.416 45.881 111.366 46.0119L111.011 45.8971C110.995 45.9627 110.992 46.0311 111.003 46.0979C111.014 46.1647 111.038 46.2287 111.074 46.2858C111.015 46.3127 110.962 46.3495 110.916 46.3946C110.893 46.4179 110.877 46.4469 110.87 46.4787C110.862 46.5104 110.864 46.5435 110.874 46.5745C110.952 46.5934 111.033 46.6018 111.114 46.5996C111.101 46.7484 111.11 46.8983 111.139 47.0447C111.14 47.0554 111.143 47.0658 111.148 47.0753C111.153 47.0847 111.159 47.0931 111.168 47.0998C111.193 47.1167 111.223 47.0998 111.25 47.0872C111.367 47.0143 111.464 46.9119 111.53 46.7902L111.654 47.0913C111.663 47.1223 111.682 47.1492 111.709 47.1665C111.728 47.174 111.75 47.1745 111.769 47.168C111.788 47.1615 111.805 47.1484 111.816 47.131C111.837 47.096 111.849 47.0567 111.853 47.0161L111.899 46.7296C111.9 46.7142 111.906 46.6996 111.916 46.6877C111.923 46.6824 111.931 46.6785 111.94 46.6763C111.948 46.6742 111.957 46.6737 111.966 46.675H112.324C112.343 46.6103 112.281 46.5516 112.22 46.5246C112.16 46.4976 112.087 46.4786 112.056 46.418C111.993 46.2968 112.154 46.1296 112.087 46.0249C112.02 45.9202 111.877 46.0285 111.783 46.0808Z" fill="#0D9488"/>
<path opacity="0.5" d="M116.281 56.0794C116.268 56.0834 116.254 56.0834 116.242 56.0794C116.217 56.0794 116.198 56.0543 116.187 56.0314C116.128 55.9061 116.162 55.743 116.074 55.6364C115.986 55.7456 115.915 55.8684 115.866 56L115.528 55.8934C115.512 55.9592 115.509 56.0276 115.52 56.0944C115.531 56.1613 115.556 56.2251 115.592 56.2821C115.533 56.3082 115.478 56.3451 115.432 56.3909C115.41 56.4143 115.394 56.4434 115.386 56.4751C115.379 56.5068 115.38 56.5399 115.39 56.5708C115.469 56.5896 115.549 56.5981 115.63 56.5959C115.618 56.7447 115.626 56.8946 115.655 57.0411C115.657 57.0626 115.668 57.0823 115.684 57.0962C115.709 57.113 115.742 57.0962 115.767 57.0835C115.883 57.0106 115.979 56.9083 116.044 56.7868L116.171 57.0879C116.179 57.119 116.199 57.1458 116.226 57.1631C116.245 57.1693 116.265 57.1692 116.284 57.1627C116.303 57.1563 116.319 57.144 116.33 57.1276C116.352 57.093 116.365 57.0535 116.368 57.0127L116.415 56.7262C116.416 56.7111 116.421 56.6965 116.43 56.6843C116.445 56.6742 116.462 56.6691 116.48 56.6697H116.837C116.858 56.605 116.793 56.5463 116.733 56.5193C116.673 56.4923 116.599 56.4733 116.568 56.4127C116.508 56.2915 116.668 56.1221 116.599 56.0177C116.531 55.9132 116.385 56.0267 116.281 56.0794Z" fill="#0D9488"/>
<path opacity="0.5" d="M113.009 52.1804C112.997 52.1877 112.983 52.1921 112.969 52.1931C112.956 52.1904 112.945 52.1843 112.935 52.1755C112.925 52.1667 112.918 52.1554 112.914 52.1429C112.856 52.0176 112.889 51.8545 112.802 51.7498C112.713 51.8583 112.643 51.9805 112.593 52.1115L112.256 52.0071C112.24 52.0729 112.237 52.1413 112.248 52.2081C112.259 52.2749 112.284 52.3388 112.32 52.3958C112.261 52.4219 112.206 52.4588 112.16 52.5046C112.137 52.528 112.122 52.5571 112.114 52.5888C112.107 52.6205 112.108 52.6536 112.118 52.6845C112.196 52.7038 112.277 52.7115 112.358 52.7074C112.345 52.8562 112.354 53.0061 112.383 53.1526C112.383 53.1638 112.386 53.1748 112.391 53.1848C112.396 53.1948 112.403 53.2037 112.412 53.211C112.437 53.2256 112.47 53.211 112.494 53.1964C112.611 53.124 112.707 53.0215 112.772 52.8997L112.899 53.2027C112.908 53.2334 112.927 53.26 112.954 53.2779C112.973 53.2843 112.993 53.284 113.012 53.2771C113.031 53.2703 113.047 53.2573 113.058 53.2402C113.079 53.2053 113.092 53.166 113.095 53.1253L113.143 52.8388C113.144 52.8244 113.149 52.8104 113.158 52.7991C113.172 52.7881 113.19 52.7829 113.208 52.7845H113.566C113.587 52.7217 113.522 52.6611 113.462 52.636C113.402 52.611 113.329 52.5878 113.297 52.5294C113.235 52.4082 113.397 52.2388 113.329 52.1344C113.26 52.03 113.113 52.128 113.009 52.1804Z" fill="#0D9488"/>
<path opacity="0.5" d="M127.065 53.098C127.053 53.1051 127.039 53.1094 127.025 53.1107C127.012 53.1085 127 53.1026 126.99 53.0937C126.981 53.0849 126.974 53.0733 126.97 53.0606C126.912 52.9352 126.945 52.7741 126.856 52.6675C126.768 52.7764 126.698 52.8985 126.647 53.0292L126.31 52.9248C126.293 52.9904 126.291 53.0587 126.301 53.1255C126.312 53.1923 126.336 53.2563 126.372 53.3135C126.313 53.3396 126.26 53.3765 126.214 53.4223C126.191 53.4454 126.175 53.4745 126.168 53.5063C126.16 53.5381 126.162 53.5713 126.172 53.6022C126.251 53.6214 126.331 53.6291 126.412 53.6251C126.399 53.7739 126.408 53.9238 126.437 54.0702C126.438 54.0814 126.44 54.0924 126.445 54.1024C126.45 54.1125 126.457 54.1214 126.466 54.1286C126.491 54.1432 126.521 54.1286 126.548 54.114C126.666 54.0418 126.763 53.9394 126.828 53.8173L126.953 54.1204C126.962 54.1511 126.981 54.1777 127.008 54.1956C127.027 54.2021 127.048 54.2019 127.067 54.195C127.087 54.1882 127.103 54.1751 127.114 54.1578C127.135 54.1229 127.148 54.0836 127.152 54.043L127.197 53.7565C127.197 53.7481 127.199 53.7398 127.202 53.7322C127.206 53.7246 127.211 53.7179 127.217 53.7126C127.224 53.7073 127.231 53.7035 127.24 53.7016C127.248 53.6996 127.256 53.6996 127.264 53.7014H127.623C127.641 53.6386 127.579 53.5779 127.519 53.5529C127.458 53.5278 127.385 53.5047 127.354 53.4463C127.291 53.325 127.452 53.1556 127.385 53.0512C127.318 52.9468 127.169 53.0457 127.065 53.098Z" fill="#0D9488"/>
<path opacity="0.2" d="M120.243 52.3311C120.231 52.3393 120.218 52.3437 120.203 52.3438C120.191 52.3413 120.179 52.3355 120.169 52.327C120.16 52.3186 120.153 52.3077 120.148 52.2955C120.093 52.1702 120.126 52.0071 120.036 51.9005C119.948 52.0098 119.878 52.1317 119.827 52.2622L119.488 52.1578C119.472 52.2236 119.47 52.2919 119.481 52.3587C119.492 52.4254 119.516 52.4893 119.552 52.5465C119.493 52.5721 119.439 52.6091 119.394 52.6553C119.371 52.6785 119.355 52.7075 119.347 52.7393C119.34 52.7711 119.341 52.8043 119.352 52.8352C119.43 52.8542 119.51 52.8619 119.589 52.8581C119.577 53.0078 119.586 53.1585 119.617 53.3055C119.619 53.3265 119.629 53.346 119.644 53.3606C119.658 53.3658 119.673 53.3671 119.688 53.3646C119.702 53.362 119.716 53.3556 119.727 53.346C119.845 53.2737 119.941 53.1713 120.006 53.0493L120.131 53.3523C120.14 53.383 120.16 53.4096 120.186 53.4275C120.205 53.4337 120.226 53.4333 120.245 53.4265C120.265 53.4197 120.281 53.4068 120.292 53.3898C120.313 53.3554 120.325 53.3167 120.328 53.2768L120.376 52.9884C120.376 52.9801 120.377 52.9718 120.381 52.9642C120.384 52.9566 120.389 52.9499 120.396 52.9446C120.402 52.9393 120.41 52.9355 120.418 52.9335C120.426 52.9316 120.434 52.9315 120.443 52.9333H120.8C120.821 52.8705 120.758 52.8121 120.697 52.7848C120.637 52.7575 120.562 52.7366 120.533 52.6782C120.47 52.557 120.631 52.3876 120.562 52.2831C120.493 52.1787 120.347 52.2807 120.243 52.3311Z" fill="#0D9488"/>
<path opacity="0.3" d="M118.105 53.2653C118.092 53.2723 118.077 53.2767 118.063 53.2779C118.038 53.2779 118.021 53.2504 118.008 53.2278C117.953 53.1025 117.985 52.9394 117.895 52.8347C117.807 52.9437 117.737 53.0657 117.687 53.1964L117.347 53.092C117.332 53.1578 117.329 53.2261 117.34 53.2928C117.351 53.3596 117.376 53.4234 117.412 53.4807C117.352 53.5061 117.298 53.5431 117.253 53.5895C117.23 53.6126 117.214 53.6417 117.207 53.6735C117.199 53.7053 117.201 53.7385 117.211 53.7694C117.289 53.7884 117.369 53.7961 117.449 53.7923C117.437 53.9412 117.446 54.0911 117.476 54.2375C117.477 54.2482 117.48 54.2587 117.485 54.2682C117.49 54.2777 117.497 54.286 117.506 54.2926C117.531 54.3094 117.56 54.2926 117.588 54.2799C117.705 54.2071 117.801 54.1048 117.867 53.9832L117.992 54.2843C118.001 54.3159 118.02 54.3434 118.047 54.3617C118.067 54.3682 118.088 54.368 118.107 54.3611C118.126 54.3543 118.142 54.3412 118.153 54.324C118.173 54.2885 118.186 54.2495 118.191 54.2091L118.237 53.9226C118.237 53.9142 118.238 53.9059 118.242 53.8984C118.245 53.8908 118.251 53.8841 118.257 53.8787C118.263 53.8734 118.271 53.8697 118.279 53.8677C118.287 53.8658 118.296 53.8657 118.304 53.8675H118.662C118.681 53.8047 118.618 53.7441 118.558 53.7171C118.498 53.6901 118.425 53.6711 118.393 53.6127C118.331 53.4892 118.491 53.322 118.422 53.2176C118.353 53.1132 118.209 53.2129 118.105 53.2653Z" fill="#0D9488"/>
<path opacity="0.2" d="M116.108 47.6153C116.096 47.6228 116.082 47.6265 116.068 47.6257C116.043 47.6257 116.025 47.6007 116.014 47.5775C115.959 47.4522 115.991 47.2891 115.901 47.1825C115.813 47.2917 115.743 47.4137 115.692 47.5442L115.353 47.4398C115.337 47.5056 115.335 47.5739 115.346 47.6407C115.357 47.7074 115.381 47.7713 115.417 47.8285C115.358 47.8541 115.304 47.8911 115.259 47.9373C115.236 47.9605 115.22 47.9895 115.212 48.0213C115.205 48.0531 115.207 48.0863 115.217 48.1172C115.295 48.136 115.375 48.1444 115.455 48.1423C115.442 48.2912 115.451 48.4412 115.482 48.5875C115.484 48.6085 115.494 48.628 115.509 48.6426C115.534 48.6594 115.568 48.6426 115.592 48.628C115.71 48.5565 115.806 48.4547 115.871 48.3332L115.996 48.6343C116.005 48.665 116.025 48.6916 116.051 48.7095C116.07 48.7155 116.091 48.7153 116.11 48.7089C116.129 48.7026 116.146 48.6903 116.157 48.674C116.178 48.6388 116.19 48.5996 116.193 48.5591L116.241 48.2726C116.242 48.2572 116.248 48.2426 116.257 48.2307C116.272 48.2204 116.29 48.2152 116.307 48.2161H116.664C116.685 48.1514 116.623 48.0927 116.562 48.0657C116.502 48.0387 116.427 48.0175 116.398 47.9591C116.335 47.8379 116.496 47.6685 116.427 47.564C116.358 47.4596 116.212 47.5693 116.108 47.6153Z" fill="#0D9488"/>
<path opacity="0.3" d="M120.039 54.9898C120.031 54.9955 120.021 54.9991 120.011 55.0002C120.001 55.0014 119.991 55 119.982 54.9963C119.973 54.9925 119.964 54.9865 119.958 54.9788C119.952 54.9711 119.947 54.9619 119.945 54.9521C119.887 54.8267 119.92 54.6636 119.831 54.557C119.743 54.6663 119.673 54.7883 119.622 54.9187L119.285 54.8143C119.269 54.88 119.266 54.9483 119.277 55.015C119.287 55.0818 119.311 55.1457 119.347 55.203C119.288 55.2297 119.235 55.2665 119.189 55.3119C119.166 55.335 119.15 55.3641 119.142 55.3958C119.135 55.4276 119.137 55.4608 119.147 55.4918C119.225 55.511 119.306 55.5187 119.387 55.5146C119.374 55.6642 119.383 55.8148 119.412 55.962C119.414 55.9835 119.424 56.0033 119.441 56.0171C119.455 56.0226 119.47 56.0242 119.484 56.0216C119.499 56.019 119.512 56.0124 119.523 56.0025C119.64 55.9304 119.737 55.8288 119.803 55.7077L119.928 56.0088C119.937 56.0396 119.956 56.0661 119.983 56.0841C120.002 56.0905 120.023 56.0903 120.042 56.0835C120.061 56.0767 120.078 56.0636 120.089 56.0463C120.108 56.0103 120.119 55.9702 120.12 55.9292L120.166 55.6408C120.168 55.6264 120.174 55.6127 120.183 55.6011C120.197 55.5899 120.215 55.5846 120.233 55.5865H120.591C120.612 55.5237 120.548 55.4653 120.487 55.438C120.427 55.4108 120.354 55.3901 120.322 55.3314C120.26 55.2102 120.422 55.0408 120.354 54.9364C120.285 54.832 120.143 54.9377 120.039 54.9898Z" fill="#0D9488"/>
</g>
<g opacity="0.8">
<path opacity="0.5" d="M22.2241 87.3946C21.7176 86.7059 20.6713 87.453 21.1443 88.166C21.2674 88.3541 21.4028 88.5338 21.5319 88.7073C23.0887 90.8165 23.8941 93.3771 24.5893 95.9066C24.7601 96.5337 24.9249 97.1923 24.731 97.8048C24.9742 96.1483 24.8641 94.459 24.408 92.8485C23.9552 91.2405 23.3704 89.6729 22.6594 88.1619C22.5413 87.8916 22.3955 87.6344 22.2241 87.3946Z" fill="#0D9488"/>
<path d="M12.1199 91.8242C11.0778 91.7908 10.9361 93.3898 11.9826 93.4735C12.2573 93.4945 12.5319 93.5011 12.7975 93.5091C16.0134 93.5969 19.0502 94.7634 21.9785 96.0174C22.6954 96.3268 23.4376 96.6739 23.8689 97.3342C22.5504 95.8019 20.8156 94.6793 18.9708 93.8537C17.1261 93.0281 15.1589 92.4867 13.1933 91.9724C12.8421 91.8834 12.4821 91.8337 12.1199 91.8242Z" fill="#0D9488"/>
<path opacity="0.2" d="M12.4097 95.7568C11.7469 95.7796 11.8969 96.7268 12.5641 96.7309C12.7391 96.7309 12.9143 96.7309 13.081 96.7182C15.109 96.6356 17.1869 97.197 19.2024 97.8136C19.7123 97.9272 20.1858 98.1664 20.5802 98.5097C19.51 97.681 18.297 97.0568 17.0017 96.6681C15.7265 96.2875 14.4253 96.0003 13.1085 95.8088C12.878 95.7674 12.6438 95.75 12.4097 95.7568Z" fill="#0D9488"/>
<path opacity="0.5" d="M25.9863 113.328C26.1739 113.968 27.0493 113.587 26.8889 112.937C26.8472 112.768 26.7972 112.6 26.7494 112.439C26.1657 110.489 26.1929 108.33 26.2888 106.218C26.2725 105.696 26.3858 105.177 26.6184 104.709C26.0841 105.954 25.7825 107.287 25.7284 108.641C25.6763 109.976 25.7216 111.312 25.8638 112.64C25.8819 112.873 25.9232 113.104 25.9869 113.329L25.9863 113.328Z" fill="#0D9488"/>
<path opacity="0.2" d="M13.6186 86.502C13.2206 86.4332 13.1893 87.0164 13.5873 87.104C13.6914 87.1268 13.7957 87.1459 13.8979 87.1624C15.1194 87.3715 16.2876 87.9715 17.4138 88.5963C17.704 88.7295 17.9567 88.9327 18.1496 89.1878C17.6149 88.5562 16.9693 88.0284 16.2447 87.6304C15.5311 87.2414 14.7908 86.904 14.0292 86.6208C13.8963 86.5684 13.7588 86.5285 13.6186 86.5015V86.502Z" fill="#0D9488"/>
<path d="M7.45319 101.965C6.44019 102.488 7.29691 103.923 8.33683 103.447C8.60986 103.321 8.87464 103.181 9.12872 103.049C12.226 101.438 15.8212 100.846 19.3601 100.389C20.2272 100.278 21.1526 100.179 21.9571 100.524C19.7666 99.8974 17.4365 99.8533 15.1834 100.106C12.9302 100.359 10.74 100.942 8.5703 101.534C8.1843 101.639 7.80999 101.783 7.45319 101.965Z" fill="#0D9488"/>
<path opacity="0.5" d="M10.3482 107.552C9.61868 108.234 10.7652 109.038 11.5194 108.388C11.7279 108.217 11.9092 108.035 12.0927 107.865C14.3101 105.774 17.2428 104.29 20.1626 102.919C20.8795 102.582 23.8287 102.24 24.6165 102.258C22.5594 102.442 18.3638 103.094 16.488 103.93C14.6568 104.803 12.8867 105.8 11.1901 106.913C10.8901 107.099 10.6082 107.313 10.3482 107.552Z" fill="#0D9488"/>
<path d="M15.542 116.474C15.3335 117.448 16.7196 117.462 16.978 116.488C17.0448 116.233 17.0989 115.976 17.1511 115.732C17.793 112.749 19.3625 109.851 20.988 107.061C21.3882 106.375 23.6202 104.41 24.2789 103.977C22.6907 105.303 19.5998 108.227 18.5453 109.993C17.5336 111.756 16.6416 113.585 15.8755 115.468C15.7327 115.792 15.621 116.129 15.542 116.474Z" fill="#0D9488"/>
<path d="M25.9965 82.2254C25.5004 81.2116 24.0831 82.0455 24.5374 83.0865C24.656 83.3582 24.7876 83.6237 24.9145 83.8788C26.4401 86.9767 26.9655 90.568 27.3591 94.0821C27.455 94.9474 27.5363 95.8672 27.1861 96.6615C27.7838 94.4726 27.9553 92.1886 27.6915 89.9346C27.4717 87.6916 26.9433 85.5136 26.3931 83.3416C26.2991 82.957 26.1662 82.583 25.9965 82.2254Z" fill="#0D9488"/>
<path d="M18.0974 83.9518C18.1234 83.9671 18.1527 83.9757 18.1828 83.9769C18.2378 83.9769 18.2765 83.9218 18.2996 83.8703C18.4226 83.6006 18.3518 83.2433 18.5435 83.0342C18.7372 83.2676 18.8933 83.53 19.006 83.8119L19.7334 83.5863C19.7673 83.7278 19.7727 83.8747 19.7491 84.0183C19.7255 84.1619 19.6735 84.2993 19.596 84.4224C19.7232 84.479 19.839 84.5583 19.9377 84.6565C19.9867 84.7063 20.021 84.7686 20.0368 84.8367C20.0526 84.9048 20.0493 84.9759 20.0273 85.0422C19.8595 85.0829 19.6869 85.0998 19.5145 85.0924C19.5421 85.4132 19.5236 85.7363 19.4595 86.0519C19.4578 86.0753 19.4514 86.0981 19.4406 86.1189C19.4298 86.1398 19.415 86.1582 19.3969 86.1731C19.3447 86.2086 19.2738 86.1731 19.2197 86.1439C18.9696 85.9903 18.7635 85.7743 18.6215 85.5169L18.3444 86.1398C18.3247 86.2062 18.2817 86.2633 18.2235 86.3007C18.1825 86.3152 18.1377 86.3154 18.0965 86.3014C18.0553 86.2874 18.02 86.2598 17.9963 86.2232C17.9519 86.1475 17.9249 86.0628 17.9172 85.9753L17.8151 85.3483C17.8139 85.3161 17.8022 85.2852 17.7818 85.2604C17.7514 85.2373 17.7136 85.2261 17.6755 85.229H16.9031C16.8595 85.0913 16.9949 84.9634 17.1262 84.907C17.2575 84.8505 17.4137 84.8045 17.4805 84.6769C17.614 84.4158 17.272 84.0499 17.4138 83.8282C17.5931 83.5797 17.8724 83.8411 18.0974 83.9518Z" fill="#0D9488"/>
<path opacity="0.5" d="M32.1428 87.3946C32.6493 86.7059 33.6934 87.453 33.2226 88.166C33.0976 88.3541 32.9641 88.5338 32.835 88.7073C31.2782 90.8165 30.4728 93.3771 29.7754 95.9066C29.6046 96.5337 29.4398 97.1923 29.6359 97.8048C29.3927 96.1483 29.5028 94.459 29.9589 92.8485C30.4146 91.2438 30.9987 89.6786 31.7056 88.1682C31.8248 87.8961 31.9712 87.6369 32.1428 87.3946Z" fill="#0D9488"/>
<path d="M42.2449 91.8242C43.287 91.7908 43.4288 93.3898 42.3823 93.4735C42.1092 93.4945 41.8329 93.5011 41.5695 93.5091C38.3514 93.5969 35.3168 94.7634 32.3885 96.0174C31.6716 96.3268 30.917 96.6739 30.4982 97.3342C31.8166 95.8019 33.5495 94.6793 35.3962 93.8537C37.2674 93.069 39.1997 92.4397 41.1737 91.9724C41.5242 91.8835 41.8835 91.834 42.2449 91.8242Z" fill="#0D9488"/>
<path opacity="0.5" d="M41.9554 95.7568C42.6204 95.7796 42.4701 96.7268 41.8032 96.7309C41.6283 96.7309 41.453 96.7309 41.2863 96.7182C39.2562 96.6356 37.1804 97.197 35.1649 97.8136C34.6549 97.9267 34.1813 98.1661 33.7871 98.5097C34.8573 97.681 36.0703 97.0568 37.3656 96.6681C38.6442 96.2856 39.9488 95.997 41.2693 95.8047C41.4959 95.7653 41.726 95.7492 41.9559 95.7565L41.9554 95.7568Z" fill="#0D9488"/>
<path opacity="0.2" d="M40.7484 86.502C41.1464 86.4332 41.1778 87.0164 40.7798 87.104C40.6757 87.1268 40.5713 87.1459 40.4691 87.1624C39.2479 87.3715 38.0764 87.9715 36.9511 88.5963C36.6615 88.7296 36.4095 88.9328 36.2174 89.1878C36.7514 88.5563 37.3964 88.0284 38.1203 87.6304C38.8349 87.2418 39.576 86.9044 40.3381 86.6208C40.471 86.5684 40.6085 86.5285 40.7487 86.5015L40.7484 86.502Z" fill="#0D9488"/>
<path opacity="0.2" d="M30.3504 114.538C30.2608 114.936 29.7126 114.748 29.7857 114.329C29.8043 114.225 29.8293 114.12 29.8524 114.02C30.1296 112.81 30.0296 111.495 29.8878 110.213C29.8775 109.894 29.788 109.582 29.6274 109.306C30.0023 110.043 30.239 110.843 30.3257 111.666C30.4093 112.477 30.4337 113.293 30.3987 114.108C30.3975 114.253 30.3813 114.397 30.3504 114.538Z" fill="#0D9488"/>
<path opacity="0.5" d="M40.4922 111.902C40.8048 112.433 40.0379 112.398 39.7003 111.867C39.6127 111.729 39.5314 111.589 39.4531 111.449C38.5028 109.828 37.0582 108.225 35.6016 106.676C35.2566 106.275 34.8542 105.927 34.4073 105.644C35.5433 106.421 36.5916 107.321 37.5337 108.326C38.4676 109.306 39.2916 110.328 40.1014 111.348C40.2442 111.524 40.3748 111.709 40.4922 111.902Z" fill="#0D9488"/>
<path opacity="0.2" d="M12.7451 111.902C12.4325 112.433 13.1994 112.398 13.5351 111.867C13.6246 111.729 13.7059 111.589 13.7823 111.449C14.7327 109.828 16.1772 108.225 17.6338 106.676C17.9782 106.274 18.3807 105.926 18.8278 105.644C17.6914 106.421 16.643 107.32 15.7014 108.326C14.7675 109.306 13.9402 110.328 13.1338 111.348C12.9913 111.524 12.8611 111.709 12.744 111.902H12.7451Z" fill="#0D9488"/>
<path opacity="0.2" d="M22.8932 114.538C22.9827 114.936 23.531 114.748 23.4579 114.329C23.4392 114.225 23.4142 114.12 23.3911 114.02C23.114 112.81 23.214 111.495 23.3557 110.213C23.3661 109.894 23.4557 109.582 23.6164 109.306C23.2448 110.046 23.012 110.848 22.9297 111.672C22.8461 112.483 22.8217 113.299 22.8566 114.114C22.8547 114.256 22.8674 114.398 22.8943 114.538L22.8932 114.538Z" fill="#0D9488"/>
<path opacity="0.2" d="M37.5513 90.4842C37.9493 90.4131 37.9806 90.9963 37.5826 91.0861C37.4785 91.109 37.3741 91.1258 37.272 91.1412C36.0508 91.3503 34.8823 91.9523 33.7539 92.5774C33.4644 92.7098 33.2123 92.9124 33.0203 93.1669C33.5545 92.5355 34.2002 92.0083 34.9251 91.6118C35.6379 91.221 36.3784 90.8836 37.1407 90.6021C37.273 90.5483 37.4106 90.5088 37.5513 90.4842Z" fill="#0D9488"/>
<path opacity="0.2" d="M33.8228 82.6661C34.1667 82.457 34.4125 82.9819 34.075 83.2138C33.9874 83.2744 33.8959 83.3287 33.8102 83.3832C32.7535 84.0353 31.8927 85.0304 31.0818 86.0337C30.8613 86.2639 30.7028 86.5466 30.6212 86.8552C30.8813 86.0692 31.2833 85.3379 31.8073 84.6979C32.3239 84.0691 32.8853 83.4787 33.4872 82.9314C33.5901 82.8321 33.7025 82.7434 33.8228 82.6661Z" fill="#0D9488"/>
<path d="M46.9136 101.965C47.9266 102.488 47.0699 103.923 46.03 103.447C45.757 103.321 45.4902 103.181 45.2381 103.049C42.1408 101.438 38.5437 100.846 35.0067 100.389C34.1396 100.278 33.2142 100.179 32.4097 100.524C34.598 99.8974 36.9303 99.8533 39.1834 100.106C41.4366 100.359 43.6268 100.942 45.7965 101.534C46.1824 101.639 46.5567 101.784 46.9136 101.965Z" fill="#0D9488"/>
<path opacity="0.5" d="M44.0188 107.552C44.7461 108.234 43.6018 109.038 42.8453 108.388C42.6473 108.217 42.4556 108.035 42.2743 107.865C40.0546 105.774 37.1222 104.29 34.2043 102.919C33.4874 102.582 30.5361 102.24 29.7505 102.258C31.8075 102.442 36.0032 103.094 37.8789 103.93C39.7108 104.803 41.4815 105.8 43.1788 106.913C43.4782 107.1 43.7594 107.314 44.0188 107.553V107.552Z" fill="#0D9488"/>
<path d="M35.4338 117.586C35.5233 118.578 34.1395 118.422 34.0055 117.421C33.97 117.16 33.9505 116.897 33.9283 116.647C33.6635 113.608 32.4692 110.537 31.2043 107.563C30.8937 106.833 28.9245 104.605 28.3241 104.091C29.7351 105.605 32.4363 108.899 33.2617 110.781C34.0452 112.656 34.7011 114.582 35.225 116.546C35.3263 116.885 35.396 117.233 35.4335 117.585L35.4338 117.586Z" fill="#0D9488"/>
<path d="M36.2674 83.9518C36.2414 83.9671 36.212 83.9757 36.182 83.9769C36.127 83.9769 36.0883 83.9218 36.0652 83.8703C35.9402 83.6006 36.013 83.2433 35.8213 83.0342C35.6274 83.2676 35.4713 83.53 35.3585 83.8119L34.6311 83.5863C34.5967 83.7277 34.5911 83.8747 34.6147 84.0184C34.6383 84.1621 34.6906 84.2995 34.7685 84.4224C34.6407 84.4789 34.5241 84.5582 34.4246 84.6565C34.3761 84.7066 34.3423 84.769 34.3269 84.8371C34.3114 84.9051 34.3149 84.9761 34.337 85.0422C34.5047 85.083 34.6773 85.0999 34.8498 85.0924C34.8232 85.4132 34.8417 85.7362 34.9047 86.0519C34.9091 86.0989 34.9316 86.1424 34.9673 86.1731C35.0223 86.2086 35.0923 86.1731 35.1467 86.1439C35.3969 85.9903 35.603 85.7743 35.7449 85.5169L36.0158 86.1648C36.0348 86.2316 36.0779 86.289 36.1366 86.3257C36.1773 86.3406 36.2219 86.341 36.2629 86.3269C36.3039 86.3128 36.3388 86.2851 36.3619 86.2483C36.4082 86.1732 36.4364 86.0883 36.4443 86.0004L36.5442 85.3734C36.5471 85.3412 36.5594 85.3106 36.5797 85.2855C36.6101 85.2623 36.6479 85.2512 36.686 85.2541H37.457C37.5007 85.1163 37.3633 84.9885 37.2318 84.932C37.1002 84.8756 36.9461 84.8295 36.8796 84.702C36.7461 84.4408 37.0881 84.075 36.9442 83.8532C36.7739 83.5797 36.4948 83.8411 36.2674 83.9518Z" fill="#0D9488"/>
<path opacity="0.2" d="M38.4643 114.007C38.4383 114.023 38.409 114.031 38.3789 114.032C38.324 114.032 38.2852 113.977 38.2621 113.928C38.1391 113.656 38.2099 113.301 38.0182 113.079C37.8248 113.313 37.6687 113.575 37.5554 113.857L36.8281 113.631C36.7941 113.773 36.7887 113.92 36.8123 114.063C36.8359 114.207 36.888 114.344 36.9654 114.467C36.8383 114.524 36.7225 114.603 36.6237 114.702C36.5747 114.751 36.5404 114.814 36.5246 114.882C36.5088 114.95 36.5121 115.021 36.5342 115.087C36.7018 115.129 36.8745 115.146 37.047 115.14C37.0194 115.46 37.0378 115.782 37.1019 116.097C37.1036 116.121 37.11 116.144 37.1207 116.165C37.1315 116.186 37.1464 116.205 37.1645 116.22C37.2167 116.254 37.2876 116.22 37.3417 116.189C37.5919 116.035 37.798 115.819 37.94 115.562L38.2108 116.21C38.231 116.277 38.2737 116.334 38.3316 116.373C38.373 116.385 38.4171 116.384 38.4578 116.369C38.4985 116.355 38.5337 116.329 38.5588 116.294C38.6032 116.218 38.6302 116.133 38.6379 116.046L38.7401 115.429C38.7389 115.411 38.7419 115.394 38.7489 115.377C38.7559 115.361 38.7666 115.346 38.7802 115.335C38.7938 115.324 38.8099 115.316 38.8272 115.312C38.8444 115.308 38.8624 115.308 38.8796 115.312C39.1359 115.312 39.3944 115.302 39.6506 115.312C39.6943 115.174 39.5589 115.049 39.4276 114.99C39.2963 114.931 39.14 114.89 39.0733 114.76C38.9398 114.501 39.2817 114.133 39.14 113.913C38.9769 113.635 38.6884 113.897 38.4643 114.007Z" fill="#0D9488"/>
<path d="M44.6315 93.8603C44.6053 93.8768 44.5749 93.8854 44.5439 93.8854C44.489 93.8854 44.4522 93.8303 44.4294 93.781C44.3044 93.5113 44.3745 93.154 44.1855 92.9322C43.9918 93.1664 43.8358 93.4294 43.7229 93.7118L42.9956 93.484C42.961 93.6254 42.9554 93.7724 42.979 93.9161C43.0026 94.0598 43.0549 94.1972 43.1329 94.3201C43.0048 94.3761 42.8882 94.4555 42.789 94.5543C42.741 94.6046 42.7074 94.667 42.6916 94.7348C42.6759 94.8027 42.6786 94.8735 42.6995 94.9399C42.8678 94.9813 43.0411 94.9989 43.2142 94.9923C43.1876 95.3124 43.2061 95.6347 43.2692 95.9496C43.2734 95.9973 43.2959 96.0415 43.3318 96.073C43.3867 96.1064 43.4548 96.073 43.509 96.0438C43.7595 95.8902 43.9662 95.6742 44.1091 95.4168L44.378 96.0648C44.3976 96.1319 44.4405 96.1897 44.4989 96.2279C44.5402 96.2419 44.5849 96.2417 44.626 96.2273C44.6672 96.2129 44.7024 96.1852 44.726 96.1485C44.7727 96.0736 44.801 95.9886 44.8084 95.9006L44.9084 95.2736C44.9112 95.2424 44.9227 95.2127 44.9417 95.1879C44.9725 95.1639 45.0113 95.1526 45.0501 95.1565H45.8192C45.8651 95.0207 45.7275 94.8931 45.5962 94.8344C45.4649 94.7758 45.3086 94.7342 45.2441 94.6066C45.1106 94.3454 45.4526 93.9796 45.3086 93.7578C45.1359 93.4881 44.8546 93.7496 44.6315 93.8603Z" fill="#0D9488"/>
<path d="M19.9786 117.021C19.9427 117.043 19.9019 117.055 19.86 117.057C19.7828 117.057 19.7287 116.98 19.6974 116.908C19.5243 116.534 19.6243 116.045 19.3576 115.729C19.088 116.055 18.8707 116.42 18.7135 116.812L17.6972 116.499C17.6502 116.696 17.643 116.9 17.676 117.1C17.709 117.3 17.7816 117.492 17.8894 117.663C17.7112 117.741 17.5492 117.851 17.4121 117.989C17.3444 118.059 17.2969 118.146 17.2749 118.24C17.2529 118.335 17.2571 118.434 17.2871 118.526C17.5215 118.584 17.7628 118.609 18.004 118.6C17.966 119.046 17.992 119.496 18.0812 119.936C18.0864 120.001 18.1171 120.062 18.1666 120.105C18.2076 120.122 18.2525 120.126 18.2961 120.119C18.3397 120.112 18.3804 120.092 18.4138 120.063C18.7646 119.846 19.0522 119.541 19.2474 119.177L19.6246 120.08C19.6514 120.173 19.7115 120.254 19.7935 120.305C19.8508 120.326 19.9132 120.326 19.9706 120.306C20.028 120.286 20.0772 120.248 20.1102 120.197C20.172 120.092 20.2095 119.975 20.22 119.854L20.3618 118.995C20.3634 118.95 20.3795 118.906 20.4077 118.871C20.4509 118.839 20.5042 118.825 20.5576 118.829C20.9161 118.829 21.2745 118.815 21.6311 118.829C21.6937 118.637 21.502 118.462 21.3204 118.38C21.1388 118.299 20.9202 118.24 20.8285 118.062C20.6409 117.699 21.1246 117.193 20.918 116.879C20.6799 116.503 20.2901 116.869 19.9786 117.021Z" fill="#0D9488"/>
<path d="M9.72129 94.4623C9.68461 94.4841 9.64305 94.4963 9.60043 94.4978C9.52544 94.4978 9.47134 94.4204 9.43783 94.3493C9.26698 93.973 9.36476 93.4859 9.10025 93.1683C8.83007 93.4941 8.61212 93.8601 8.45422 94.2532L7.44122 93.9375C7.39323 94.1348 7.38551 94.3399 7.41855 94.5404C7.4516 94.7408 7.5247 94.9325 7.63348 95.1039C7.45497 95.1809 7.2929 95.2916 7.1561 95.43C7.08779 95.4993 7.03995 95.5861 7.01789 95.6809C6.99583 95.7758 7.0004 95.8749 7.03112 95.9672C7.26561 96.0243 7.50693 96.0483 7.74803 96.0383C7.71028 96.4849 7.73551 96.9346 7.823 97.3742C7.82529 97.4072 7.83425 97.4394 7.84931 97.4689C7.86437 97.4983 7.88523 97.5244 7.91063 97.5455C7.98562 97.5937 8.08149 97.5455 8.15785 97.5036C8.50816 97.2864 8.79558 96.9808 8.99148 96.6174L9.3686 97.5204C9.39651 97.6128 9.45542 97.6926 9.53533 97.7463C9.59264 97.7664 9.65502 97.7666 9.71245 97.7469C9.76988 97.7272 9.81905 97.6886 9.85204 97.6375C9.91475 97.5332 9.95323 97.4161 9.96464 97.2948L10.1042 96.4336C10.1078 96.3894 10.1244 96.3472 10.152 96.3124C10.1947 96.2796 10.2484 96.2646 10.302 96.2706C10.659 96.2706 11.0161 96.256 11.3754 96.2579C11.4358 96.0678 11.2463 95.8901 11.0628 95.8105C10.8793 95.7309 10.6626 95.6683 10.5709 95.4907C10.3855 95.127 10.867 94.6231 10.6626 94.3096C10.4236 93.9438 10.0339 94.3055 9.72129 94.4623Z" fill="#0D9488"/>
<path opacity="0.2" d="M40.8526 108.432C40.8339 108.444 40.8122 108.451 40.7899 108.451C40.7482 108.451 40.7213 108.409 40.7023 108.374C40.6106 108.164 40.665 107.914 40.5232 107.747C40.3795 107.919 40.2642 108.113 40.1815 108.321L39.6418 108.154C39.6149 108.26 39.6101 108.371 39.6277 108.478C39.6452 108.586 39.6848 108.689 39.744 108.781C39.6495 108.823 39.5633 108.882 39.4896 108.955C39.4541 108.992 39.4293 109.039 39.4179 109.089C39.4065 109.14 39.409 109.192 39.4251 109.241C39.5493 109.271 39.6769 109.283 39.8044 109.279C39.7839 109.516 39.7979 109.755 39.8461 109.988C39.8472 110.005 39.8519 110.023 39.8598 110.038C39.8676 110.054 39.8786 110.068 39.892 110.08C39.9316 110.105 39.9838 110.08 40.0233 110.057C40.2091 109.941 40.3614 109.779 40.4653 109.587L40.6737 110.065C40.6887 110.115 40.7203 110.158 40.7633 110.187C40.7939 110.197 40.8271 110.197 40.8577 110.186C40.8883 110.176 40.9145 110.155 40.9322 110.128C40.9654 110.073 40.9853 110.011 40.9904 109.946L41.0654 109.488C41.0645 109.475 41.0667 109.462 41.0719 109.45C41.0771 109.438 41.0852 109.427 41.0954 109.418C41.1057 109.41 41.1178 109.404 41.1307 109.401C41.1437 109.399 41.1571 109.399 41.1698 109.403H41.7409C41.7741 109.3 41.6722 109.206 41.5761 109.164C41.4728 109.137 41.3808 109.078 41.3135 108.995C41.2154 108.801 41.472 108.533 41.3615 108.368C41.2511 108.203 41.011 108.351 40.8526 108.432Z" fill="#0D9488"/>
<path opacity="0.2" d="M26.9114 116.501C26.8921 116.513 26.8697 116.52 26.8469 116.52C26.8073 116.52 26.7782 116.478 26.7615 116.44C26.6697 116.242 26.7219 115.983 26.5821 115.813C26.4381 115.986 26.3221 116.181 26.2382 116.39L25.7004 116.223C25.6736 116.329 25.6689 116.439 25.6865 116.547C25.704 116.655 25.7436 116.758 25.8026 116.85C25.7076 116.891 25.6213 116.95 25.5482 117.024C25.5119 117.061 25.4864 117.107 25.4747 117.157C25.4629 117.208 25.4652 117.261 25.4815 117.31C25.6064 117.339 25.7347 117.352 25.863 117.348C25.8426 117.585 25.856 117.823 25.9026 118.056C25.9038 118.074 25.9085 118.091 25.9164 118.106C25.9243 118.121 25.9352 118.135 25.9484 118.146C25.988 118.174 26.0402 118.146 26.0797 118.125C26.2662 118.01 26.4192 117.848 26.5236 117.655L26.7321 118.134C26.747 118.183 26.7787 118.226 26.8216 118.255C26.8522 118.265 26.8855 118.265 26.916 118.255C26.9466 118.244 26.9728 118.224 26.9905 118.197C27.0237 118.141 27.0436 118.079 27.0488 118.015L27.1238 117.557C27.1254 117.533 27.1341 117.511 27.1488 117.492C27.172 117.476 27.1997 117.468 27.2279 117.469H27.7989C27.8302 117.367 27.7302 117.273 27.6322 117.231C27.5291 117.205 27.4375 117.145 27.3718 117.062C27.2718 116.867 27.5281 116.6 27.4199 116.435C27.3116 116.27 27.0782 116.418 26.9114 116.501Z" fill="#0D9488"/>
<path opacity="0.5" d="M13.4265 88.2602C13.4077 88.2721 13.3861 88.2786 13.3639 88.2789C13.3436 88.2753 13.3247 88.2661 13.3093 88.2525C13.2938 88.2389 13.2824 88.2212 13.2763 88.2015C13.1845 87.9924 13.2367 87.7417 13.0972 87.5745C12.9532 87.7469 12.8372 87.9409 12.7533 88.1494L12.2155 87.9822C12.1891 88.0882 12.1845 88.1985 12.2021 88.3063C12.2196 88.4141 12.259 88.5172 12.3177 88.6092C12.2228 88.6497 12.1365 88.7078 12.0633 88.7806C12.0272 88.8177 12.0019 88.864 11.9901 88.9145C11.9783 88.965 11.9806 89.0178 11.9966 89.0671C12.1212 89.0984 12.2497 89.1111 12.3781 89.1048C12.3579 89.3424 12.3712 89.5817 12.4176 89.8156C12.4192 89.833 12.4243 89.8499 12.4325 89.8653C12.4407 89.8807 12.4519 89.8944 12.4654 89.9054C12.505 89.9305 12.555 89.9054 12.5967 89.8845C12.7828 89.7685 12.9352 89.6056 13.0387 89.412L13.2471 89.8927C13.2614 89.9421 13.2933 89.9845 13.3367 90.0117C13.3673 90.0222 13.4005 90.0221 13.4311 90.0115C13.4617 90.001 13.4879 89.9805 13.5056 89.9533C13.5388 89.8981 13.5589 89.8358 13.5641 89.7715L13.6391 89.3159C13.6407 89.2922 13.6494 89.2697 13.6641 89.2511C13.6865 89.2335 13.7149 89.2253 13.7432 89.2283H14.3143C14.3456 89.128 14.2456 89.0338 14.1475 88.99C14.0495 88.9462 13.9391 88.9148 13.8871 88.8205C13.7872 88.6277 14.0456 88.3585 13.9352 88.1935C13.8248 88.0285 13.5932 88.1786 13.4265 88.2602Z" fill="#0D9488"/>
<path opacity="0.5" d="M20.6024 104.174C20.5839 104.187 20.5621 104.193 20.5398 104.193C20.498 104.193 20.4711 104.153 20.4544 104.116C20.3626 103.907 20.4148 103.656 20.2731 103.489C20.1305 103.662 20.0153 103.855 19.9314 104.064L19.3916 103.896C19.3658 104.002 19.3616 104.113 19.3792 104.22C19.3967 104.328 19.4357 104.431 19.4938 104.523C19.3998 104.565 19.3143 104.624 19.2417 104.697C19.2054 104.734 19.1799 104.78 19.1682 104.831C19.1564 104.881 19.1587 104.934 19.1749 104.983C19.299 105.014 19.4267 105.026 19.5542 105.021C19.5347 105.259 19.5488 105.498 19.596 105.732C19.5973 105.749 19.602 105.766 19.6099 105.781C19.6177 105.797 19.6286 105.811 19.6419 105.822C19.6814 105.847 19.7336 105.822 19.7732 105.799C19.9596 105.684 20.1127 105.522 20.217 105.329L20.4255 105.807C20.4393 105.858 20.4712 105.901 20.5151 105.929C20.5453 105.939 20.5783 105.939 20.6086 105.929C20.6389 105.918 20.6647 105.897 20.6818 105.87C20.7157 105.815 20.7364 105.753 20.7422 105.688L20.8172 105.233C20.8172 105.207 20.8271 105.182 20.8447 105.164C20.8556 105.155 20.8682 105.148 20.8818 105.144C20.8955 105.14 20.9097 105.139 20.9238 105.141H21.4926C21.5259 105.041 21.4259 104.945 21.3278 104.903C21.2247 104.877 21.1332 104.817 21.0674 104.733C20.9675 104.54 21.2237 104.271 21.1152 104.106C21.0067 103.941 20.7691 104.093 20.6024 104.174Z" fill="#0D9488"/>
<path opacity="0.5" d="M15.394 97.972C15.3747 97.9826 15.3534 97.989 15.3314 97.9907C15.3115 97.9861 15.2931 97.9764 15.2781 97.9625C15.2631 97.9486 15.2521 97.9309 15.246 97.9114C15.1542 97.7127 15.2064 97.4535 15.0647 97.2844C14.9214 97.4575 14.8061 97.6522 14.723 97.8612L14.1833 97.694C14.1577 97.8001 14.1536 97.9102 14.1711 98.0179C14.1887 98.1256 14.2275 98.2286 14.2854 98.321C14.1906 98.3615 14.1043 98.4196 14.0311 98.4924C13.9955 98.5298 13.9708 98.5762 13.9594 98.6267C13.9481 98.6771 13.9505 98.7297 13.9665 98.7789C14.0904 98.8102 14.2183 98.8229 14.3459 98.8166C14.3264 99.0543 14.3404 99.2936 14.3876 99.5274C14.3889 99.5447 14.3936 99.5615 14.4015 99.5769C14.4094 99.5924 14.4203 99.606 14.4335 99.6172C14.473 99.6423 14.5252 99.6172 14.5648 99.5962C14.751 99.4799 14.904 99.3171 15.0087 99.1238L15.2171 99.6045C15.2308 99.6537 15.262 99.6961 15.3048 99.7238C15.3354 99.7342 15.3686 99.7341 15.3992 99.7236C15.4298 99.713 15.456 99.6925 15.4737 99.6654C15.5076 99.6103 15.5283 99.5481 15.5341 99.4836L15.6072 99.0279C15.6088 99.0043 15.6175 98.9817 15.6322 98.9632C15.6437 98.954 15.6569 98.9473 15.6711 98.9434C15.6852 98.9394 15.7 98.9384 15.7146 98.9403H16.2834C16.3167 98.84 16.2147 98.7458 16.1186 98.702C16.0225 98.6582 15.9101 98.6268 15.856 98.5326C15.758 98.3397 16.0145 98.0706 15.906 97.9056C15.7975 97.7406 15.5608 97.8877 15.394 97.972Z" fill="#0D9488"/>
<path opacity="0.5" d="M37.766 99.4312C37.7475 99.4437 37.7257 99.4502 37.7034 99.45C37.6617 99.45 37.6347 99.4103 37.618 99.3726C37.5262 99.1635 37.5784 98.9128 37.4367 98.7455C37.2933 98.918 37.1779 99.112 37.0947 99.3205L36.555 99.1533C36.5292 99.2593 36.5249 99.3695 36.5425 99.4772C36.5601 99.5849 36.5991 99.688 36.6572 99.7803C36.5627 99.8223 36.4765 99.8811 36.4028 99.9538C36.3673 99.9913 36.3425 100.038 36.3311 100.088C36.3198 100.139 36.3222 100.191 36.3383 100.24C36.4623 100.271 36.59 100.283 36.7176 100.278C36.6981 100.516 36.7122 100.755 36.7594 100.989C36.7606 101.006 36.7653 101.023 36.7732 101.038C36.7811 101.054 36.792 101.068 36.8052 101.079C36.8448 101.104 36.897 101.079 36.9365 101.056C37.123 100.941 37.276 100.779 37.3804 100.586L37.5889 101.064C37.6026 101.114 37.6346 101.158 37.6784 101.186C37.7087 101.196 37.7416 101.196 37.7718 101.185C37.802 101.174 37.8278 101.154 37.8451 101.127C37.8791 101.072 37.8997 101.01 37.9056 100.945L37.9806 100.49C37.9792 100.476 37.9811 100.463 37.9862 100.45C37.9912 100.438 37.9992 100.427 38.0095 100.418C38.0197 100.41 38.032 100.403 38.0451 100.401C38.0582 100.398 38.0718 100.398 38.0847 100.402H38.6538C38.687 100.301 38.5851 100.205 38.489 100.163C38.3857 100.136 38.2937 100.077 38.2264 99.9941C38.1283 99.8012 38.3849 99.5321 38.2764 99.367C38.1679 99.202 37.935 99.3497 37.766 99.4312Z" fill="#0D9488"/>
<path opacity="0.2" d="M26.9115 98.2103C26.8921 98.2224 26.8698 98.2289 26.8469 98.229C26.8074 98.229 26.7783 98.1893 26.7615 98.1516C26.6698 97.9425 26.722 97.6918 26.5822 97.5246C26.4382 97.697 26.3221 97.891 26.2383 98.0995L25.7005 97.9323C25.6741 98.0383 25.6695 98.1486 25.6871 98.2564C25.7046 98.3642 25.744 98.4673 25.8026 98.5593C25.7078 98.5998 25.6215 98.6579 25.5483 98.7307C25.5122 98.7678 25.4869 98.8141 25.4751 98.8646C25.4633 98.9151 25.4655 98.9679 25.4815 99.0172C25.6062 99.0485 25.7347 99.0612 25.8631 99.0549C25.8428 99.2925 25.8562 99.5318 25.9026 99.7657C25.9062 99.8003 25.9226 99.8323 25.9485 99.8555C25.988 99.8805 26.0402 99.8555 26.0798 99.8345C26.2665 99.7189 26.4196 99.5559 26.5236 99.3621L26.7321 99.8428C26.7463 99.8923 26.7782 99.9347 26.8217 99.9621C26.8523 99.9725 26.8855 99.9724 26.9161 99.9619C26.9467 99.9513 26.9729 99.9308 26.9906 99.9037C27.0237 99.8484 27.0437 99.7862 27.0488 99.7219L27.1238 99.2662C27.1254 99.2426 27.1341 99.22 27.1488 99.2015C27.1712 99.1839 27.1996 99.1757 27.2279 99.1786H27.799C27.8303 99.0783 27.7303 98.9841 27.6322 98.9403C27.5342 98.8965 27.4238 98.8651 27.3718 98.7709C27.2719 98.578 27.5281 98.3089 27.4199 98.1439C27.3117 97.9789 27.0782 98.1287 26.9115 98.2103Z" fill="#0D9488"/>
<path opacity="0.3" d="M23.5039 99.6985C23.4846 99.7091 23.4632 99.7154 23.4413 99.7172C23.4213 99.7126 23.403 99.7029 23.388 99.689C23.373 99.675 23.3619 99.6574 23.3558 99.6378C23.2641 99.4288 23.3163 99.18 23.1746 99.0108C23.0308 99.1837 22.9155 99.3784 22.8329 99.5877L22.2931 99.4183C22.2677 99.5244 22.2636 99.6345 22.2812 99.7421C22.2987 99.8498 22.3375 99.9529 22.3953 100.045C22.3005 100.086 22.2142 100.144 22.141 100.217C22.1054 100.254 22.0806 100.301 22.0693 100.351C22.0579 100.401 22.0604 100.454 22.0764 100.503C22.2003 100.534 22.3281 100.547 22.4557 100.541C22.4362 100.779 22.4503 101.018 22.4975 101.252C22.4987 101.269 22.5034 101.286 22.5113 101.301C22.5192 101.317 22.5301 101.33 22.5433 101.341C22.5829 101.367 22.6351 101.341 22.6746 101.321C22.8609 101.204 23.0138 101.041 23.1185 100.848L23.327 101.329C23.3412 101.378 23.3731 101.421 23.4165 101.448C23.4469 101.458 23.4797 101.458 23.5099 101.448C23.5401 101.437 23.5659 101.417 23.5833 101.39C23.6172 101.335 23.6379 101.272 23.6437 101.208L23.7187 100.752C23.7195 100.729 23.7275 100.706 23.7415 100.687C23.753 100.678 23.7662 100.672 23.7804 100.668C23.7945 100.664 23.8093 100.663 23.8239 100.665H24.3927C24.426 100.564 24.3241 100.47 24.2279 100.426C24.1318 100.382 24.0194 100.351 23.9653 100.257C23.8673 100.064 24.1238 99.7949 24.0153 99.6299C23.9068 99.4648 23.6712 99.615 23.5039 99.6985Z" fill="#0D9488"/>
<path opacity="0.2" d="M20.3297 90.7018C20.3103 90.714 20.2879 90.7205 20.2651 90.7206C20.2256 90.7206 20.1964 90.6809 20.1797 90.6432C20.0879 90.4341 20.1401 90.1834 20.0003 90.0162C19.8563 90.1885 19.7403 90.3826 19.6564 90.5911L19.1186 90.4239C19.0917 90.5298 19.0869 90.6402 19.1045 90.7481C19.1221 90.856 19.1617 90.959 19.2208 91.0509C19.1263 91.0929 19.0401 91.1517 18.9664 91.2244C18.9301 91.2614 18.9046 91.3077 18.8929 91.3583C18.8811 91.4088 18.8835 91.4617 18.8997 91.511C19.0245 91.5412 19.1529 91.5539 19.2812 91.5487C19.261 91.7863 19.2743 92.0256 19.3208 92.2595C19.3244 92.2941 19.3408 92.3261 19.3666 92.3493C19.4062 92.3743 19.4584 92.3493 19.4979 92.3264C19.685 92.2121 19.8383 92.0498 19.9418 91.8561L20.1503 92.3349C20.1652 92.3845 20.1969 92.4274 20.2398 92.4562C20.2705 92.4666 20.3037 92.4665 20.3343 92.4559C20.3648 92.4454 20.391 92.4249 20.4087 92.3977C20.4419 92.3425 20.4618 92.2802 20.467 92.2159L20.542 91.7603C20.5433 91.7366 20.5521 91.7139 20.567 91.6955C20.5893 91.6778 20.6177 91.6695 20.6461 91.6727H21.2171C21.2484 91.5702 21.1484 91.4762 21.0504 91.4344C20.9473 91.4083 20.8557 91.3488 20.79 91.2649C20.69 91.0704 20.9463 90.8029 20.8378 90.6379C20.7293 90.4729 20.4964 90.6203 20.3297 90.7018Z" fill="#0D9488"/>
<path opacity="0.3" d="M26.5843 102.445C26.5642 102.456 26.5423 102.462 26.5198 102.464C26.4802 102.464 26.4511 102.422 26.4343 102.385C26.3426 102.186 26.3948 101.927 26.2553 101.758C26.1113 101.931 25.9952 102.125 25.9114 102.335L25.3736 102.167C25.3469 102.273 25.3422 102.384 25.3598 102.492C25.3774 102.599 25.4169 102.702 25.4757 102.794C25.3809 102.835 25.2946 102.893 25.2214 102.966C25.1853 103.003 25.1599 103.049 25.1482 103.1C25.1364 103.15 25.1386 103.203 25.1546 103.252C25.2793 103.284 25.4078 103.296 25.5362 103.29C25.5159 103.528 25.5293 103.767 25.5757 104.001C25.5794 104.035 25.5957 104.067 25.6216 104.091C25.6611 104.116 25.7133 104.091 25.7551 104.07C25.9408 103.953 26.0931 103.79 26.197 103.597L26.4055 104.078C26.4198 104.127 26.4516 104.17 26.4951 104.197C26.5257 104.207 26.5589 104.207 26.5895 104.197C26.6201 104.186 26.6463 104.166 26.664 104.138C26.6972 104.083 26.7172 104.021 26.7225 103.957L26.7975 103.501C26.7991 103.477 26.8078 103.455 26.8225 103.436C26.8449 103.419 26.8732 103.41 26.9016 103.413H27.4718C27.5031 103.313 27.4031 103.219 27.3051 103.175C27.207 103.131 27.0966 103.1 27.0447 103.006C26.9447 102.813 27.201 102.544 27.0927 102.379C26.9845 102.214 26.7511 102.358 26.5843 102.445Z" fill="#0D9488"/>
</g>
<path d="M72.4644 79.2495H62.4215C61.5113 79.2495 60.7734 79.9896 60.7734 80.9025V82.6135C60.7734 83.5264 61.5113 84.2665 62.4215 84.2665H72.4644C73.3746 84.2665 74.1125 83.5264 74.1125 82.6135V80.9025C74.1125 79.9896 73.3746 79.2495 72.4644 79.2495Z" fill="#0D9488"/>
<path d="M177.092 79.2495H175.386C174.476 79.2495 173.738 79.9896 173.738 80.9025V82.6135C173.738 83.5264 174.476 84.2665 175.386 84.2665H177.092C178.002 84.2665 178.74 83.5264 178.74 82.6135V80.9025C178.74 79.9896 178.002 79.2495 177.092 79.2495Z" fill="#E6E6E6"/>
<path d="M169.588 79.2495H167.882C166.972 79.2495 166.234 79.9896 166.234 80.9025V82.6135C166.234 83.5264 166.972 84.2665 167.882 84.2665H169.588C170.499 84.2665 171.236 83.5264 171.236 82.6135V80.9025C171.236 79.9896 170.499 79.2495 169.588 79.2495Z" fill="#E6E6E6"/>
<path d="M162.085 79.2495H160.379C159.469 79.2495 158.731 79.9896 158.731 80.9025V82.6135C158.731 83.5264 159.469 84.2665 160.379 84.2665H162.085C162.996 84.2665 163.733 83.5264 163.733 82.6135V80.9025C163.733 79.9896 162.996 79.2495 162.085 79.2495Z" fill="#E6E6E6"/>
<path d="M135.199 131.091H103.897C102.987 131.091 102.249 131.831 102.249 132.743V134.664C102.249 135.577 102.987 136.317 103.897 136.317H135.199C136.109 136.317 136.847 135.577 136.847 134.664V132.743C136.847 131.831 136.109 131.091 135.199 131.091Z" fill="#E6E6E6"/>
<path d="M135.199 139.661H103.897C102.987 139.661 102.249 140.401 102.249 141.314V143.234C102.249 144.147 102.987 144.887 103.897 144.887H135.199C136.109 144.887 136.847 144.147 136.847 143.234V141.314C136.847 140.401 136.109 139.661 135.199 139.661Z" fill="#E6E6E6"/>
<path d="M124.57 148.232H114.527C113.617 148.232 112.879 148.972 112.879 149.885V151.596C112.879 152.509 113.617 153.249 114.527 153.249H124.57C125.48 153.249 126.218 152.509 126.218 151.596V149.885C126.218 148.972 125.48 148.232 124.57 148.232Z" fill="#0D9488"/>
<path d="M134.024 92.6278H105.489C104.275 92.6278 103.291 93.6145 103.291 94.8317V121.988C103.291 123.206 104.275 124.192 105.489 124.192H134.024C135.238 124.192 136.222 123.206 136.222 121.988V94.8317C136.222 93.6145 135.238 92.6278 134.024 92.6278Z" fill="#0D9488"/>
<path d="M119.328 116.853C119.093 116.853 118.866 116.766 118.69 116.609C118.514 116.453 118.401 116.237 118.373 116.002C118.193 114.498 117.515 113.098 116.449 112.025C115.384 110.96 113.996 110.282 112.504 110.097C112.342 110.081 112.187 110.024 112.053 109.932C111.919 109.84 111.81 109.715 111.737 109.569C111.665 109.423 111.63 109.261 111.637 109.098C111.643 108.935 111.691 108.776 111.775 108.637C112.293 107.743 113.009 106.98 113.868 106.407C114.726 105.834 115.705 105.467 116.727 105.334C117.432 103.679 118.585 102.255 120.055 101.223C121.525 100.191 123.254 99.5916 125.045 99.4935H125.098C126.117 99.4947 127.094 99.9015 127.815 100.624C128.536 101.348 128.942 102.328 128.943 103.35C128.943 103.369 128.943 103.386 128.943 103.403C128.845 105.2 128.248 106.933 127.219 108.407C126.19 109.882 124.77 111.038 123.12 111.745C122.987 112.774 122.618 113.759 122.044 114.622C121.469 115.486 120.704 116.205 119.807 116.723C119.662 116.808 119.496 116.852 119.328 116.853ZM114.292 108.521C115.619 108.941 116.825 109.675 117.81 110.66C118.792 111.648 119.523 112.858 119.942 114.189C120.75 113.334 121.216 112.211 121.251 111.033C121.258 110.839 121.323 110.651 121.437 110.495C121.552 110.338 121.711 110.22 121.894 110.155C123.326 109.653 124.578 108.736 125.49 107.521C126.402 106.305 126.935 104.845 127.02 103.326C127.013 102.823 126.811 102.343 126.457 101.988C126.102 101.632 125.624 101.429 125.123 101.422C123.607 101.507 122.152 102.041 120.939 102.956C119.727 103.872 118.813 105.127 118.312 106.564C118.248 106.747 118.13 106.906 117.974 107.021C117.817 107.136 117.63 107.201 117.437 107.207C116.264 107.243 115.144 107.71 114.292 108.52V108.521Z" fill="#F2F2F2"/>
<path d="M112.56 117.327C112.23 117.327 111.9 117.307 111.572 117.267C111.341 117.244 111.124 117.146 110.954 116.987C110.785 116.829 110.672 116.619 110.634 116.389C110.438 114.977 110.698 113.538 111.376 112.284C112.074 110.994 113.142 109.943 114.441 109.268C114.692 109.134 114.983 109.1 115.258 109.171C115.533 109.242 115.771 109.415 115.925 109.654C115.994 109.771 116.039 109.901 116.056 110.036C116.073 110.171 116.061 110.308 116.023 110.438C115.984 110.568 115.919 110.689 115.831 110.793C115.743 110.897 115.635 110.981 115.513 111.04C114.718 111.439 114.043 112.043 113.557 112.79C113.072 113.536 112.793 114.399 112.749 115.29C113.662 115.273 114.555 115.028 115.349 114.576C116.143 114.125 116.811 113.482 117.294 112.706C117.448 112.467 117.686 112.295 117.961 112.223C118.236 112.152 118.527 112.186 118.778 112.32C118.9 112.38 119.008 112.464 119.096 112.568C119.184 112.672 119.249 112.792 119.288 112.923C119.326 113.053 119.338 113.19 119.321 113.325C119.304 113.46 119.259 113.59 119.19 113.707C118.422 114.963 117.298 115.962 115.962 116.574C114.896 117.071 113.735 117.328 112.56 117.327Z" fill="#F2F2F2"/>
<path d="M123.19 106.778C122.891 106.778 122.599 106.689 122.351 106.523C122.102 106.356 121.909 106.12 121.794 105.843C121.68 105.566 121.65 105.261 121.708 104.967C121.767 104.674 121.911 104.404 122.122 104.192C122.333 103.98 122.602 103.835 122.895 103.777C123.188 103.718 123.492 103.749 123.768 103.863C124.044 103.978 124.28 104.172 124.446 104.421C124.612 104.67 124.701 104.963 124.701 105.263C124.701 105.665 124.542 106.05 124.258 106.334C123.975 106.619 123.591 106.778 123.19 106.778Z" fill="#F2F2F2"/>
</g>
<defs>
<clipPath id="clip0_3045_524">
<rect width="222" height="159" fill="white" transform="translate(7 42)"/>
</clipPath>
</defs>
</svg>
