<svg width="240" height="240" viewBox="0 0 240 240" fill="none" xmlns="http://www.w3.org/2000/svg">
<g clip-path="url(#clip0_2261_2965)">
<path d="M196.631 84.363C196.576 84.3631 196.521 84.3447 196.475 84.3105L120.785 27.8478C120.555 27.6768 120.281 27.5854 120.001 27.5859C119.721 27.5864 119.447 27.6788 119.218 27.8507L44.073 84.3099C44.0135 84.3546 43.94 84.3721 43.8685 84.3587C43.797 84.3452 43.7334 84.3019 43.6917 84.2383C43.65 84.1746 43.6336 84.0958 43.6462 84.0192C43.6587 83.9426 43.6992 83.8745 43.7586 83.8298L118.903 27.3706C119.225 27.13 119.608 27.0007 120 27C120.393 26.9993 120.776 27.1273 121.098 27.3667L196.788 83.8293C196.836 83.8649 196.872 83.916 196.891 83.9751C196.909 84.0342 196.91 84.0982 196.893 84.1577C196.875 84.2173 196.84 84.2693 196.793 84.3062C196.746 84.3432 196.69 84.3631 196.631 84.363Z" fill="#3F3D56"/>
<path d="M48.367 86.3645L120.076 29.4388L192.328 90.415L123.77 133.948L86.5492 124.861L48.367 86.3645Z" fill="#E6E6E6"/>
<path d="M89.691 160.837H54.2652C54.0477 160.838 53.8323 160.792 53.6312 160.703C53.4302 160.614 53.2475 160.483 53.0935 160.319C52.9396 160.154 52.8175 159.959 52.7342 159.743C52.6509 159.528 52.608 159.297 52.608 159.064C52.608 158.831 52.6509 158.601 52.7342 158.386C52.8175 158.17 52.9396 157.975 53.0935 157.81C53.2475 157.645 53.4302 157.515 53.6312 157.426C53.8323 157.337 54.0477 157.291 54.2652 157.292H89.691C89.9085 157.291 90.124 157.337 90.325 157.426C90.5261 157.515 90.7088 157.645 90.8627 157.81C91.0166 157.975 91.1387 158.17 91.222 158.386C91.3053 158.601 91.3482 158.831 91.3482 159.064C91.3482 159.297 91.3053 159.528 91.222 159.743C91.1387 159.959 91.0166 160.154 90.8627 160.319C90.7088 160.483 90.5261 160.614 90.325 160.703C90.124 160.792 89.9085 160.838 89.691 160.837Z" fill="#0D9488"/>
<path d="M66.9752 153.215H54.2652C54.0477 153.216 53.8323 153.17 53.6312 153.081C53.4302 152.992 53.2475 152.861 53.0935 152.697C52.9396 152.532 52.8175 152.337 52.7342 152.121C52.6509 151.906 52.608 151.675 52.608 151.442C52.608 151.209 52.6509 150.979 52.7342 150.763C52.8175 150.548 52.9396 150.353 53.0935 150.188C53.2475 150.023 53.4302 149.893 53.6312 149.804C53.8323 149.715 54.0477 149.669 54.2652 149.67H66.9752C67.1927 149.669 67.4082 149.715 67.6092 149.804C67.8103 149.893 67.993 150.023 68.1469 150.188C68.3008 150.353 68.4229 150.548 68.5062 150.763C68.5895 150.979 68.6324 151.209 68.6324 151.442C68.6324 151.675 68.5895 151.906 68.5062 152.121C68.4229 152.337 68.3008 152.532 68.1469 152.697C67.993 152.861 67.8103 152.992 67.6092 153.081C67.4082 153.17 67.1927 153.216 66.9752 153.215Z" fill="#0D9488"/>
<path d="M121.084 118.071C120.815 118.072 120.548 118.016 120.299 117.907L76.0737 98.2509V36.7253C76.0743 36.1813 76.2763 35.6597 76.6355 35.275C76.9947 34.8903 77.4816 34.6739 77.9895 34.6732H162.832C163.34 34.6739 163.826 34.8903 164.186 35.275C164.545 35.6597 164.747 36.1813 164.747 36.7253V98.2939L164.664 98.3319L121.893 117.897C121.637 118.012 121.362 118.072 121.084 118.071Z" fill="white"/>
<path d="M121.084 118.218C120.797 118.218 120.512 118.159 120.246 118.042L75.9369 98.3488V36.7253C75.9375 36.1424 76.154 35.5835 76.5388 35.1713C76.9236 34.7592 77.4453 34.5273 77.9895 34.5266H162.832C163.376 34.5273 163.898 34.7592 164.282 35.1713C164.667 35.5835 164.884 36.1424 164.884 36.7253V98.3906L121.947 118.032C121.673 118.155 121.38 118.218 121.084 118.218ZM76.4842 97.9572L120.455 117.5C120.865 117.678 121.325 117.676 121.733 117.492L164.337 98.0036V36.7253C164.336 36.2978 164.178 35.888 163.896 35.5858C163.613 35.2835 163.231 35.1135 162.832 35.113H77.9895C77.5905 35.1135 77.2079 35.2835 76.9257 35.5858C76.6435 35.888 76.4847 36.2978 76.4843 36.7253L76.4842 97.9572Z" fill="#3F3D56"/>
<path d="M196.084 83.7767H196.029L164.611 98.1472L121.623 117.809C121.455 117.885 121.275 117.924 121.093 117.925C120.91 117.926 120.73 117.889 120.561 117.815L76.2105 98.1061L44.0198 83.8002L43.9706 83.7767H43.9158C43.4079 83.7773 42.9209 83.9937 42.5617 84.3784C42.2026 84.7631 42.0006 85.2847 42 85.8288V174.948C42.0006 175.492 42.2026 176.014 42.5617 176.398C42.9209 176.783 43.4079 176.999 43.9158 177H196.084C196.592 176.999 197.079 176.783 197.438 176.398C197.797 176.014 197.999 175.492 198 174.948V85.8288C197.999 85.2847 197.797 84.7631 197.438 84.3784C197.079 83.9937 196.592 83.7773 196.084 83.7767ZM197.453 174.948C197.452 175.337 197.308 175.709 197.052 175.984C196.795 176.259 196.447 176.414 196.084 176.414H43.9158C43.5529 176.414 43.2049 176.259 42.9483 175.984C42.6917 175.709 42.5475 175.337 42.5474 174.948V85.8288C42.5479 85.4498 42.6851 85.0856 42.9305 84.8124C43.1758 84.5393 43.5102 84.3782 43.8638 84.363L76.2105 98.7393L120.35 118.357C120.828 118.566 121.364 118.562 121.839 118.348L164.611 98.7833L196.139 84.363C196.492 84.3794 196.825 84.5408 197.07 84.8138C197.315 85.0868 197.452 85.4504 197.453 85.8288V174.948Z" fill="#3F3D56"/>
<path d="M120.642 100.625C119.009 100.628 117.42 100.063 116.113 99.0138L116.032 98.9486L98.9789 84.963C98.1891 84.3148 97.5263 83.5063 97.0282 82.5837C96.5301 81.6611 96.2065 80.6425 96.076 79.586C95.9454 78.5294 96.0104 77.4557 96.2672 76.4261C96.5241 75.3965 96.9677 74.4311 97.5728 73.5851C98.178 72.7392 98.9327 72.0291 99.794 71.4956C100.655 70.9621 101.606 70.6155 102.593 70.4756C103.579 70.3358 104.581 70.4054 105.543 70.6805C106.504 70.9556 107.405 71.4308 108.195 72.079L119.241 81.1515L145.344 44.6869C145.95 43.8412 146.705 43.1314 147.566 42.5982C148.428 42.065 149.379 41.7188 150.365 41.5793C151.352 41.4398 152.354 41.5098 153.315 41.7853C154.276 42.0608 155.177 42.5364 155.967 43.1849L155.805 43.421L155.971 43.1884C157.564 44.4995 158.606 46.4339 158.869 48.567C159.132 50.7001 158.594 52.8578 157.373 54.5667L126.67 97.4578C125.959 98.4462 125.046 99.246 124.001 99.7953C122.956 100.345 121.806 100.628 120.642 100.625Z" fill="#0D9488"/>
</g>
<defs>
<clipPath id="clip0_2261_2965">
<rect width="156" height="150" fill="white" transform="translate(42 27)"/>
</clipPath>
</defs>
</svg>
