<svg width="240" height="240" viewBox="0 0 240 240" fill="none" xmlns="http://www.w3.org/2000/svg">
<g clip-path="url(#clip0_2261_2801)">
<path d="M191.504 61.781H67.884C67.8805 61.5728 67.7955 61.3742 67.6472 61.2281C67.499 61.082 67.2994 61.0001 67.0914 61H62.2226C62.0146 61.0001 61.815 61.082 61.6667 61.2281C61.5185 61.3742 61.4335 61.5728 61.43 61.781H60.2377C60.2342 61.5728 60.1492 61.3742 60.001 61.2281C59.8527 61.082 59.6531 61.0001 59.4452 61H54.5763C54.3684 61.0001 54.1688 61.082 54.0205 61.2281C53.8723 61.3742 53.7873 61.5728 53.7838 61.781H49.4455C46.9278 61.7839 44.5141 62.7867 42.7338 64.5697C40.9536 66.3526 39.9521 68.77 39.9493 71.2914V71.3851C39.9344 71.3842 39.9201 71.3806 39.9049 71.3806H39.7936C39.6893 71.3806 39.5861 71.4011 39.4897 71.4411C39.3934 71.4811 39.3059 71.5396 39.2322 71.6135C39.1584 71.6873 39.1 71.775 39.0601 71.8714C39.0202 71.9679 38.9996 72.0713 38.9996 72.1757V81.4765C38.9996 81.581 39.0202 81.6844 39.0601 81.7808C39.1 81.8773 39.1584 81.965 39.2322 82.0388C39.3059 82.1126 39.3934 82.1712 39.4897 82.2112C39.5861 82.2511 39.6893 82.2717 39.7936 82.2717H39.9049C39.9201 82.2717 39.9344 82.2681 39.9493 82.2672V169.49C39.9521 172.011 40.9536 174.428 42.7338 176.211C44.5141 177.994 46.9278 178.997 49.4455 179H191.504C194.021 178.997 196.435 177.994 198.215 176.211C199.995 174.428 200.997 172.011 201 169.49V71.2914C200.997 68.77 199.995 66.3526 198.215 64.5697C196.435 62.7868 194.021 61.7839 191.504 61.781ZM198.141 169.49C198.139 171.252 197.439 172.942 196.195 174.188C194.951 175.434 193.263 176.135 191.504 176.137H49.4455C47.6856 176.135 45.9984 175.434 44.7539 174.188C43.5095 172.942 42.8095 171.252 42.8075 169.49V71.2914C42.8095 69.5289 43.5095 67.8391 44.7539 66.5928C45.9984 65.3466 47.6856 64.6455 49.4455 64.6436H191.504C193.263 64.6456 194.951 65.3466 196.195 66.5929C197.439 67.8392 198.139 69.5289 198.141 71.2914V169.49Z" fill="#CCCCCC"/>
<path d="M191.504 177.728H49.4455C47.2647 177.725 45.1738 176.857 43.6317 175.312C42.0896 173.768 41.2222 171.674 41.2197 169.49V71.2914C41.2222 69.1073 42.0896 67.0133 43.6317 65.4689C45.1738 63.9244 47.2647 63.0557 49.4455 63.0532H191.504C193.684 63.0557 195.775 63.9244 197.317 65.4688C198.859 67.0133 199.727 69.1073 199.729 71.2914V169.49C199.727 171.674 198.86 173.768 197.317 175.312C195.775 176.857 193.684 177.725 191.504 177.728Z" fill="#E6E6E6"/>
<path d="M191.547 171.091H49.4022C48.9222 171.091 48.462 170.899 48.1226 170.559C47.7832 170.219 47.5923 169.758 47.5917 169.278V71.5031C47.5923 71.0224 47.7832 70.5615 48.1226 70.2216C48.462 69.8817 48.9222 69.6905 49.4022 69.6899H191.547C192.027 69.6905 192.487 69.8817 192.827 70.2216C193.166 70.5615 193.357 71.0224 193.358 71.5031V169.278C193.357 169.759 193.166 170.219 192.827 170.559C192.487 170.899 192.027 171.091 191.547 171.091Z" fill="white"/>
<path d="M44.4371 120.901C44.8124 120.901 45.1167 120.596 45.1167 120.22C45.1167 119.844 44.8124 119.54 44.4371 119.54C44.0617 119.54 43.7574 119.844 43.7574 120.22C43.7574 120.596 44.0617 120.901 44.4371 120.901Z" fill="white"/>
<path d="M101.032 82.6277H70.8347C68.466 82.6304 66.195 83.574 64.52 85.2515C62.845 86.929 61.9028 89.2035 61.9002 91.5758V94.3094C61.8382 94.2923 61.7731 94.2899 61.71 94.3023C61.6469 94.3147 61.5876 94.3417 61.5367 94.381C61.4859 94.4204 61.4448 94.471 61.4168 94.529C61.3888 94.5869 61.3746 94.6506 61.3754 94.715V96.8171C61.3746 96.8814 61.3888 96.9451 61.4168 97.0031C61.4448 97.061 61.4859 97.1117 61.5367 97.151C61.5876 97.1903 61.6469 97.2173 61.71 97.2297C61.7731 97.2421 61.8382 97.2397 61.9002 97.2226V100.406C61.8382 100.388 61.7731 100.386 61.71 100.398C61.6469 100.411 61.5876 100.438 61.5367 100.477C61.4858 100.517 61.4448 100.567 61.4168 100.625C61.3888 100.683 61.3746 100.747 61.3754 100.811V106.066C61.3746 106.131 61.3888 106.194 61.4168 106.252C61.4448 106.31 61.4858 106.361 61.5367 106.4C61.5876 106.44 61.6469 106.467 61.71 106.479C61.7731 106.492 61.8382 106.489 61.9002 106.472V108.394C61.8382 108.377 61.7731 108.374 61.71 108.387C61.6469 108.399 61.5876 108.426 61.5367 108.465C61.4858 108.505 61.4448 108.555 61.4168 108.613C61.3888 108.671 61.3746 108.735 61.3754 108.799V114.055C61.3746 114.119 61.3888 114.183 61.4168 114.241C61.4448 114.298 61.4858 114.349 61.5367 114.388C61.5876 114.428 61.6469 114.455 61.71 114.467C61.7731 114.48 61.8382 114.477 61.9002 114.46V169.957C61.9028 172.329 62.845 174.604 64.52 176.281C66.195 177.959 68.466 178.902 70.8347 178.905H101.032C103.4 178.902 105.671 177.959 107.346 176.281C109.021 174.604 109.963 172.329 109.966 169.957V91.5758C109.963 89.2035 109.021 86.929 107.346 85.2515C105.671 83.574 103.4 82.6304 101.032 82.6277ZM108.077 169.957C108.075 171.828 107.332 173.621 106.011 174.944C104.69 176.267 102.9 177.011 101.032 177.013H70.8347C68.9668 177.011 67.176 176.267 65.8551 174.944C64.5343 173.621 63.7913 171.828 63.7892 169.957V91.5758C63.7913 89.7051 64.5343 87.9115 65.8551 86.5887C67.176 85.2659 68.9668 84.5218 70.8347 84.5196H101.032C102.9 84.5218 104.69 85.2659 106.011 86.5887C107.332 87.9115 108.075 89.7051 108.077 91.5758V169.957Z" fill="#CCCCCC"/>
<path d="M101.032 178.064H70.835C68.6888 178.062 66.6312 177.207 65.1136 175.687C63.596 174.167 62.7424 172.106 62.74 169.957V91.5758C62.7424 89.4264 63.596 87.3657 65.1136 85.8458C66.6312 84.326 68.6888 83.471 70.835 83.4686H101.032C103.178 83.471 105.236 84.326 106.753 85.8458C108.271 87.3657 109.124 89.4264 109.127 91.5758V169.957C109.124 172.106 108.271 174.167 106.753 175.687C105.236 177.207 103.178 178.062 101.032 178.064Z" fill="#E6E6E6"/>
<path d="M101.778 176.803H70.0887C68.6412 176.801 67.2535 176.225 66.2299 175.2C65.2064 174.175 64.6306 172.785 64.629 171.335V90.1978C64.6306 88.7481 65.2063 87.3583 66.2299 86.3332C67.2534 85.3081 68.6412 84.7315 70.0887 84.7299H74.2213C74.4606 84.7301 74.69 84.8254 74.8591 84.9949C75.0283 85.1643 75.1234 85.394 75.1237 85.6336C75.1245 86.3415 75.4056 87.0201 75.9054 87.5206C76.4052 88.0211 77.0828 88.3027 77.7895 88.3035H93.6573C94.3641 88.3027 95.0417 88.0211 95.5415 87.5206C96.0412 87.0201 96.3223 86.3415 96.3231 85.6336C96.3234 85.394 96.4186 85.1643 96.5877 84.9949C96.7569 84.8254 96.9863 84.7301 97.2255 84.7299H101.778C103.225 84.7315 104.613 85.3081 105.637 86.3332C106.66 87.3583 107.236 88.7481 107.238 90.1978V171.335C107.236 172.785 106.66 174.175 105.637 175.2C104.613 176.225 103.225 176.801 101.778 176.803Z" fill="white"/>
<path d="M87.2976 86.5692H83.5195C83.4082 86.5692 83.3014 86.5249 83.2227 86.4461C83.144 86.3672 83.0997 86.2603 83.0997 86.1488C83.0997 86.0373 83.144 85.9303 83.2227 85.8515C83.3014 85.7727 83.4082 85.7284 83.5195 85.7284H87.2976C87.4088 85.7286 87.5153 85.773 87.5939 85.8518C87.6724 85.9307 87.7165 86.0374 87.7165 86.1488C87.7165 86.2601 87.6724 86.3669 87.5939 86.4457C87.5153 86.5245 87.4088 86.569 87.2976 86.5692Z" fill="white"/>
<path d="M89.9213 86.4641C90.0373 86.4641 90.1312 86.37 90.1312 86.2539C90.1312 86.1378 90.0373 86.0437 89.9213 86.0437C89.8054 86.0437 89.7115 86.1378 89.7115 86.2539C89.7115 86.37 89.8054 86.4641 89.9213 86.4641Z" fill="white"/>
<path d="M90.1341 106.327L90.178 107.305C95.1702 107.081 100.951 107.517 107.104 108.545V107.553C100.942 106.533 95.1478 106.102 90.1341 106.327Z" fill="#CCCCCC"/>
<path d="M83.9265 125.482C83.8878 125.857 83.8562 126.233 83.8318 126.612C83.7803 127.357 83.7545 128.108 83.7545 128.865C83.7584 135.911 86.0328 142.767 90.2397 148.414C94.4465 154.062 100.361 158.198 107.104 160.209V97.5143C100.912 99.3578 95.4045 102.999 91.279 107.977C87.1535 112.956 84.5948 119.048 83.9265 125.482Z" fill="#0D9488"/>
<path d="M67.6338 106.529C67.9893 106.529 68.2774 106.24 68.2774 105.884C68.2774 105.528 67.9893 105.24 67.6338 105.24C67.2784 105.24 66.9902 105.528 66.9902 105.884C66.9902 106.24 67.2784 106.529 67.6338 106.529Z" fill="#CCCCCC"/>
<path d="M66.2619 132.386C66.9641 132.386 67.5334 131.816 67.5334 131.113C67.5334 130.41 66.9641 129.839 66.2619 129.839C65.5598 129.839 64.9905 130.41 64.9905 131.113C64.9905 131.816 65.5598 132.386 66.2619 132.386Z" fill="#CCCCCC"/>
<path d="M90.2053 98.6861C90.7139 98.6861 91.1261 98.2732 91.1261 97.7638C91.1261 97.2545 90.7139 96.8416 90.2053 96.8416C89.6967 96.8416 89.2844 97.2545 89.2844 97.7638C89.2844 98.2732 89.6967 98.6861 90.2053 98.6861Z" fill="#CCCCCC"/>
<path d="M69.255 149.833C69.6607 149.833 69.9896 149.504 69.9896 149.098C69.9896 148.691 69.6607 148.362 69.255 148.362C68.8492 148.362 68.5203 148.691 68.5203 149.098C68.5203 149.504 68.8492 149.833 69.255 149.833Z" fill="#CCCCCC"/>
<path d="M84.0947 160.136C84.5341 160.136 84.8903 159.779 84.8903 159.339C84.8903 158.899 84.5341 158.542 84.0947 158.542C83.6553 158.542 83.2991 158.899 83.2991 159.339C83.2991 159.779 83.6553 160.136 84.0947 160.136Z" fill="#CCCCCC"/>
<path d="M107.224 79.1073H105.654V77.5348H104.811V79.1073H103.241V79.9514H104.811V81.5239H105.654V79.9514H107.224V79.1073Z" fill="#CCCCCC"/>
<path opacity="0.1" d="M95.817 126.117C97.3322 126.117 98.5606 124.887 98.5606 123.369C98.5606 121.852 97.3322 120.622 95.817 120.622C94.3018 120.622 93.0735 121.852 93.0735 123.369C93.0735 124.887 94.3018 126.117 95.817 126.117Z" fill="black"/>
<path opacity="0.1" d="M97.1888 145.476C98.704 145.476 99.9323 144.245 99.9323 142.728C99.9323 141.21 98.704 139.98 97.1888 139.98C95.6736 139.98 94.4453 141.21 94.4453 142.728C94.4453 144.245 95.6736 145.476 97.1888 145.476Z" fill="black"/>
<path d="M85.0853 125.502C81.7188 123.238 79.2112 121.004 77.6324 118.863C76.0574 116.727 75.4958 114.798 75.9631 113.128C76.4303 111.458 77.9115 110.102 80.3656 109.097C82.8256 108.09 86.1269 107.487 90.1778 107.305L90.1341 106.327C81.4597 106.716 76.0926 109.038 75.0219 112.864C73.9512 116.69 77.3315 121.467 84.5404 126.315C90.4191 130.268 98.2929 133.919 107.104 136.811V135.78C98.5009 132.933 90.8246 129.362 85.0853 125.502Z" fill="#CCCCCC"/>
<path opacity="0.1" d="M85.0849 126.285C84.6871 126.017 84.301 125.75 83.9266 125.482C83.8878 125.857 83.8562 126.233 83.8318 126.612C84.0637 126.774 84.3 126.936 84.5405 127.098C90.4192 131.051 98.2929 134.702 107.104 137.594V136.563C98.5012 133.716 90.825 130.145 85.0849 126.285Z" fill="black"/>
<path d="M121.492 110.517C117.647 109.438 113.837 108.559 110.139 107.882V108.877C113.751 109.544 117.472 110.406 121.228 111.46C133.186 114.817 144.006 119.708 150.915 124.881L151.5 124.097C144.499 118.855 133.561 113.905 121.492 110.517Z" fill="#CCCCCC"/>
<path d="M150.197 128.865C150.194 123.941 149.082 119.081 146.942 114.647C144.803 110.214 141.692 106.321 137.841 103.259C133.991 100.198 129.5 98.0458 124.703 96.9643C119.907 95.8827 114.928 95.8993 110.139 97.0129V160.714C117.34 162.393 124.896 161.576 131.573 158.396C138.25 155.216 143.652 149.861 146.896 143.208C147.065 142.864 147.227 142.516 147.382 142.166C149.244 137.98 150.204 133.447 150.197 128.865Z" fill="#0D9488"/>
<path d="M118.413 90.2702C118.62 90.2702 118.787 90.1025 118.787 89.8955C118.787 89.6886 118.62 89.5208 118.413 89.5208C118.207 89.5208 118.039 89.6886 118.039 89.8955C118.039 90.1025 118.207 90.2702 118.413 90.2702Z" fill="#F2F2F2"/>
<path d="M143.728 92.9923C144.196 92.9923 144.576 92.6123 144.576 92.1436C144.576 91.6749 144.196 91.295 143.728 91.295C143.26 91.295 142.881 91.6749 142.881 92.1436C142.881 92.6123 143.26 92.9923 143.728 92.9923Z" fill="#CCCCCC"/>
<path d="M173.782 128.744C174.542 128.744 175.158 128.127 175.158 127.366C175.158 126.605 174.542 125.988 173.782 125.988C173.022 125.988 172.406 126.605 172.406 127.366C172.406 128.127 173.022 128.744 173.782 128.744Z" fill="#CCCCCC"/>
<path d="M163.024 105.95C163.35 105.95 163.614 105.685 163.614 105.359C163.614 105.032 163.35 104.768 163.024 104.768C162.698 104.768 162.434 105.032 162.434 105.359C162.434 105.685 162.698 105.95 163.024 105.95Z" fill="#CCCCCC"/>
<path d="M160.958 125.163C161.284 125.163 161.548 124.899 161.548 124.572C161.548 124.246 161.284 123.981 160.958 123.981C160.632 123.981 160.368 124.246 160.368 124.572C160.368 124.899 160.632 125.163 160.958 125.163Z" fill="#CCCCCC"/>
<path d="M144.792 164.192H143.805V163.205H143.276V164.192H142.291V164.722H143.276V165.709H143.805V164.722H144.792V164.192Z" fill="#CCCCCC"/>
<path d="M167.547 159.138H166.81V158.4H166.414V159.138H165.677V159.535H166.414V160.273H166.81V159.535H167.547V159.138Z" fill="#CCCCCC"/>
<path opacity="0.1" d="M118.039 106.009C119.554 106.009 120.782 104.779 120.782 103.262C120.782 101.744 119.554 100.514 118.039 100.514C116.524 100.514 115.295 101.744 115.295 103.262C115.295 104.779 116.524 106.009 118.039 106.009Z" fill="black"/>
<path opacity="0.1" d="M118.039 130.363C119.554 130.363 120.782 129.133 120.782 127.616C120.782 126.098 119.554 124.868 118.039 124.868C116.524 124.868 115.295 126.098 115.295 127.616C115.295 129.133 116.524 130.363 118.039 130.363Z" fill="black"/>
<path opacity="0.1" d="M132.754 115.626C134.269 115.626 135.498 114.396 135.498 112.878C135.498 111.361 134.269 110.131 132.754 110.131C131.239 110.131 130.011 111.361 130.011 112.878C130.011 114.396 131.239 115.626 132.754 115.626Z" fill="black"/>
<path opacity="0.1" d="M141.858 134.235C143.373 134.235 144.601 133.005 144.601 131.488C144.601 129.97 143.373 128.74 141.858 128.74C140.342 128.74 139.114 129.97 139.114 131.488C139.114 133.005 140.342 134.235 141.858 134.235Z" fill="black"/>
<path d="M157.663 130.241C156.374 128.261 154.301 126.194 151.5 124.097L150.915 124.881C156.358 128.956 158.893 132.852 158.054 135.85C157.587 137.52 156.106 138.876 153.652 139.881C151.192 140.888 147.89 141.491 143.84 141.673C142.979 141.711 142.096 141.731 141.19 141.731C133.264 141.731 123.707 140.261 113.936 137.518C112.655 137.158 111.389 136.782 110.139 136.389V137.414C111.303 137.777 112.481 138.125 113.672 138.461C123.528 141.227 133.178 142.71 141.195 142.709C142.113 142.709 143.011 142.69 143.883 142.651C152.558 142.261 157.925 139.94 158.996 136.114C159.492 134.339 159.044 132.363 157.663 130.241Z" fill="#CCCCCC"/>
<path opacity="0.1" d="M143.84 142.456C142.979 142.494 142.096 142.514 141.19 142.514C133.264 142.514 123.706 141.044 113.936 138.301C112.654 137.941 111.389 137.565 110.139 137.172V138.198C111.303 138.56 112.481 138.909 113.672 139.244C123.529 142.01 133.177 143.492 141.195 143.492C142.113 143.492 143.011 143.473 143.884 143.434C144.938 143.387 145.942 143.311 146.896 143.208C147.065 142.864 147.227 142.516 147.382 142.166C146.274 142.302 145.093 142.399 143.84 142.456Z" fill="black"/>
<path d="M132.743 104.998C134.719 104.998 136.321 103.394 136.321 101.416C136.321 99.437 134.719 97.833 132.743 97.833C130.768 97.833 129.166 99.437 129.166 101.416C129.166 103.394 130.768 104.998 132.743 104.998Z" fill="white"/>
<path d="M132.754 96.1426C131.398 96.1426 130.098 96.6821 129.139 97.6424C128.18 98.6027 127.641 99.9051 127.641 101.263C127.641 104.091 132.754 113.378 132.754 113.378C132.754 113.378 137.867 104.091 137.867 101.263C137.867 99.9051 137.328 98.6027 136.369 97.6424C135.411 96.6821 134.11 96.1426 132.754 96.1426ZM132.754 103.761C132.285 103.761 131.827 103.622 131.438 103.361C131.048 103.1 130.744 102.73 130.565 102.296C130.386 101.863 130.339 101.385 130.43 100.925C130.522 100.465 130.747 100.042 131.079 99.7102C131.41 99.3783 131.832 99.1523 132.292 99.0607C132.751 98.9692 133.228 99.0162 133.661 99.1958C134.094 99.3754 134.464 99.6795 134.724 100.07C134.985 100.46 135.123 100.919 135.123 101.388C135.123 102.017 134.874 102.621 134.43 103.066C133.985 103.511 133.382 103.761 132.754 103.761Z" fill="#3F3D56"/>
<path d="M117.988 117.985C119.963 117.985 121.565 116.381 121.565 114.402C121.565 112.424 119.963 110.82 117.988 110.82C116.012 110.82 114.411 112.424 114.411 114.402C114.411 116.381 116.012 117.985 117.988 117.985Z" fill="white"/>
<path d="M117.998 109.129C116.642 109.129 115.342 109.669 114.383 110.629C113.424 111.589 112.886 112.892 112.886 114.25C112.886 117.078 117.998 126.365 117.998 126.365C117.998 126.365 123.111 117.078 123.111 114.25C123.111 112.892 122.573 111.589 121.614 110.629C120.655 109.669 119.354 109.129 117.998 109.129ZM117.998 116.748C117.53 116.748 117.072 116.609 116.682 116.348C116.292 116.087 115.989 115.717 115.809 115.283C115.63 114.849 115.583 114.372 115.675 113.912C115.766 113.452 115.992 113.029 116.323 112.697C116.654 112.365 117.077 112.139 117.536 112.047C117.996 111.956 118.472 112.003 118.905 112.182C119.338 112.362 119.708 112.666 119.969 113.056C120.229 113.447 120.368 113.905 120.368 114.375C120.368 115.004 120.118 115.608 119.674 116.053C119.229 116.498 118.627 116.748 117.998 116.748Z" fill="#3F3D56"/>
<path d="M117.988 94.9222C119.963 94.9222 121.565 93.3182 121.565 91.3397C121.565 89.3611 119.963 87.7571 117.988 87.7571C116.012 87.7571 114.411 89.3611 114.411 91.3397C114.411 93.3182 116.012 94.9222 117.988 94.9222Z" fill="white"/>
<path d="M117.998 86.0667C116.642 86.0667 115.342 86.6062 114.383 87.5665C113.424 88.5268 112.886 89.8292 112.886 91.1873C112.886 94.0154 117.998 103.302 117.998 103.302C117.998 103.302 123.111 94.0154 123.111 91.1873C123.111 89.8292 122.573 88.5268 121.614 87.5665C120.655 86.6062 119.354 86.0667 117.998 86.0667ZM117.998 93.6852C117.53 93.6852 117.072 93.546 116.682 93.2853C116.292 93.0245 115.989 92.6539 115.809 92.2203C115.63 91.7867 115.583 91.3096 115.675 90.8493C115.766 90.3889 115.992 89.9661 116.323 89.6343C116.654 89.3024 117.077 89.0764 117.536 88.9848C117.996 88.8933 118.472 88.9402 118.905 89.1199C119.338 89.2995 119.708 89.6036 119.969 89.9938C120.229 90.3841 120.368 90.8429 120.368 91.3122C120.368 91.6238 120.307 91.9324 120.187 92.2203C120.068 92.5082 119.894 92.7698 119.674 92.9902C119.454 93.2105 119.193 93.3853 118.905 93.5046C118.618 93.6238 118.31 93.6852 117.998 93.6852Z" fill="#CCCCCC"/>
<path d="M141.91 122.687C143.885 122.687 145.487 121.083 145.487 119.104C145.487 117.126 143.885 115.522 141.91 115.522C139.934 115.522 138.333 117.126 138.333 119.104C138.333 121.083 139.934 122.687 141.91 122.687Z" fill="white"/>
<path d="M141.92 113.831C140.564 113.831 139.264 114.371 138.305 115.331C137.346 116.291 136.808 117.594 136.808 118.952C136.808 121.78 141.92 131.067 141.92 131.067C141.92 131.067 147.033 121.78 147.033 118.952C147.033 117.594 146.495 116.291 145.536 115.331C144.577 114.371 143.277 113.831 141.92 113.831ZM141.92 121.45C141.452 121.45 140.994 121.311 140.604 121.05C140.214 120.789 139.911 120.419 139.731 119.985C139.552 119.551 139.505 119.074 139.597 118.614C139.688 118.154 139.914 117.731 140.245 117.399C140.576 117.067 140.999 116.841 141.458 116.75C141.918 116.658 142.394 116.705 142.827 116.885C143.26 117.064 143.63 117.368 143.891 117.759C144.151 118.149 144.29 118.608 144.29 119.077C144.29 119.706 144.04 120.31 143.596 120.755C143.152 121.2 142.549 121.45 141.92 121.45Z" fill="#CCCCCC"/>
<path d="M95.8542 114.626C97.8298 114.626 99.4313 113.022 99.4313 111.044C99.4313 109.065 97.8298 107.461 95.8542 107.461C93.8786 107.461 92.2771 109.065 92.2771 111.044C92.2771 113.022 93.8786 114.626 95.8542 114.626Z" fill="white"/>
<path d="M95.8649 105.771C94.5089 105.771 93.2084 106.31 92.2495 107.27C91.2907 108.231 90.752 109.533 90.752 110.891C90.752 113.719 95.8649 123.006 95.8649 123.006C95.8649 123.006 100.978 113.719 100.978 110.891C100.978 109.533 100.439 108.231 99.4803 107.27C98.5214 106.31 97.2209 105.771 95.8649 105.771ZM95.8649 113.389C95.3963 113.389 94.9382 113.25 94.5485 112.989C94.1589 112.729 93.8552 112.358 93.6759 111.924C93.4965 111.491 93.4496 111.014 93.541 110.553C93.6325 110.093 93.8581 109.67 94.1895 109.338C94.5209 109.006 94.9431 108.78 95.4027 108.689C95.8623 108.597 96.3387 108.644 96.7716 108.824C97.2046 109.003 97.5747 109.308 97.835 109.698C98.0954 110.088 98.2343 110.547 98.2343 111.016C98.2343 111.646 97.9847 112.249 97.5403 112.694C97.096 113.139 96.4933 113.389 95.8649 113.389Z" fill="#CCCCCC"/>
<path d="M97.1956 134.106C99.1712 134.106 100.773 132.502 100.773 130.524C100.773 128.545 99.1712 126.941 97.1956 126.941C95.22 126.941 93.6185 128.545 93.6185 130.524C93.6185 132.502 95.22 134.106 97.1956 134.106Z" fill="white"/>
<path d="M97.2063 125.251C95.8503 125.251 94.5498 125.79 93.591 126.751C92.6321 127.711 92.0934 129.013 92.0934 130.371C92.0934 133.199 97.2063 142.486 97.2063 142.486C97.2063 142.486 102.319 133.199 102.319 130.371C102.319 129.013 101.781 127.711 100.822 126.751C99.8629 125.79 98.5624 125.251 97.2063 125.251ZM97.2063 132.869C96.7377 132.869 96.2796 132.73 95.89 132.469C95.5003 132.209 95.1966 131.838 95.0173 131.404C94.838 130.971 94.791 130.494 94.8825 130.033C94.9739 129.573 95.1996 129.15 95.5309 128.818C95.8623 128.486 96.2845 128.26 96.7441 128.169C97.2037 128.077 97.6801 128.124 98.1131 128.304C98.546 128.484 98.9161 128.788 99.1764 129.178C99.4368 129.568 99.5757 130.027 99.5757 130.496C99.5757 131.126 99.3261 131.729 98.8818 132.174C98.4374 132.619 97.8347 132.869 97.2063 132.869Z" fill="#3F3D56"/>
</g>
<defs>
<clipPath id="clip0_2261_2801">
<rect width="162" height="118" fill="white" transform="translate(39 61)"/>
</clipPath>
</defs>
</svg>
