<svg width="240" height="240" viewBox="0 0 240 240" fill="none" xmlns="http://www.w3.org/2000/svg">
<g clip-path="url(#clip0_3367_2903)">
<g clip-path="url(#clip1_3367_2903)">
<path d="M247 202.288H-15V203.086H247V202.288Z" fill="#3F3D56"/>
<path d="M173.501 113.107C171.075 98.5782 158.432 87.5061 143.201 87.5061H80.9133C65.6882 87.5061 53.0484 98.5693 50.6139 113.09C50.3329 114.75 50.1879 116.458 50.1879 118.199V172.413C50.1879 174.153 50.3329 175.858 50.6139 177.519C52.5514 189.087 60.9701 198.463 72.0155 201.793C74.8315 202.644 77.8192 203.102 80.9133 203.102H143.201C146.295 203.102 149.283 202.644 152.099 201.793C163.147 198.46 171.569 189.078 173.501 177.501C173.779 175.846 173.924 174.147 173.924 172.413V118.199C173.924 116.464 173.779 114.762 173.501 113.107ZM148.472 201.793C146.76 202.098 145 202.257 143.201 202.257H80.9133C79.1148 202.257 77.3548 202.098 75.642 201.793C61.6563 199.308 51.0369 187.099 51.0369 172.413V154.417C51.0369 103.569 92.2989 88.3542 143.201 88.3542C159.701 88.3542 173.078 101.716 173.078 118.199V172.413C133.022 177.767 162.458 199.308 148.472 201.793Z" fill="#3F3D56"/>
<path d="M124.452 128.417L126.848 143.976L161.995 139.189L158.6 121.009L124.452 128.417Z" fill="#0D9488"/>
<path d="M152.036 41.1055H137.504V56.131H152.036V41.1055Z" fill="#2F2E41"/>
<path d="M138.83 57.002L142.424 46.2299H149.431L149.799 57.002H138.83Z" fill="#FFB6B6"/>
<path opacity="0.1" d="M138.83 57.002L142.424 46.2299H149.431L149.799 57.002H138.83Z" fill="black"/>
<path d="M142.624 152.953L142.225 194.446L141.825 197.637V202.219L147.816 202.824L148.216 193.648C148.216 193.648 154.606 175.694 153.008 161.73C151.411 147.767 152.21 151.756 152.21 151.756L142.624 152.953Z" fill="#FFB6B6"/>
<path d="M146.427 156.212L131.689 195.006L130.899 198.124L129.23 202.392L123.43 200.779L126.399 192.086C126.399 192.086 126.985 173.04 133.558 160.614C140.131 148.187 137.934 151.613 137.934 151.613L146.427 156.212Z" fill="#FFB6B6"/>
<path d="M138.83 55.8051L128.046 60.5927L134.932 96.1054L133.844 147.075L126.655 162.236C126.655 162.236 125.45 170.907 137.831 165.321C150.213 159.736 164.191 158.14 164.191 158.14L160.796 134.8L157.801 73.559L158.2 59.9942L149.414 54.4087C149.414 54.4087 138.83 55.8051 138.83 55.8051Z" fill="#2F2E41"/>
<path d="M132.824 162.79L120.857 142.78L134.532 96.1054L128.046 60.5927L139.425 55.7265C139.425 55.7265 145.316 61.4567 145.316 66.183C145.316 70.9093 132.824 162.79 132.824 162.79Z" fill="#E6E6E6"/>
<path d="M158.784 158.801L147.922 65.5912C147.785 64.4142 147.986 63.2226 148.502 62.1556L151.61 55.7265L163.792 59.1963L158.895 97.3023L171.979 134.8L158.784 158.801Z" fill="#E6E6E6"/>
<path d="M149.014 202.026C149.014 202.026 141.426 197.637 140.627 200.031C139.828 202.425 139.429 204.42 139.429 204.42C139.429 204.42 137.432 212 143.423 212C149.414 212 149.014 208.552 149.014 208.552V202.026Z" fill="#2F2E41"/>
<path d="M122.604 199.6C122.604 199.6 131.271 198.27 131.143 200.79C131.016 203.31 130.661 205.313 130.661 205.313C130.661 205.313 129.761 213.1 124.18 210.923C118.6 208.746 120.228 205.679 120.228 205.679L122.604 199.6Z" fill="#2F2E41"/>
<path d="M146.395 52.0927C151.878 52.0927 156.324 47.6521 156.324 42.1744C156.324 36.6967 151.878 32.2562 146.395 32.2562C140.911 32.2562 136.466 36.6967 136.466 42.1744C136.466 47.6521 140.911 52.0927 146.395 52.0927Z" fill="#FFB6B6"/>
<path d="M154.327 33.3358C153.865 30.8904 151.352 29.2364 148.87 29.029C146.387 28.8216 143.955 29.758 141.72 30.8559C140.204 31.6002 138.712 32.4391 137.484 33.5975C136.257 34.756 135.304 36.2694 135.083 37.9419C135.005 38.5337 135.016 39.152 134.773 39.6974C134.47 40.3789 133.82 40.8417 133.427 41.4759C132.724 42.6133 133.047 44.2681 134.127 45.0576C132.769 45.6357 131.374 46.2388 130.339 47.2901C129.303 48.3413 128.706 49.9644 129.274 51.3254C129.475 51.807 129.807 52.2285 129.979 52.7212C130.305 53.6568 129.994 54.7196 129.416 55.5243C128.837 56.3289 128.021 56.9255 127.218 57.508C129.28 57.9117 131.384 58.2262 133.477 58.0379C135.569 57.8496 137.669 57.1171 139.184 55.6633C140.7 54.2096 141.533 51.9672 140.99 49.94C140.573 48.3871 139.408 47.0264 139.409 45.4187C139.41 44.183 140.105 43.0682 140.777 42.0304C142.244 39.7641 143.711 37.4977 145.178 35.2313C145.442 34.8236 145.72 34.4017 146.137 34.1524C146.846 33.7282 147.766 33.9147 148.514 34.2668C149.262 34.6189 149.945 35.1241 150.743 35.3424C152.37 35.7879 154.258 34.7647 154.771 33.159" fill="#2F2E41"/>
<path d="M148.462 53.5065C147.635 54.3069 146.443 54.5647 145.338 54.889C144.233 55.2133 143.057 55.7234 142.56 56.7611C142.072 57.7787 142.426 59.0703 143.234 59.8591C144.041 60.6479 145.214 60.9802 146.343 60.9646C147.472 60.9489 148.573 60.6183 149.635 60.2344C152.538 59.1848 155.289 57.7124 157.772 55.8781C156.163 55.4336 155.111 53.5577 155.572 51.9555C155.946 50.6521 157.091 49.7431 157.87 48.6329C159.212 46.7212 159.436 44.2013 158.991 41.9092C158.547 39.617 157.501 37.4922 156.466 35.399C156.139 34.7373 155.804 34.0644 155.293 33.5309C154.783 32.9973 154.06 32.6151 153.325 32.6915C152.106 32.8184 151.327 34.1557 151.319 35.3805C151.31 36.6052 151.848 37.7563 152.256 38.9113C152.676 40.1012 152.969 41.3625 152.856 42.6193C152.761 43.6726 152.378 44.6985 151.758 45.5558C151.28 46.2179 150.67 46.7736 150.15 47.4034C149.747 47.8904 149.391 48.442 149.285 49.0644C149.093 50.1971 149.758 51.3432 149.576 52.4776C149.383 53.6768 148.12 54.5948 146.918 54.409" fill="#2F2E41"/>
<path d="M118.096 192.035C136.845 192.035 152.044 176.852 152.044 158.123C152.044 139.394 136.845 124.211 118.096 124.211C99.3472 124.211 84.1481 139.394 84.1481 158.123C84.1481 176.852 99.3472 192.035 118.096 192.035Z" fill="#0D9488"/>
<path d="M138.437 155.401H134.217C133.56 151.537 131.534 148.036 128.509 145.54C121.546 139.795 111.239 140.776 105.487 147.732C105.468 147.754 105.449 147.777 105.431 147.8C104.971 148.395 105.082 149.25 105.677 149.709C106.273 150.168 107.128 150.058 107.588 149.463C110.086 146.439 113.868 144.515 118.096 144.515C124.57 144.516 130.149 149.066 131.446 155.401H127.725C127.565 155.401 127.411 155.457 127.289 155.559C127 155.799 126.961 156.228 127.201 156.517L132.558 162.94C132.584 162.972 132.613 163.001 132.645 163.027C132.933 163.268 133.363 163.229 133.604 162.94L138.96 156.517C139.062 156.395 139.118 156.241 139.118 156.082C139.118 155.706 138.813 155.402 138.437 155.401Z" fill="white"/>
<path d="M130.515 166.537C129.919 166.078 129.064 166.188 128.604 166.783C126.623 169.18 123.879 170.827 120.831 171.451C113.457 172.959 106.256 168.21 104.746 160.845H108.468C108.844 160.844 109.149 160.54 109.149 160.164C109.149 160.005 109.093 159.851 108.991 159.729L103.635 153.306C103.394 153.017 102.964 152.978 102.675 153.219C102.644 153.245 102.615 153.274 102.589 153.306L97.2322 159.729C96.9915 160.017 97.0306 160.446 97.3197 160.687C97.442 160.789 97.5961 160.844 97.7554 160.845H101.975C102.632 164.709 104.658 168.209 107.684 170.706C114.647 176.451 124.954 175.47 130.705 168.514C130.725 168.492 130.743 168.469 130.762 168.445C131.221 167.85 131.111 166.996 130.515 166.537Z" fill="white"/>
<path d="M127.575 123.632C127.164 126.571 125.313 128.741 123.44 128.48C121.568 128.218 120.384 125.624 120.796 122.684C120.944 121.507 121.372 120.383 122.045 119.406L123.944 106.976L129.764 107.99L127.274 120.136C127.652 121.261 127.755 122.46 127.575 123.632Z" fill="#FFB6B6"/>
<path d="M132.639 59.9942C132.639 59.9942 126.649 57.9994 125.85 65.1807C125.051 72.3621 124.252 81.1393 124.252 81.1393C124.252 81.1393 120.658 89.5176 122.255 93.9062C123.853 98.2949 126.649 95.2351 123.853 98.9593C121.057 102.683 121.447 114.937 121.447 114.937L130.443 114.484C130.443 114.484 135.435 81.5383 135.435 80.7404C135.435 79.9424 132.639 59.9942 132.639 59.9942Z" fill="#E6E6E6"/>
<path d="M171.58 122.298C171.691 125.263 170.25 127.724 168.36 127.795C166.471 127.865 164.85 125.519 164.739 122.552C164.678 121.368 164.903 120.186 165.393 119.106L165.08 106.536L170.988 106.515L170.669 118.909C171.239 119.95 171.552 121.112 171.58 122.298Z" fill="#FFB6B6"/>
<path d="M162.357 59.8595C162.357 59.8595 168.383 57.9719 169.053 65.1664C169.723 72.3609 170.365 85.5396 170.365 85.5396C170.365 85.5396 173.809 93.9807 172.133 98.3401C170.457 102.699 167.717 99.5903 170.445 103.364C173.174 107.137 172.195 117.779 172.195 117.779L163.208 117.166C163.208 117.166 159.176 85.7389 159.191 84.9411C159.205 84.1433 162.357 59.8595 162.357 59.8595Z" fill="#E6E6E6"/>
</g>
</g>
<defs>
<clipPath id="clip0_3367_2903">
<rect width="240" height="240" fill="white"/>
</clipPath>
<clipPath id="clip1_3367_2903">
<rect width="262" height="183" fill="white" transform="translate(-15 29)"/>
</clipPath>
</defs>
</svg>
