<svg width="240" height="240" viewBox="0 0 240 240" fill="none" xmlns="http://www.w3.org/2000/svg">
<g clip-path="url(#clip0_3588_660)">
<path d="M72.4328 203.205C72.221 203.215 72.0112 203.159 71.832 203.046C71.6529 202.933 71.5129 202.767 71.4311 202.572C71.3492 202.377 71.3295 202.161 71.3746 201.954C71.4197 201.748 71.5275 201.56 71.6832 201.416C71.7093 201.313 71.728 201.238 71.7541 201.135C71.5513 200.621 71.1994 200.179 70.7434 199.866C70.2873 199.553 69.748 199.383 69.1945 199.378C68.641 199.373 68.0986 199.533 67.6367 199.837C67.1749 200.141 66.8147 200.576 66.6022 201.086C65.3764 203.949 63.7898 206.913 64.5789 210.067C59.3672 199.046 61.1395 185.336 68.8417 175.911C70.9707 174.741 72.6963 172.662 73.1455 170.248C72.0918 170.604 70.7781 169.749 71.5704 168.642C71.9138 168.218 72.2605 167.798 72.6038 167.375C68.6014 163.122 63.8325 169.807 68.2381 175.547C66.7969 177.35 65.5486 179.298 64.5134 181.36C64.7525 179.171 64.4672 176.956 63.681 174.898C62.8842 172.98 61.3907 171.365 60.0755 169.707C58.4764 167.686 55.1853 168.618 54.9701 171.182C56.4459 171.666 56.6376 173.793 54.9495 174.084C55.3916 178.854 58.5144 183.237 62.8155 185.328C61.2272 189.775 60.6069 194.508 60.9962 199.213C60.237 193.715 54.3218 192.38 50.1873 190.195C49.9242 190.027 49.6176 189.938 49.305 189.941C48.9924 189.943 48.6873 190.037 48.4269 190.209C48.1665 190.382 47.962 190.626 47.8385 190.913C47.715 191.199 47.6777 191.515 47.7312 191.823C48.3018 192.054 48.848 192.342 49.3617 192.681C49.6024 192.843 49.7871 193.074 49.8906 193.345C49.9941 193.615 50.0112 193.911 49.9397 194.191C49.8682 194.472 49.7114 194.723 49.491 194.911C49.2706 195.099 48.9973 195.215 48.7085 195.242C50.7925 200.388 56.1806 203.844 61.7145 203.825C62.2463 206.131 63.0168 208.375 64.0136 210.522H72.227C72.2565 210.431 72.2829 210.337 72.3094 210.246C71.5492 210.293 70.786 210.248 70.0368 210.111C72.0482 207.735 73.6037 206.522 72.4331 203.205L72.4328 203.205Z" fill="#F2F2F2"/>
<path d="M145.657 203.205C145.868 203.215 146.078 203.159 146.257 203.046C146.437 202.933 146.577 202.767 146.658 202.572C146.74 202.377 146.76 202.161 146.715 201.954C146.67 201.748 146.562 201.56 146.406 201.416C146.38 201.313 146.361 201.238 146.335 201.135C146.538 200.621 146.89 200.179 147.346 199.866C147.802 199.553 148.341 199.383 148.895 199.378C149.448 199.373 149.991 199.533 150.453 199.837C150.915 200.141 151.275 200.576 151.487 201.086C152.713 203.949 154.3 206.913 153.511 210.067C158.722 199.046 156.95 185.336 149.248 175.911C147.119 174.741 145.393 172.662 144.944 170.248C145.998 170.604 147.311 169.749 146.519 168.642C146.176 168.218 145.829 167.798 145.486 167.375C149.488 163.122 154.257 169.807 149.851 175.547C151.293 177.35 152.541 179.298 153.576 181.36C153.337 179.171 153.622 176.956 154.408 174.898C155.205 172.98 156.699 171.365 158.014 169.707C159.613 167.686 162.904 168.618 163.119 171.182C161.644 171.666 161.452 173.793 163.14 174.084C162.698 178.854 159.575 183.237 155.274 185.328C156.862 189.775 157.483 194.508 157.093 199.213C157.852 193.715 163.768 192.38 167.902 190.195C168.165 190.027 168.472 189.938 168.784 189.941C169.097 189.943 169.402 190.037 169.663 190.209C169.923 190.382 170.127 190.626 170.251 190.913C170.375 191.199 170.412 191.515 170.358 191.823C169.788 192.054 169.242 192.342 168.728 192.681C168.487 192.843 168.302 193.074 168.199 193.345C168.095 193.615 168.078 193.911 168.15 194.191C168.221 194.472 168.378 194.723 168.598 194.911C168.819 195.099 169.092 195.215 169.381 195.242C167.297 200.388 161.909 203.844 156.375 203.825C155.843 206.131 155.073 208.375 154.076 210.522H145.862C145.833 210.431 145.807 210.337 145.78 210.246C146.54 210.293 147.304 210.248 148.053 210.111C146.041 207.735 144.486 206.522 145.657 203.205Z" fill="#F2F2F2"/>
<path d="M148.702 204.422L145.165 205.224L140.377 191.994L145.598 190.808L148.702 204.422Z" fill="#FFB6B6"/>
<path d="M149.666 208.075L138.789 210.544L138.758 210.407C138.502 209.287 138.703 208.111 139.317 207.139C139.93 206.166 140.905 205.477 142.028 205.222L143.672 203.266L147.722 203.929L148.672 203.713L149.666 208.075Z" fill="#2F2E41"/>
<path d="M205.762 139.929L207.706 142.985L196.82 151.923L193.95 147.413L205.762 139.929Z" fill="#FFB6B6"/>
<path d="M208.887 137.797L214.868 147.193L214.749 147.269C213.776 147.885 212.599 148.09 211.475 147.84C210.351 147.59 209.373 146.904 208.756 145.934L206.358 145.045L205.625 141.016L205.103 140.195L208.887 137.797Z" fill="#2F2E41"/>
<path d="M93.0107 107.263L92.1371 102.21L105.419 96.2258L108.287 91.1587C108.195 90.7141 108.227 90.2526 108.381 89.8251C108.534 89.3976 108.804 89.0209 109.159 88.7365C109.513 88.4521 109.94 88.2711 110.392 88.2136C110.843 88.156 111.302 88.224 111.717 88.4102C112.132 88.5963 112.488 88.8934 112.744 89.2685C113.001 89.6436 113.148 90.0822 113.171 90.5358C113.193 90.9894 113.09 91.4403 112.871 91.8389C112.653 92.2374 112.329 92.5679 111.934 92.794L107.216 100.073L93.0107 107.263Z" fill="#A0616A"/>
<path d="M88.9733 103.132L94.9544 100.084L96.5378 106.016L92.3832 109.089L88.9733 103.132Z" fill="#0D9488"/>
<path d="M75.5519 203.962L79.1682 203.962L80.8887 190.044L75.551 190.044L75.5519 203.962Z" fill="#A0616A"/>
<path d="M80.3717 204.287V201.841L79.4209 201.899L75.5508 202.127L74.655 202.182L73.9703 210.375L73.9336 210.815H76.5015L76.584 210.378L76.957 208.396L77.92 210.378L78.1309 210.815H84.9389C85.344 210.812 85.7318 210.65 86.0179 210.364C86.3041 210.078 86.4656 209.691 86.4674 209.286C86.7548 207.947 81.0931 205.053 80.3717 204.287Z" fill="#2F2E41"/>
<path d="M32.6231 148.726L31.78 152.235L44.9438 157.149L46.1879 151.97L32.6231 148.726Z" fill="#A0616A"/>
<path d="M31.469 153.327L33.8531 153.897L34.0183 152.961L34.6977 149.152L34.8531 148.271L27.0279 145.696L26.6084 145.558L26.0096 148.049L26.4155 148.231L28.2608 149.055L26.104 149.527L25.6297 149.63L24.0424 156.236C23.9504 156.63 24.0178 157.044 24.2299 157.388C24.442 157.733 24.7818 157.98 25.1753 158.076C26.4134 158.667 30.5546 153.848 31.469 153.327Z" fill="#2F2E41"/>
<path d="M81.1437 113.883L76.4887 111.712L67.2058 122.921L61.5514 124.348C61.1459 124.141 60.6911 124.051 60.2373 124.086C59.7836 124.122 59.3484 124.282 58.98 124.549C58.6116 124.815 58.3243 125.178 58.1497 125.598C57.9752 126.017 57.9202 126.477 57.9909 126.925C58.0616 127.374 58.2552 127.794 58.5503 128.14C58.8454 128.486 59.2306 128.743 59.6632 128.885C60.0959 129.026 60.5592 129.045 61.0019 128.939C61.4447 128.834 61.8498 128.609 62.1723 128.288L70.4521 125.663L81.1437 113.883Z" fill="#A0616A"/>
<path d="M147.138 72.3879C146.152 72.3879 145.187 72.096 144.367 71.549C143.546 71.002 142.907 70.2246 142.529 69.315C142.152 68.4054 142.053 67.4045 142.245 66.4389C142.438 65.4733 142.913 64.5863 143.611 63.8902C144.308 63.194 145.197 62.7199 146.165 62.5278C147.133 62.3358 148.136 62.4344 149.047 62.8111C149.959 63.1879 150.738 63.8259 151.286 64.6445C151.835 65.4631 152.127 66.4255 152.127 67.4101C152.126 68.7298 151.6 69.9951 150.664 70.9283C149.729 71.8615 148.461 72.3865 147.138 72.3879ZM147.138 63.0035C146.265 63.0035 145.411 63.2619 144.685 63.7461C143.958 64.2303 143.392 64.9185 143.058 65.7237C142.724 66.5289 142.636 67.415 142.807 68.2698C142.977 69.1246 143.398 69.9097 144.015 70.526C144.633 71.1423 145.42 71.562 146.277 71.732C147.133 71.902 148.021 71.8148 148.828 71.4812C149.635 71.1477 150.325 70.5829 150.81 69.8582C151.296 69.1336 151.555 68.2816 151.555 67.4101C151.553 66.2418 151.088 65.1217 150.26 64.2956C149.432 63.4695 148.309 63.0048 147.138 63.0035Z" fill="#E6E6E6"/>
<path d="M146.786 69.2854C146.776 69.2854 146.766 69.2851 146.756 69.2846C146.668 69.2803 146.581 69.257 146.502 69.2162C146.424 69.1754 146.355 69.1181 146.3 69.0482L145.514 68.0401C145.465 67.9765 145.428 67.9037 145.407 67.826C145.385 67.7482 145.379 67.6671 145.39 67.587C145.4 67.507 145.425 67.4298 145.465 67.3597C145.505 67.2896 145.559 67.228 145.622 67.1785L145.651 67.1566C145.714 67.107 145.787 67.0705 145.865 67.0491C145.943 67.0277 146.025 67.0218 146.105 67.0318C146.185 67.0418 146.262 67.0675 146.333 67.1074C146.403 67.1473 146.465 67.2006 146.514 67.2643C146.554 67.3151 146.604 67.3568 146.662 67.3865C146.719 67.4162 146.782 67.4332 146.846 67.4364C146.911 67.4395 146.975 67.4287 147.035 67.4047C147.095 67.3807 147.149 67.3441 147.194 67.2973L148.79 65.6164C148.902 65.4984 149.056 65.4296 149.22 65.4252C149.383 65.4208 149.541 65.4811 149.659 65.5928L149.686 65.6177C149.744 65.6732 149.791 65.7396 149.824 65.8132C149.857 65.8869 149.875 65.9662 149.878 66.0468C149.88 66.1274 149.866 66.2077 149.837 66.283C149.808 66.3583 149.765 66.4271 149.709 66.4857L147.233 69.0936C147.175 69.1542 147.106 69.2025 147.029 69.2354C146.953 69.2684 146.87 69.2854 146.786 69.2854Z" fill="#E6E6E6"/>
<path d="M122.234 132.656C121.247 132.656 120.282 132.364 119.462 131.817C118.641 131.27 118.002 130.492 117.624 129.583C117.247 128.673 117.148 127.672 117.34 126.707C117.533 125.741 118.008 124.854 118.706 124.158C119.404 123.462 120.292 122.988 121.26 122.796C122.228 122.603 123.231 122.702 124.143 123.079C125.054 123.456 125.833 124.094 126.382 124.912C126.93 125.731 127.222 126.693 127.222 127.678C127.221 128.998 126.695 130.263 125.76 131.196C124.824 132.129 123.556 132.654 122.234 132.656ZM122.234 123.271C121.36 123.271 120.506 123.53 119.78 124.014C119.054 124.498 118.488 125.186 118.153 125.991C117.819 126.797 117.732 127.683 117.902 128.537C118.072 129.392 118.493 130.177 119.111 130.794C119.728 131.41 120.515 131.83 121.372 132C122.229 132.17 123.117 132.082 123.924 131.749C124.731 131.415 125.42 130.851 125.906 130.126C126.391 129.401 126.65 128.549 126.65 127.678C126.649 126.509 126.183 125.389 125.355 124.563C124.527 123.737 123.404 123.273 122.234 123.271Z" fill="#E6E6E6"/>
<path d="M121.881 129.553C121.871 129.553 121.861 129.553 121.851 129.552C121.763 129.548 121.676 129.525 121.597 129.484C121.519 129.443 121.45 129.386 121.395 129.316L120.61 128.308C120.56 128.244 120.523 128.171 120.502 128.094C120.48 128.016 120.475 127.935 120.485 127.855C120.495 127.775 120.52 127.698 120.56 127.627C120.6 127.557 120.654 127.496 120.717 127.446L120.746 127.424C120.809 127.375 120.882 127.338 120.96 127.317C121.038 127.295 121.12 127.29 121.2 127.3C121.28 127.31 121.358 127.335 121.428 127.375C121.498 127.415 121.56 127.468 121.609 127.532C121.649 127.583 121.699 127.625 121.757 127.654C121.814 127.684 121.877 127.701 121.942 127.704C122.006 127.707 122.071 127.696 122.13 127.672C122.19 127.648 122.244 127.612 122.289 127.565L123.885 125.884C123.997 125.766 124.152 125.697 124.315 125.693C124.478 125.688 124.636 125.749 124.755 125.861L124.781 125.885C124.839 125.941 124.887 126.007 124.919 126.081C124.952 126.155 124.97 126.234 124.973 126.315C124.975 126.395 124.961 126.475 124.932 126.551C124.903 126.626 124.86 126.695 124.804 126.753L122.328 129.361C122.27 129.422 122.201 129.47 122.124 129.503C122.048 129.536 121.965 129.553 121.881 129.553Z" fill="#E6E6E6"/>
<path d="M67.5573 65.5328C66.5706 65.5328 65.606 65.2409 64.7856 64.6939C63.9652 64.1469 63.3257 63.3695 62.9481 62.4599C62.5705 61.5503 62.4717 60.5494 62.6642 59.5838C62.8567 58.6182 63.3319 57.7312 64.0296 57.0351C64.7273 56.3389 65.6162 55.8648 66.584 55.6727C67.5517 55.4807 68.5548 55.5792 69.4664 55.956C70.378 56.3328 71.1572 56.9708 71.7054 57.7894C72.2536 58.608 72.5462 59.5704 72.5462 60.555C72.5447 61.8747 72.0186 63.14 71.0833 64.0732C70.1481 65.0064 68.88 65.5314 67.5573 65.5328ZM67.5573 56.1484C66.6838 56.1484 65.8299 56.4068 65.1037 56.891C64.3774 57.3752 63.8113 58.0634 63.4771 58.8686C63.1428 59.6738 63.0553 60.5599 63.2257 61.4147C63.3962 62.2694 63.8168 63.0546 64.4344 63.6709C65.0521 64.2872 65.839 64.7069 66.6957 64.8769C67.5524 65.0469 68.4404 64.9597 69.2474 64.6261C70.0543 64.2926 70.7441 63.7278 71.2294 63.0031C71.7146 62.2785 71.9737 61.4265 71.9737 60.555C71.9723 59.3867 71.5066 58.2666 70.6787 57.4405C69.8507 56.6144 68.7282 56.1497 67.5573 56.1484Z" fill="#E6E6E6"/>
<path d="M67.2053 62.4303C67.1952 62.4303 67.1852 62.43 67.1752 62.4295C67.0866 62.4252 67 62.4019 66.9213 62.3611C66.8426 62.3203 66.7737 62.263 66.7193 62.1931L65.9334 61.185C65.8838 61.1214 65.8472 61.0486 65.8258 60.9709C65.8043 60.8931 65.7984 60.8119 65.8085 60.7319C65.8185 60.6519 65.8442 60.5747 65.8841 60.5046C65.9241 60.4345 65.9775 60.3729 66.0413 60.3234L66.0695 60.3015C66.1333 60.2519 66.2063 60.2154 66.2842 60.194C66.3621 60.1726 66.4435 60.1667 66.5237 60.1767C66.6039 60.1867 66.6814 60.2124 66.7516 60.2523C66.8219 60.2922 66.8836 60.3455 66.9332 60.4092C66.9729 60.46 67.0231 60.5017 67.0804 60.5314C67.1378 60.5611 67.2009 60.5781 67.2654 60.5812C67.3299 60.5844 67.3944 60.5736 67.4543 60.5496C67.5143 60.5256 67.5683 60.4889 67.6128 60.4422L69.2085 58.7613C69.3208 58.6433 69.4755 58.5745 69.6385 58.5701C69.8016 58.5657 69.9598 58.626 70.0784 58.7377L70.1046 58.7626C70.1632 58.8181 70.2104 58.8845 70.2433 58.9581C70.2762 59.0317 70.2943 59.1111 70.2965 59.1917C70.2987 59.2723 70.2849 59.3526 70.256 59.4279C70.2271 59.5032 70.1836 59.572 70.128 59.6305L67.6517 62.2385C67.5943 62.2991 67.5251 62.3474 67.4483 62.3803C67.3715 62.4133 67.2888 62.4303 67.2053 62.4303Z" fill="#E6E6E6"/>
<path d="M107.498 151.164C95.9298 151.164 82.6345 138.355 70.8715 144.441C35.2561 162.868 40.1588 132.033 29.9268 120.565L30.2627 119.893C41.5525 129.994 55.6483 138.212 71.0261 143.659C84.9229 148.581 98.9239 150.862 111.51 150.26L111.532 151.068C110.203 151.132 108.858 151.164 107.498 151.164Z" fill="#F2F2F2"/>
<path d="M91.6292 64.5584C92.9647 64.5584 94.0474 63.1099 94.0474 61.323C94.0474 59.5361 92.9647 58.0875 91.6292 58.0875C90.2937 58.0875 89.2111 59.5361 89.2111 61.323C89.2111 63.1099 90.2937 64.5584 91.6292 64.5584Z" fill="#E6E6E6"/>
<path d="M119.559 115.032C118.453 115.767 117.322 114.018 118.449 113.315C119.554 112.58 120.686 114.33 119.559 115.032Z" fill="#E6E6E6"/>
<path d="M113.196 56.14C114.935 56.14 116.344 54.7334 116.344 52.9981C116.344 51.2629 114.935 49.8562 113.196 49.8562C111.456 49.8562 110.047 51.2629 110.047 52.9981C110.047 54.7334 111.456 56.14 113.196 56.14Z" fill="#FF6584"/>
<path opacity="0.3" d="M124.209 70.2156L142.127 18L122.452 69.5905C122.355 69.713 122.288 69.8568 122.258 70.0101C122.227 70.1634 122.234 70.3217 122.277 70.472C122.32 70.6222 122.399 70.76 122.506 70.874C122.613 70.9879 122.746 71.0747 122.893 71.1272C123.041 71.1797 123.199 71.1963 123.354 71.1757C123.509 71.1551 123.657 71.0979 123.786 71.0087C123.915 70.9196 124.02 70.8012 124.094 70.6632C124.167 70.5253 124.207 70.3718 124.209 70.2156Z" fill="#F0F0F0"/>
<path d="M106.123 133.829C107.815 133.829 109.187 132.461 109.187 130.772C109.187 129.084 107.815 127.716 106.123 127.716C104.431 127.716 103.059 129.084 103.059 130.772C103.059 132.461 104.431 133.829 106.123 133.829Z" fill="#F2F2F2"/>
<path d="M76.4506 131.938C76.4506 131.938 68.8129 136.901 70.8325 140.198C70.9021 140.312 61.7093 152.426 61.7093 152.426L44.3556 151.327L43.7441 157.123L59.1937 161.587C59.1937 161.587 62.9733 164.358 65.8931 161.305C68.8129 158.253 78.5385 148.905 78.5385 148.905L79.0076 167.778L74.1254 193.931L81.4151 193.47L88.5102 167.232L91.1292 137.511L76.4506 131.938Z" fill="#2F2E41"/>
<path d="M81.891 102.156L78.6792 104.585L75.0184 112.381L78.5386 117.151C78.5386 117.151 81.4996 122.271 76.76 127.23C72.0204 132.189 68.3809 137.485 72.1745 137.296C75.9681 137.107 91.3326 144.904 91.4337 138.516C91.5348 132.128 91.7394 127.23 91.7394 127.23L95.7677 117.036C95.7677 117.036 98.1676 110.954 96.4826 109.134C94.7977 107.313 92.5416 104.987 92.5416 104.987L88.4389 100.894H84.7343L81.891 102.156Z" fill="#0D9488"/>
<path d="M87.8866 87.1775C95.0919 91.2686 89.1767 102.063 81.837 98.2191C74.6319 94.1282 80.5471 83.3339 87.8866 87.1775Z" fill="#A0616A"/>
<path d="M91.7394 89.4459C91.2346 90.1011 90.1798 89.7938 88.1141 90.2614C88.1187 89.5628 88.0378 88.8662 87.8733 88.1871C87.7196 89.0279 87.3828 89.8248 86.8866 90.5215C85.093 90.72 87.2917 96.1569 86.3734 100.154C85.1901 91.7211 82.7013 93.9305 83.9586 95.6032C84.7635 96.674 84.2269 99.8865 81.8122 98.2803C77.828 100.17 72.1533 90.7844 78.4426 86.3829C78.3302 84.0037 80.9833 83.6279 82.6171 84.3594C86.582 81.4123 91.1119 85.1885 91.7394 89.4459Z" fill="#2F2E41"/>
<path d="M73.2521 83.2923C71.6479 93.1335 63.0496 81.4824 59.0068 91.1671C57.7356 94.6744 59.9166 97.1833 61.2961 100.095C61.611 102.487 58.4917 103.701 58.1649 105.903C58.074 110.952 66.2375 110.643 68.5197 107.458C70.8646 104.123 68.0644 99.6491 69.4739 96.0699C71.4549 91.1007 79.5113 91.0638 80.2132 85.2826C78.8539 83.3512 75.1989 81.1392 73.2521 83.2923Z" fill="#2F2E41"/>
<path d="M79.7505 84.254C79.698 84.276 79.6456 84.298 79.5986 84.3228H79.5958C79.5517 84.3449 79.5075 84.3669 79.4633 84.3917C79.4577 84.3945 79.455 84.3973 79.4495 84.4C79.3915 84.3449 79.3335 84.2898 79.2727 84.2347C79.257 84.3244 79.2607 84.4165 79.2837 84.5047L79.292 84.5378C79.3473 84.5957 79.4053 84.6508 79.466 84.7087C79.5213 84.6673 79.5738 84.6233 79.629 84.5819C79.6622 84.5544 79.6953 84.5268 79.7312 84.4992C79.7367 84.4276 79.745 84.3449 79.7533 84.2539L79.7505 84.254ZM81.4133 81.1893C80.1814 80.9082 79.7837 82.5149 79.6649 83.2894C79.2174 80.4782 77.3558 81.3629 77.9994 83.2811C78.2045 83.849 78.5273 84.3673 78.9468 84.8024C79.0048 84.8685 79.0683 84.9347 79.1346 85.0008C79.06 85.3866 79.4357 85.2874 79.9439 84.9319C80.3192 84.6656 80.6662 84.3618 80.9797 84.0252C81.9933 82.9642 82.7833 81.5448 81.4133 81.1893ZM81.452 82.7712C81.0719 83.2602 80.6455 83.7115 80.1787 84.1189C80.0323 84.2512 79.8831 84.378 79.7312 84.4992C79.7284 84.524 79.7284 84.5461 79.7257 84.5654C79.715 84.5921 79.7021 84.618 79.687 84.6425C79.5323 84.9209 79.3583 84.7693 79.292 84.5378C79.2865 84.5295 79.2782 84.5213 79.2727 84.513C79.052 84.2855 78.86 84.0319 78.7009 83.7579C77.5602 81.7846 79.397 80.4424 79.3058 84.1272C79.289 84.161 79.2778 84.1973 79.2727 84.2347C79.257 84.3244 79.2607 84.4165 79.2837 84.5047L79.292 84.5378C79.3473 84.5957 79.4053 84.6508 79.466 84.7087C79.5213 84.6673 79.5738 84.6233 79.629 84.5819C79.6622 84.5544 79.6953 84.5268 79.7312 84.4992C79.7367 84.4276 79.745 84.3449 79.7533 84.2539V84.2512C79.8251 83.5126 80.0212 82.1842 80.3831 81.8232C81.1785 81.2141 82.2088 81.8728 81.452 82.7712ZM79.7505 84.254C79.698 84.276 79.6456 84.298 79.5986 84.3228H79.5958C79.5517 84.3449 79.5075 84.3669 79.4633 84.3917C79.4577 84.3945 79.455 84.3973 79.4495 84.4C79.3915 84.3449 79.3335 84.2898 79.2727 84.2347C79.257 84.3244 79.2607 84.4165 79.2837 84.5047L79.292 84.5378C79.3473 84.5957 79.4053 84.6508 79.466 84.7087C79.5213 84.6673 79.5738 84.6233 79.629 84.5819C79.6622 84.5544 79.6953 84.5268 79.7312 84.4992C79.7367 84.4276 79.745 84.3449 79.7533 84.2539L79.7505 84.254Z" fill="#2F2E41"/>
<path d="M146.348 138.512L143.686 145.437L131.203 170.006L142.172 198.589L147.833 197.097L143.167 170.006L156.554 153.777L172.452 164.536C172.452 164.536 179.502 170.028 182.185 164.821C184.867 159.615 202.223 148.54 202.223 148.54L197.929 143.97L177.943 153.303L164.148 133.929L146.348 138.512Z" fill="#2F2E41"/>
<path d="M159.775 105.849L155.395 101.153L147.88 100.122L138.673 106.553L138.766 113.672L143.317 130.446C143.317 130.446 141.583 142.498 146.426 142.377C151.268 142.257 153.908 139.848 155.88 140.338C157.852 140.828 166.236 142.915 166.768 140.729C167.299 138.543 170.123 140.109 169.999 138.041C169.875 135.973 162.354 121.067 162.354 121.067L164.224 106.159L159.775 105.849Z" fill="#0D9488"/>
<path d="M187.512 84.2324C187.551 84.6219 187.504 85.0152 187.374 85.3846C187.245 85.754 187.035 86.0906 186.761 86.3706C186.487 86.6506 186.155 86.8672 185.788 87.0053C185.421 87.1433 185.028 87.1993 184.637 87.1695L174.563 106.286L171.859 102.143L182.155 84.1015C182.249 83.4492 182.58 82.8539 183.084 82.4285C183.588 82.003 184.231 81.7769 184.892 81.7931C185.552 81.8092 186.183 82.0665 186.666 82.516C187.149 82.9656 187.45 83.5763 187.512 84.2324Z" fill="#FFB6B6"/>
<path d="M155.798 109.403C155.798 109.403 155.399 112.804 159.235 113.646C163.072 114.487 173.701 108.427 175.443 107.502C175.989 107.212 176.729 105.791 177.489 103.977C177.83 103.162 178.175 102.268 178.508 101.361C178.701 100.836 179.623 100.692 179.805 100.172C179.985 99.6542 179.425 98.7592 179.588 98.2713C180.365 95.9555 180.914 94.1182 180.914 94.1182L178.372 89.3524C174.815 91.2283 172.991 95.3604 171.65 100.121L155.798 109.403Z" fill="#0D9488"/>
<path d="M110.992 88.6223C111.052 89.0092 111.196 89.3782 111.414 89.7035C111.632 90.0288 111.919 90.3024 112.255 90.5051C112.59 90.7078 112.967 90.8346 113.357 90.8765C113.747 90.9185 114.141 90.8747 114.512 90.748L129.06 106.74L130.639 102.054L116.145 87.158C115.891 86.5499 115.422 86.0561 114.827 85.7701C114.232 85.4842 113.552 85.4259 112.917 85.6064C112.282 85.7869 111.735 86.1936 111.38 86.7495C111.026 87.3053 110.888 87.9717 110.992 88.6223Z" fill="#FFB6B6"/>
<path d="M148.01 105.073C148.01 105.073 149.249 108.266 145.746 110.039C142.243 111.812 130.432 108.599 128.513 108.138C127.912 107.993 126.839 106.803 125.648 105.235C125.113 104.532 124.555 103.752 124.005 102.957C123.687 102.497 122.758 102.589 122.452 102.13C122.147 101.674 122.465 100.668 122.184 100.236C120.852 98.1877 119.859 96.5462 119.859 96.5462L121.125 91.2971C125.039 92.2253 127.841 95.7705 130.334 100.045L148.01 105.073Z" fill="#0D9488"/>
<path d="M151.787 98.9269C155.736 98.9269 158.937 95.733 158.937 91.793C158.937 87.8531 155.736 84.6591 151.787 84.6591C147.839 84.6591 144.638 87.8531 144.638 91.793C144.638 95.733 147.839 98.9269 151.787 98.9269Z" fill="#FFB6B6"/>
<path d="M159.949 87.7083C159.197 86.5474 157.785 85.7736 156.417 85.9911C156.29 85.1198 155.925 84.3002 155.364 83.6213C154.802 82.9425 154.064 82.4304 153.231 82.141C152.397 81.8515 151.5 81.7958 150.637 81.9797C149.774 82.1637 148.979 82.5804 148.337 83.1843C148.125 83.036 147.88 82.9446 147.623 82.9189C147.366 82.8933 147.106 82.9343 146.87 83.0379C146.399 83.2515 145.989 83.5796 145.679 83.9922C144.893 84.969 144.389 86.14 144.218 87.3805C144.047 88.621 144.216 89.8846 144.707 91.0367C144.54 90.4301 145.149 89.8595 145.765 89.7234C146.38 89.5873 147.026 89.7161 147.65 89.6275C148.45 89.5139 149.169 89.0508 149.971 88.9466C150.65 88.9025 151.332 88.9899 151.978 89.204C152.624 89.418 153.304 89.5092 153.984 89.4728C154.659 89.3929 155.527 91.9429 155.516 93.7389C155.513 94.0793 155.584 94.5163 155.917 94.5885C156.328 94.6775 156.565 94.1121 156.956 93.958C157.136 93.9065 157.329 93.9268 157.495 94.0146C157.66 94.1023 157.785 94.2507 157.843 94.4285C157.892 94.6092 157.897 94.7991 157.858 94.9823C157.819 95.1654 157.737 95.3366 157.618 95.4816C157.378 95.769 157.093 96.0158 156.773 96.2125L156.934 96.346C157.087 96.5071 157.291 96.6101 157.512 96.6375C157.732 96.6648 157.956 96.6147 158.143 96.4959C158.512 96.2465 158.811 95.9071 159.011 95.5098C159.765 94.3461 160.304 93.057 160.603 91.7036C160.855 90.3444 160.701 88.8693 159.949 87.7083Z" fill="#2F2E41"/>
<path d="M212.842 115.845C203.62 122.814 185.271 120.612 179.576 132.55C162.335 168.695 147.585 141.162 132.49 138.184L132.351 137.446C147.462 138.696 163.672 136.756 179.226 131.834C193.283 127.386 205.824 120.77 215.494 112.708L216 113.339C214.979 114.19 213.927 115.026 212.842 115.845Z" fill="#F2F2F2"/>
<path d="M173.852 210.513C173.632 211.162 48.2278 211.162 47.9908 210.515C48.2102 209.864 173.614 209.864 173.852 210.513Z" fill="#CCCCCC"/>
</g>
<defs>
<clipPath id="clip0_3588_660">
<rect width="192" height="182" fill="white" transform="translate(24 29)"/>
</clipPath>
</defs>
</svg>
