<svg width="240" height="240" viewBox="0 0 240 240" fill="none" xmlns="http://www.w3.org/2000/svg">
<path d="M106.854 138.928L91.5725 142.284C91.5725 142.284 88.4564 141.939 91.4114 137.703C91.6768 137.321 91.9918 136.911 92.3619 136.465L100.282 132.682L100.208 132.173L98.5221 120.594L97.8702 116.113L102.841 111.614L103.79 110.754L116.405 122.115L116.314 122.277L111.042 131.557L106.854 138.928Z" fill="#ED9DA0"/>
<path d="M101.204 135.553L85.922 138.91C85.6925 138.885 85.4712 138.812 85.2725 138.697C85.0739 138.583 84.9026 138.428 84.7698 138.244C84.6371 138.06 84.5459 137.851 84.5024 137.63C84.4589 137.409 84.4641 137.182 84.5175 136.963C84.5915 136.53 84.7307 136.11 84.9306 135.717C85.4159 134.776 86.0137 133.894 86.7115 133.09L94.6314 129.307L93.6601 122.638L93.1766 119.313L92.8635 117.163L92.2197 112.738L98.1395 107.379L104.587 113.184L110.755 118.741L109.922 120.203L108.93 121.951L104.167 130.339L103.196 132.047L101.204 135.553Z" fill="#ED9DA0"/>
<path d="M127.772 133.209C127.772 133.209 122.046 132.838 119.904 129.066C119.226 127.818 118.965 126.395 119.157 124.995L116.823 120.504L113.501 114.104L105.028 112.801L104.586 113.183L98.4421 118.498L96.5624 120.124L93.6597 122.637L79.5833 134.814C79.0228 135.787 78.3026 136.663 77.4513 137.408C76.6692 138.116 75.8085 138.736 74.8851 139.257C72.1992 140.774 68.1841 141.954 62.4098 141.335L31.9745 149.221L29 129.347L54.5278 121.175L91.9661 97.3314L117.239 103.629L128.959 119.831L127.772 133.209Z" fill="#ED9DA0"/>
<path d="M206.13 131.292L132.967 156.477C131.158 157.097 129.171 156.994 127.441 156.189C125.71 155.384 124.378 153.944 123.737 152.185L111.167 117.573C110.53 115.812 110.637 113.877 111.463 112.192C112.29 110.508 113.769 109.211 115.576 108.586L188.739 83.4004C190.548 82.7802 192.535 82.8838 194.266 83.6884C195.996 84.4931 197.328 85.9331 197.97 87.6926L210.538 122.304C211.175 124.065 211.068 126 210.242 127.685C209.416 129.369 207.937 130.666 206.129 131.291L206.13 131.292Z" fill="#0F766E"/>
<path opacity="0.096" d="M210.539 122.303L210.605 122.487C210.907 123.32 211.038 124.202 210.99 125.084C210.942 125.966 210.716 126.831 210.325 127.628C209.934 128.425 209.385 129.139 208.711 129.729C208.036 130.32 207.249 130.776 206.393 131.07L132.865 156.381C131.138 156.975 129.239 156.877 127.586 156.109C125.933 155.34 124.661 153.963 124.05 152.282L123.983 152.099L210.539 122.303Z" fill="#F2F2F2"/>
<path d="M128.402 116.621C123.552 119.728 117.337 117.39 115.163 113.984L115.51 113.792C119.638 111.287 125.769 112.683 128.402 116.621Z" fill="#F2F2F2"/>
<path d="M189.174 125.436C187.987 125.845 186.918 125.826 185.997 125.381C183.914 124.373 182.939 121.387 182.153 118.986C181.924 118.288 181.709 117.629 181.489 117.09L181.486 117.081C181.104 116.012 181.17 114.839 181.671 113.818C182.172 112.796 183.066 112.008 184.161 111.625L194.001 108.237C195.187 107.829 196.254 107.848 197.174 108.293C199.255 109.299 200.233 112.285 201.019 114.683C201.247 115.383 201.464 116.044 201.684 116.583C202.069 117.654 202.003 118.828 201.502 119.851C201.002 120.875 200.106 121.664 199.011 122.048L189.174 125.436ZM181.898 116.937C182.122 117.49 182.34 118.154 182.57 118.857C183.33 121.18 184.276 124.071 186.191 124.998C187.014 125.396 187.941 125.407 189.027 125.034L198.865 121.647C199.85 121.302 200.656 120.592 201.107 119.672C201.559 118.752 201.619 117.696 201.275 116.733C201.052 116.188 200.834 115.52 200.602 114.813C199.842 112.491 198.895 109.601 196.98 108.676C196.159 108.278 195.232 108.267 194.148 108.64L184.308 112.027C183.324 112.372 182.519 113.081 182.068 114C181.617 114.919 181.557 115.974 181.9 116.937L181.898 116.937Z" fill="#F2F2F2"/>
<path d="M126.362 117.741C124.633 118.324 122.77 118.424 120.985 118.028C118.379 117.472 116.013 115.956 114.812 114.074L114.692 113.886L115.233 113.586C119.424 111.045 125.709 112.423 128.42 116.48L128.539 116.657L128.357 116.774C127.735 117.174 127.065 117.498 126.362 117.741ZM115.309 114.036C116.485 115.736 118.672 117.096 121.079 117.611C123.419 118.143 125.881 117.756 127.93 116.534C125.277 112.798 119.398 111.558 115.462 113.951L115.309 114.036Z" fill="#3F3D56"/>
<path d="M128.932 142.582C128.318 142.818 127.649 142.888 126.997 142.783C126.345 142.677 125.735 142.401 125.232 141.984C124.644 141.483 124.198 140.843 123.937 140.126C123.676 139.409 123.609 138.638 123.743 137.888C123.868 137.243 124.173 136.644 124.626 136.157C125.078 135.67 125.66 135.315 126.308 135.131L139.419 130.617C140.042 130.366 140.723 130.287 141.389 130.389C142.054 130.491 142.678 130.77 143.191 131.195C143.779 131.696 144.225 132.336 144.485 133.053C144.746 133.771 144.812 134.541 144.677 135.291C144.419 136.608 143.506 137.579 142.113 138.043L129.001 142.557L128.932 142.582ZM126.389 135.555C125.83 135.723 125.328 136.037 124.937 136.462C124.547 136.887 124.283 137.407 124.174 137.967C124.053 138.642 124.113 139.337 124.348 139.983C124.582 140.629 124.984 141.206 125.514 141.657C125.969 142.032 126.521 142.277 127.11 142.365C127.699 142.453 128.301 142.381 128.85 142.156L141.967 137.64C142.54 137.479 143.056 137.167 143.458 136.738C143.86 136.31 144.132 135.781 144.245 135.211C144.366 134.535 144.306 133.841 144.071 133.195C143.836 132.548 143.434 131.972 142.904 131.521C142.449 131.146 141.896 130.901 141.307 130.813C140.718 130.724 140.115 130.796 139.565 131.02L126.446 135.536L126.386 135.556L126.389 135.555Z" fill="#F2F2F2"/>
<path d="M189.261 115.253L185.128 116.676C184.992 116.723 184.848 116.743 184.704 116.736C184.56 116.728 184.42 116.693 184.29 116.633C184.16 116.572 184.043 116.488 183.947 116.383C183.851 116.279 183.776 116.157 183.728 116.025C183.68 115.893 183.66 115.753 183.667 115.613C183.675 115.473 183.711 115.336 183.773 115.209C183.835 115.083 183.922 114.969 184.029 114.875C184.136 114.782 184.261 114.709 184.397 114.663L188.53 113.24C188.805 113.145 189.106 113.161 189.369 113.283C189.631 113.405 189.833 113.624 189.93 113.891C190.027 114.158 190.011 114.451 189.885 114.707C189.76 114.962 189.535 115.159 189.261 115.253Z" fill="#D6D6E3"/>
<path d="M190.43 118.473L186.297 119.896C186.023 119.99 185.721 119.974 185.459 119.852C185.196 119.73 184.994 119.512 184.898 119.245C184.801 118.978 184.817 118.684 184.942 118.429C185.067 118.173 185.292 117.977 185.566 117.882L189.7 116.459C189.974 116.365 190.275 116.38 190.538 116.503C190.8 116.625 191.002 116.843 191.099 117.11C191.196 117.377 191.18 117.671 191.054 117.926C190.929 118.182 190.705 118.378 190.43 118.473Z" fill="#D6D6E3"/>
<path d="M191.599 121.692L187.466 123.115C187.33 123.162 187.186 123.182 187.043 123.175C186.899 123.167 186.758 123.132 186.628 123.072C186.498 123.011 186.382 122.927 186.285 122.822C186.189 122.718 186.115 122.596 186.067 122.464C186.019 122.332 185.998 122.192 186.006 122.052C186.013 121.912 186.049 121.775 186.111 121.648C186.173 121.522 186.26 121.408 186.367 121.314C186.474 121.221 186.599 121.148 186.735 121.102L190.869 119.679C191.143 119.584 191.444 119.6 191.707 119.722C191.969 119.844 192.171 120.062 192.268 120.329C192.365 120.596 192.349 120.89 192.224 121.146C192.098 121.401 191.874 121.598 191.599 121.692Z" fill="#D6D6E3"/>
<path d="M196.495 112.763L192.361 114.186C192.087 114.28 191.786 114.265 191.523 114.143C191.261 114.021 191.059 113.802 190.962 113.535C190.865 113.268 190.881 112.974 191.006 112.719C191.132 112.463 191.356 112.267 191.631 112.173L195.764 110.749C196.038 110.655 196.34 110.671 196.602 110.793C196.865 110.915 197.066 111.133 197.163 111.4C197.26 111.667 197.244 111.961 197.119 112.216C196.994 112.472 196.769 112.668 196.495 112.763Z" fill="#D6D6E3"/>
<path d="M197.664 115.982L193.53 117.406C193.395 117.452 193.251 117.472 193.107 117.465C192.963 117.458 192.822 117.423 192.692 117.362C192.562 117.302 192.446 117.217 192.35 117.113C192.253 117.009 192.179 116.887 192.131 116.755C192.083 116.622 192.062 116.482 192.07 116.342C192.078 116.202 192.114 116.065 192.176 115.939C192.238 115.812 192.325 115.699 192.432 115.605C192.539 115.511 192.664 115.439 192.8 115.392L196.933 113.969C197.207 113.875 197.509 113.89 197.771 114.012C198.034 114.134 198.236 114.353 198.332 114.62C198.429 114.887 198.413 115.181 198.288 115.436C198.163 115.692 197.938 115.888 197.664 115.982Z" fill="#D6D6E3"/>
<path d="M198.833 119.202L194.699 120.624C194.564 120.671 194.42 120.691 194.276 120.684C194.132 120.676 193.991 120.642 193.861 120.581C193.731 120.521 193.615 120.436 193.519 120.332C193.422 120.227 193.348 120.106 193.3 119.973C193.252 119.841 193.231 119.701 193.239 119.561C193.247 119.421 193.282 119.284 193.345 119.157C193.407 119.031 193.494 118.918 193.601 118.824C193.708 118.73 193.833 118.658 193.969 118.611L198.102 117.188C198.238 117.141 198.382 117.121 198.526 117.128C198.669 117.136 198.81 117.171 198.94 117.231C199.07 117.292 199.187 117.376 199.283 117.481C199.379 117.585 199.453 117.707 199.501 117.839C199.549 117.971 199.57 118.111 199.563 118.251C199.555 118.391 199.519 118.528 199.457 118.655C199.395 118.781 199.308 118.895 199.201 118.989C199.094 119.082 198.969 119.155 198.833 119.202Z" fill="#D6D6E3"/>
<path d="M200.718 95.2583L114.152 125.022L114.298 125.425L200.864 95.6607L200.718 95.2583Z" fill="#3F3D56"/>
<path d="M206.13 131.292L132.967 156.477C131.158 157.097 129.171 156.994 127.441 156.189C125.71 155.384 124.378 153.944 123.737 152.185L111.167 117.573C110.53 115.812 110.637 113.877 111.463 112.192C112.29 110.508 113.769 109.211 115.576 108.586L188.739 83.4004C190.548 82.7802 192.535 82.8838 194.266 83.6884C195.996 84.4931 197.328 85.9331 197.97 87.6926L210.538 122.304C211.175 124.065 211.068 126 210.242 127.685C209.416 129.369 207.937 130.666 206.129 131.291L206.13 131.292ZM115.723 108.988C114.025 109.574 112.635 110.793 111.858 112.376C111.082 113.959 110.982 115.777 111.581 117.431L124.149 152.042C124.751 153.696 126.003 155.049 127.629 155.805C129.254 156.561 131.122 156.658 132.821 156.075L205.984 130.889C207.682 130.303 209.071 129.084 209.848 127.501C210.624 125.918 210.724 124.1 210.126 122.446L197.557 87.8357C196.955 86.1822 195.704 84.8287 194.078 84.0723C192.452 83.3159 190.585 83.2184 188.885 83.801L115.723 108.988Z" fill="#3F3D56"/>
<path opacity="0.15" d="M94.1065 136.749L93.8749 136.24L103.307 132.168L105.555 124.487L102.167 121.82L102.526 121.387L106.209 124.286L103.783 132.57L94.1065 136.749Z" fill="black"/>
<path opacity="0.1" d="M84.9304 135.718L82.4512 136.894L77.452 137.409C76.6693 138.116 75.8081 138.736 74.8842 139.257L70.4999 139.115L63.0949 138.89L88.129 118.106L93.1757 119.313C93.1757 119.313 84.6966 136.203 84.9304 135.718Z" fill="black"/>
<path d="M119.904 129.067C119.247 129.19 118.527 129.292 117.73 129.37C113.62 129.77 104.932 130.302 104.166 130.339C99.0202 130.575 95.7848 130.572 95.7848 130.572L84.9304 135.718L82.4512 136.894L62.3559 138.966L89.5667 116.375L92.863 117.163L98.4421 118.498L104.589 119.97L109.922 120.203L116.823 120.505L122.401 120.748C123.368 120.781 124.281 121.185 124.943 121.871C125.605 122.558 125.961 123.471 125.933 124.412C125.846 126.204 124.569 128.184 119.904 129.067Z" fill="#ED9DA0"/>
<path opacity="0.15" d="M122.02 127.705C121.931 127.678 119.835 127.036 119.17 125.24C118.723 124.033 119.038 122.62 120.105 121.04L120.583 121.346C119.62 122.769 119.325 124.015 119.706 125.048C120.271 126.581 122.168 127.167 122.187 127.172L122.02 127.705Z" fill="black"/>
<path opacity="0.15" d="M94.9062 130.678L85.3035 135.233L85.5538 135.734L95.1565 131.178L94.9062 130.678Z" fill="black"/>
<path opacity="0.15" d="M91.3208 117.766L104.924 112.543L105.133 113.061L93.3784 117.574L103.369 119.391L103.263 119.938L91.3208 117.766Z" fill="black"/>
</svg>
