<svg width="240" height="240" viewBox="0 0 240 240" fill="none" xmlns="http://www.w3.org/2000/svg">
<path d="M197.132 64.7696H42.8681C42.1409 64.7767 41.4462 65.0722 40.9364 65.5914C40.4267 66.1106 40.1434 66.811 40.1487 67.5391V172.467C40.1445 173.194 40.4284 173.893 40.9381 174.411C41.4478 174.929 42.1418 175.224 42.8681 175.23H197.132C197.858 175.224 198.552 174.929 199.062 174.411C199.571 173.893 199.855 173.194 199.851 172.467V67.5391C199.856 66.8111 199.573 66.1107 199.063 65.5916C198.554 65.0724 197.859 64.7768 197.132 64.7696H197.132Z" fill="#090814"/>
<path d="M192.673 65.4024H43.1316C42.4318 65.4037 41.7612 65.6829 41.2669 66.1787C40.7725 66.6745 40.4948 67.3463 40.4947 68.0469V168.244C40.4957 168.944 40.7739 169.615 41.2681 170.11C41.7624 170.605 42.4325 170.883 43.1316 170.884H192.673C193.372 170.883 194.042 170.605 194.536 170.11C195.03 169.615 195.308 168.944 195.309 168.244V68.0471C195.309 67.3468 195.032 66.6751 194.538 66.1793C194.044 65.6835 193.373 65.4042 192.674 65.4026L192.673 65.4024Z" fill="white"/>
<path d="M120.146 136.674C119.311 136.671 118.48 136.564 117.672 136.354L117.512 136.31L117.364 136.236C112.022 133.554 107.514 130.012 103.967 125.707C101.031 122.123 98.7422 118.054 97.203 113.682C95.3624 108.448 94.4769 102.925 94.5888 97.3777C94.591 97.2613 94.593 97.1713 94.593 97.1093C94.593 94.4126 96.0882 92.0463 98.4022 91.0809C100.173 90.3422 116.253 83.7298 117.415 83.252C119.603 82.1545 121.937 83.0707 122.311 83.2308C123.148 83.5738 138.013 89.6608 141.226 91.1921C144.536 92.7705 145.419 95.6057 145.419 97.0319C145.419 103.49 144.302 109.526 142.099 114.971C140.319 119.379 137.797 123.448 134.642 127.002C128.556 133.859 122.467 136.29 122.408 136.312C121.681 136.563 120.915 136.685 120.146 136.674L120.146 136.674ZM118.714 133.123C119.242 133.242 120.458 133.42 121.25 133.13C122.256 132.763 127.352 130.118 132.114 124.752C138.693 117.339 142.031 108.021 142.037 97.0559C142.025 96.8337 141.867 95.2494 139.771 94.2502C136.621 92.7485 121.171 86.4233 121.015 86.3597L120.972 86.3415C120.649 86.2057 119.618 85.9195 118.908 86.2921L118.766 86.3585C118.593 86.4293 101.524 93.448 99.704 94.2074C98.4306 94.7386 97.9769 96.0545 97.9769 97.1091C97.9769 97.1861 97.9749 97.2983 97.9721 97.4431C97.8265 104.946 99.5606 123.408 118.714 133.123V133.123Z" fill="#3F3D56"/>
<path d="M118.082 84.7458C118.082 84.7458 100.858 91.8283 99.0121 92.5982C97.1665 93.3682 96.244 95.2155 96.244 97.0632C96.244 98.911 94.8599 123.019 118.082 134.675C118.082 134.675 120.189 135.259 121.788 134.675C123.387 134.092 143.687 124.237 143.687 96.9861C143.687 96.9861 143.687 94.2148 140.457 92.675C137.228 91.1353 121.614 84.746 121.614 84.746C121.614 84.746 119.697 83.8986 118.082 84.7458Z" fill="#0D9488"/>
<path opacity="0.1" d="M119.968 90.3345V128.116C119.968 128.116 102.591 119.741 102.744 97.7242L119.968 90.3345Z" fill="black"/>
<path d="M117.728 118.774C117.19 118.775 116.667 118.601 116.236 118.278L116.21 118.258L110.59 113.951C110.322 113.754 110.095 113.506 109.923 113.221C109.752 112.935 109.639 112.618 109.591 112.288C109.544 111.959 109.563 111.623 109.647 111.3C109.731 110.978 109.878 110.676 110.081 110.411C110.283 110.147 110.536 109.926 110.825 109.76C111.114 109.595 111.433 109.49 111.764 109.45C112.094 109.41 112.429 109.436 112.749 109.528C113.069 109.62 113.367 109.774 113.627 109.983L117.266 112.777L125.867 101.547C126.27 101.021 126.865 100.677 127.522 100.591C128.178 100.504 128.842 100.682 129.367 101.085L129.314 101.157L129.369 101.086C129.893 101.49 130.237 102.085 130.323 102.742C130.41 103.399 130.233 104.064 129.831 104.59L119.714 117.799C119.48 118.103 119.179 118.35 118.835 118.519C118.49 118.688 118.112 118.775 117.728 118.774L117.728 118.774Z" fill="white"/>
<path d="M123.396 148.167H115.405C114.082 148.167 113.008 149.241 113.008 150.567C113.008 151.892 114.082 152.967 115.405 152.967H123.396C124.72 152.967 125.793 151.892 125.793 150.567C125.793 149.241 124.72 148.167 123.396 148.167Z" fill="#E6E6E6"/>
<path d="M124.295 153.567C125.895 153.567 127.191 152.268 127.191 150.667C127.191 149.065 125.895 147.767 124.295 147.767C122.695 147.767 121.398 149.065 121.398 150.667C121.398 152.268 122.695 153.567 124.295 153.567Z" fill="#0D9488"/>
</svg>
