<svg width="240" height="240" viewBox="0 0 240 240" fill="none" xmlns="http://www.w3.org/2000/svg">
<g clip-path="url(#clip0_3682_848)">
<path d="M197.131 65.4188H42.8691C42.1419 65.4258 41.4472 65.7178 40.9374 66.2309C40.4276 66.744 40.1444 67.4362 40.1497 68.1557V171.85C40.1455 172.568 40.4294 173.259 40.9391 173.771C41.4488 174.283 42.1428 174.574 42.8691 174.581H197.131C197.857 174.574 198.551 174.283 199.061 173.771C199.57 173.259 199.854 172.568 199.85 171.85V68.1557C199.855 67.4363 199.572 66.7441 199.063 66.2311C198.553 65.718 197.858 65.4259 197.131 65.4188H197.131Z" fill="#090814"/>
<path d="M192.672 66.0441H43.1328C42.4331 66.0455 41.7625 66.3214 41.2681 66.8113C40.7738 67.3013 40.4961 67.9652 40.496 68.6575V167.677C40.497 168.368 40.7751 169.031 41.2694 169.521C41.7637 170.01 42.4338 170.285 43.1328 170.286H192.672C193.371 170.285 194.041 170.01 194.535 169.521C195.03 169.031 195.308 168.368 195.309 167.677V68.6577C195.309 67.9656 195.031 67.3018 194.537 66.8119C194.043 66.3219 193.373 66.0459 192.673 66.0443L192.672 66.0441Z" fill="white"/>
<path d="M156.384 124.881C156.937 125.172 157.625 124.962 157.921 124.413C158.217 123.863 158.008 123.182 157.455 122.892C156.902 122.601 156.214 122.811 155.918 123.36C155.622 123.91 155.83 124.591 156.384 124.881Z" fill="#FF6584"/>
<path d="M155.557 137.441C156.11 137.732 156.798 137.522 157.094 136.972C157.39 136.423 157.182 135.742 156.629 135.451C156.075 135.161 155.387 135.37 155.091 135.92C154.795 136.469 155.004 137.15 155.557 137.441Z" fill="#0D9488"/>
<path d="M152.157 107.865C153.172 108.482 154.023 109.33 154.641 110.339C155.259 111.347 155.627 112.488 155.714 113.667C155.737 114 155.795 114.383 155.519 114.634C155.418 114.733 155.286 114.794 155.145 114.808C155.004 114.823 154.862 114.789 154.743 114.713C154.605 114.599 154.51 114.442 154.471 114.268C154.432 114.094 154.452 113.911 154.529 113.749C154.605 113.587 154.733 113.454 154.893 113.371C155.054 113.288 155.236 113.259 155.414 113.289C156.308 113.363 156.786 114.226 157.174 114.919C158.059 116.496 159.123 118.062 160.707 119.021C162.173 119.909 164.116 120.172 165.661 119.309C165.931 119.159 165.679 118.755 165.41 118.905C163.877 119.761 161.937 119.338 160.576 118.366C159.774 117.768 159.082 117.039 158.53 116.209C158.238 115.788 157.971 115.352 157.718 114.908C157.489 114.462 157.22 114.039 156.916 113.641C156.39 113.011 155.484 112.563 154.673 112.95C153.915 113.31 153.725 114.473 154.37 115.026C154.515 115.142 154.686 115.221 154.869 115.255C155.052 115.289 155.24 115.278 155.418 115.222C155.596 115.166 155.758 115.068 155.888 114.935C156.018 114.803 156.113 114.64 156.165 114.463C156.279 114.076 156.199 113.596 156.148 113.204C155.996 112.024 155.579 110.894 154.928 109.898C154.276 108.901 153.407 108.063 152.383 107.445C152.118 107.288 151.892 107.709 152.157 107.865Z" fill="#CCCCCC"/>
<path d="M184.819 106.06C184.013 105.569 183.335 104.895 182.844 104.093C182.352 103.291 182.059 102.384 181.99 101.446C181.972 101.181 181.926 100.876 182.145 100.676C182.226 100.598 182.331 100.55 182.443 100.538C182.555 100.527 182.668 100.553 182.762 100.614C182.871 100.705 182.947 100.829 182.977 100.968C183.008 101.106 182.992 101.251 182.931 101.38C182.87 101.509 182.769 101.614 182.642 101.68C182.515 101.747 182.37 101.77 182.229 101.746C181.518 101.687 181.138 101.001 180.828 100.45C180.125 99.1952 179.279 97.95 178.018 97.187C176.853 96.4813 175.307 96.2713 174.078 96.9576C173.863 97.0776 174.063 97.3991 174.278 97.279C175.497 96.5983 177.04 96.9338 178.123 97.7078C178.76 98.183 179.311 98.7632 179.75 99.4234C179.982 99.7578 180.194 100.105 180.396 100.459C180.578 100.813 180.791 101.15 181.033 101.466C181.452 101.967 182.171 102.323 182.817 102.016C182.961 101.938 183.084 101.828 183.178 101.695C183.272 101.562 183.332 101.409 183.356 101.248C183.379 101.088 183.364 100.924 183.313 100.771C183.261 100.617 183.173 100.478 183.058 100.365C182.943 100.272 182.807 100.209 182.661 100.182C182.516 100.155 182.365 100.164 182.224 100.208C182.083 100.253 181.954 100.331 181.851 100.436C181.747 100.542 181.671 100.671 181.63 100.812C181.569 101.144 181.573 101.484 181.644 101.813C181.764 102.752 182.096 103.651 182.615 104.444C183.133 105.236 183.825 105.903 184.639 106.394C184.85 106.519 185.03 106.184 184.819 106.06Z" fill="#CCCCCC"/>
<path d="M179.922 117.021L178.922 116.496L177.164 119.761L178.164 120.287L179.922 117.021Z" fill="#CCCCCC"/>
<path d="M164.91 106.208L165.983 105.882L164.914 102.41L163.84 102.736L164.91 106.208Z" fill="#B3B3B3"/>
<path d="M145.787 141.126L146.112 142.179L149.627 141.112L149.302 140.059L145.787 141.126Z" fill="#FF6584"/>
<path d="M117.795 141.522C128.051 141.522 136.365 133.296 136.365 123.149C136.365 113.002 128.051 104.776 117.795 104.776C107.539 104.776 99.2252 113.002 99.2252 123.149C99.2252 133.296 107.539 141.522 117.795 141.522Z" fill="#0D9488"/>
<path d="M115.954 130.158C115.536 130.159 115.129 130.025 114.795 129.777L114.775 129.761L110.411 126.459C110.007 126.147 109.744 125.691 109.679 125.189C109.613 124.686 109.752 124.179 110.063 123.777C110.375 123.375 110.834 123.111 111.341 123.043C111.849 122.975 112.363 123.108 112.771 123.413L115.598 125.558L122.278 116.936C122.432 116.736 122.625 116.568 122.846 116.442C123.066 116.315 123.31 116.233 123.562 116.2C123.814 116.167 124.071 116.184 124.317 116.249C124.563 116.314 124.793 116.427 124.995 116.58L124.954 116.637L124.997 116.58C125.404 116.89 125.671 117.347 125.739 117.851C125.806 118.355 125.669 118.866 125.356 119.27L117.499 129.407C117.318 129.64 117.084 129.829 116.816 129.959C116.549 130.089 116.255 130.156 115.957 130.155L115.954 130.158Z" fill="white"/>
<path d="M105.388 109.456C105.209 109.456 105.038 109.385 104.911 109.26C104.785 109.135 104.714 108.965 104.713 108.788C104.712 108.735 104.718 108.683 104.731 108.632L108.227 93.3954C108.253 93.2806 108.31 93.1748 108.391 93.0884C108.471 93.002 108.574 92.9382 108.688 92.9033C108.801 92.8684 108.922 92.8636 109.038 92.8895C109.154 92.9154 109.261 92.971 109.349 93.0507L120.94 103.67C121.027 103.75 121.091 103.851 121.127 103.963C121.162 104.076 121.167 104.195 121.141 104.31C121.115 104.425 121.058 104.531 120.978 104.617C120.897 104.704 120.795 104.768 120.682 104.803L105.592 109.426C105.526 109.446 105.457 109.456 105.388 109.456Z" fill="#3F3D56"/>
<path d="M114.868 98.3181L107.588 96.8846L107.703 96.3843L114.14 97.6504L114.868 98.3181Z" fill="white"/>
<path d="M120.601 103.572L106.681 100.832L106.796 100.329L119.872 102.902L120.601 103.572Z" fill="white"/>
<path d="M115.621 106.192L114.577 106.511L105.777 104.779L105.891 104.276L115.621 106.192Z" fill="white"/>
<path d="M78.4868 131.741C79.3117 131.538 79.8137 130.711 79.608 129.895C79.4024 129.079 78.5669 128.582 77.742 128.786C76.9171 128.989 76.4151 129.816 76.6208 130.632C76.8265 131.448 77.6619 131.945 78.4868 131.741Z" fill="#0D9488"/>
<path d="M64.8 95.6508C65.3891 95.5055 65.7477 94.9151 65.6008 94.3321C65.4539 93.7492 64.8572 93.3945 64.268 93.5398C63.6788 93.6851 63.3203 94.2755 63.4672 94.8585C63.6141 95.4414 64.2108 95.7961 64.8 95.6508Z" fill="#FF6584"/>
<path d="M71.1313 124.138C71.7204 123.993 72.079 123.402 71.9321 122.819C71.7852 122.237 71.1885 121.882 70.5993 122.027C70.0101 122.172 69.6516 122.763 69.7985 123.346C69.9454 123.929 70.5421 124.283 71.1313 124.138Z" fill="#0D9488"/>
<path d="M76.7738 141.133C77.363 140.988 77.7216 140.397 77.5747 139.814C77.4278 139.231 76.831 138.877 76.2419 139.022C75.6527 139.167 75.2941 139.758 75.441 140.341C75.5879 140.924 76.1846 141.278 76.7738 141.133Z" fill="#E6E6E6"/>
<path d="M57.916 105.872C58.5052 105.727 58.8638 105.136 58.7169 104.553C58.57 103.97 57.9733 103.616 57.3841 103.761C56.7949 103.906 56.4363 104.497 56.5832 105.08C56.7301 105.663 57.3269 106.017 57.916 105.872Z" fill="#CCCCCC"/>
<path d="M87.0113 125.344C86.1426 125.052 85.3563 124.56 84.7167 123.909C84.0772 123.258 83.6027 122.467 83.332 121.599C83.2566 121.353 83.1468 121.077 83.3095 120.843C83.3686 120.753 83.457 120.685 83.5603 120.65C83.6635 120.616 83.7755 120.617 83.8778 120.654C84.0008 120.717 84.0994 120.818 84.1585 120.942C84.2176 121.066 84.2339 121.205 84.2049 121.339C84.1759 121.473 84.1032 121.594 83.998 121.683C83.8928 121.772 83.7609 121.824 83.6228 121.832C82.939 121.926 82.4301 121.36 82.0183 120.907C81.0791 119.876 80.0086 118.882 78.6529 118.429C77.3981 118.01 75.8948 118.138 74.8855 119.043C74.709 119.201 74.9685 119.46 75.1448 119.303C76.1457 118.406 77.6755 118.398 78.8657 118.897C79.5712 119.21 80.2174 119.64 80.7762 120.169C81.0684 120.434 81.3449 120.716 81.6123 121.006C81.8617 121.301 82.1369 121.573 82.4349 121.819C82.9395 122.202 83.6958 122.386 84.238 121.961C84.3566 121.858 84.4491 121.728 84.5082 121.583C84.5672 121.438 84.5912 121.282 84.5781 121.126C84.565 120.97 84.5152 120.819 84.4328 120.686C84.3503 120.553 84.2375 120.44 84.1033 120.358C83.9748 120.295 83.8325 120.264 83.6893 120.269C83.5461 120.274 83.4063 120.314 83.2825 120.386C83.1587 120.457 83.0548 120.558 82.9801 120.679C82.9053 120.8 82.8621 120.937 82.8542 121.079C82.8692 121.404 82.9481 121.722 83.0863 122.017C83.4059 122.875 83.9159 123.651 84.5788 124.287C85.2416 124.924 86.0404 125.406 86.9163 125.696C87.1423 125.769 87.2383 125.416 87.0127 125.344L87.0113 125.344Z" fill="#CCCCCC"/>
<path d="M60.4462 117.946L61.3726 118.496L63.2013 115.485L62.275 114.934L60.4462 117.946Z" fill="#B3B3B3"/>
<path d="M60.3087 143.344C61.1336 143.14 61.6356 142.314 61.4299 141.498C61.2243 140.681 60.3888 140.185 59.5639 140.388C58.739 140.592 58.237 141.418 58.4427 142.234C58.6484 143.051 59.4838 143.547 60.3087 143.344Z" fill="#0D9488"/>
</g>
<defs>
<clipPath id="clip0_3682_848">
<rect width="159.7" height="109.162" fill="white" transform="translate(40.15 65.419)"/>
</clipPath>
</defs>
</svg>
