<svg width="240" height="240" viewBox="0 0 240 240" fill="none" xmlns="http://www.w3.org/2000/svg">
<g clip-path="url(#clip0_2270_3116)">
<path d="M40.2735 185.072C40.0812 185.081 39.8908 185.031 39.7282 184.928C39.5655 184.825 39.4384 184.674 39.3642 184.497C39.2899 184.319 39.272 184.123 39.313 183.935C39.3539 183.747 39.4517 183.576 39.593 183.445L39.6574 183.19C39.6489 183.169 39.6404 183.149 39.6318 183.128C39.4381 182.671 39.1135 182.281 38.6987 182.007C38.284 181.734 37.7976 181.589 37.3008 181.591C36.8039 181.592 36.3186 181.741 35.9059 182.018C35.4932 182.294 35.1715 182.687 34.9812 183.146C34.2206 184.977 33.2521 186.812 33.0137 188.748C32.9087 189.604 32.953 190.471 33.1446 191.312C31.3581 187.416 30.4304 183.182 30.4244 178.897C30.4241 177.821 30.4838 176.746 30.6035 175.678C30.7023 174.802 30.8395 173.932 31.015 173.068C31.9725 168.382 34.0284 163.989 37.0138 160.252C38.4587 159.463 39.6272 158.251 40.3619 156.779C40.628 156.25 40.8161 155.685 40.9203 155.101C40.7574 155.123 40.3058 152.641 40.4287 152.489C40.2015 152.144 39.795 151.973 39.5469 151.637C38.3131 149.965 36.6132 150.257 35.7258 152.529C33.8301 153.486 33.8118 155.072 34.975 156.597C35.715 157.568 35.8167 158.881 36.466 159.92C36.3992 160.006 36.3297 160.089 36.2629 160.174C35.0418 161.744 33.9775 163.429 33.0852 165.207C33.3022 163.216 33.0432 161.201 32.3296 159.33C31.6064 157.586 30.2508 156.117 29.057 154.609C27.6231 152.798 24.6828 153.588 24.4302 155.884C24.4277 155.906 24.4253 155.929 24.423 155.951C24.6003 156.051 24.7739 156.157 24.9437 156.269C25.157 156.412 25.3224 156.615 25.418 156.853C25.5136 157.091 25.5351 157.353 25.4796 157.603C25.4241 157.854 25.2942 158.081 25.107 158.257C24.9197 158.432 24.6838 158.547 24.4303 158.586L24.4043 158.59C24.4675 159.229 24.5791 159.862 24.7383 160.484C23.2068 166.405 26.5131 168.561 31.2341 168.658C31.3383 168.711 31.4399 168.765 31.5441 168.815C30.6477 171.355 30.0854 174 29.8714 176.685C29.7502 178.269 29.7573 179.86 29.8927 181.442L29.8847 181.386C29.5427 179.626 28.6036 178.038 27.226 176.89C25.18 175.21 22.2893 174.592 20.082 173.241C19.8474 173.09 19.5747 173.01 19.2959 173.009C19.0171 173.009 18.744 173.088 18.5087 173.237C18.2733 173.387 18.0857 173.6 17.9678 173.853C17.8499 174.105 17.8067 174.386 17.8434 174.662C17.8463 174.682 17.8493 174.702 17.8524 174.721C18.1814 174.855 18.5018 175.01 18.8116 175.184C18.989 175.284 19.1625 175.39 19.3324 175.502C19.5457 175.644 19.711 175.848 19.8066 176.086C19.9022 176.324 19.9237 176.585 19.8682 176.836C19.8127 177.086 19.6828 177.314 19.4956 177.489C19.3084 177.665 19.0725 177.78 18.8189 177.819L18.7929 177.823C18.7742 177.825 18.7582 177.828 18.7395 177.831C19.3017 179.173 20.0908 180.408 21.0722 181.482C22.0298 186.651 26.1426 187.141 30.542 185.636H30.5447C31.0274 187.733 31.7268 189.774 32.6316 191.726H40.0867C40.1134 191.643 40.1374 191.558 40.1615 191.475C39.4714 191.519 38.7787 191.477 38.0986 191.352C38.6518 190.674 39.2049 189.99 39.758 189.311C39.7704 189.299 39.782 189.285 39.7928 189.271C40.0733 188.924 40.3566 188.58 40.6371 188.232L40.6373 188.232C40.6522 187.167 40.5298 186.105 40.2735 185.072Z" fill="#F2F2F2"/>
<path d="M195.985 185.072C196.177 185.081 196.367 185.031 196.53 184.928C196.693 184.825 196.82 184.674 196.894 184.497C196.968 184.319 196.986 184.123 196.945 183.935C196.904 183.747 196.806 183.576 196.665 183.445L196.601 183.19C196.609 183.169 196.618 183.149 196.626 183.128C196.82 182.671 197.145 182.281 197.559 182.007C197.974 181.734 198.46 181.589 198.957 181.591C199.454 181.592 199.94 181.741 200.352 182.018C200.765 182.294 201.087 182.687 201.277 183.146C202.038 184.977 203.006 186.812 203.244 188.748C203.349 189.604 203.305 190.471 203.114 191.312C204.9 187.416 205.828 183.182 205.834 178.897C205.834 177.821 205.774 176.746 205.655 175.678C205.556 174.802 205.419 173.932 205.243 173.068C204.286 168.382 202.23 163.989 199.244 160.252C197.799 159.463 196.631 158.251 195.896 156.779C195.63 156.25 195.442 155.685 195.338 155.101C195.501 155.123 195.952 152.641 195.829 152.489C196.057 152.144 196.463 151.973 196.711 151.637C197.945 149.965 199.645 150.257 200.532 152.529C202.428 153.486 202.446 155.072 201.283 156.597C200.543 157.568 200.441 158.881 199.792 159.92C199.859 160.006 199.928 160.089 199.995 160.174C201.216 161.744 202.281 163.429 203.173 165.207C202.956 163.216 203.215 161.201 203.928 159.33C204.652 157.586 206.007 156.117 207.201 154.609C208.635 152.798 211.575 153.588 211.828 155.884C211.83 155.906 211.833 155.929 211.835 155.951C211.658 156.051 211.484 156.157 211.314 156.269C211.101 156.412 210.936 156.615 210.84 156.853C210.745 157.091 210.723 157.353 210.779 157.603C210.834 157.854 210.964 158.081 211.151 158.257C211.338 158.432 211.574 158.547 211.828 158.586L211.854 158.59C211.791 159.229 211.679 159.862 211.52 160.484C213.051 166.405 209.745 168.561 205.024 168.658C204.92 168.711 204.818 168.765 204.714 168.815C205.61 171.355 206.173 174 206.387 176.685C206.508 178.269 206.501 179.86 206.365 181.442L206.373 181.386C206.715 179.626 207.655 178.038 209.032 176.89C211.078 175.21 213.969 174.592 216.176 173.241C216.411 173.09 216.683 173.01 216.962 173.009C217.241 173.009 217.514 173.088 217.749 173.237C217.985 173.387 218.172 173.6 218.29 173.853C218.408 174.105 218.451 174.386 218.415 174.662C218.412 174.682 218.409 174.702 218.406 174.721C218.077 174.855 217.756 175.01 217.446 175.184C217.269 175.284 217.096 175.39 216.926 175.502C216.712 175.644 216.547 175.848 216.451 176.086C216.356 176.324 216.334 176.585 216.39 176.836C216.445 177.086 216.575 177.314 216.763 177.489C216.95 177.665 217.186 177.78 217.439 177.819L217.465 177.823C217.484 177.825 217.5 177.828 217.519 177.831C216.956 179.173 216.167 180.408 215.186 181.482C214.228 186.651 210.116 187.141 205.716 185.636H205.713C205.231 187.733 204.531 189.774 203.627 191.726H196.171C196.145 191.643 196.121 191.558 196.097 191.475C196.787 191.519 197.479 191.477 198.159 191.352C197.606 190.674 197.053 189.99 196.5 189.311C196.488 189.299 196.476 189.285 196.465 189.271C196.185 188.924 195.902 188.58 195.621 188.232L195.621 188.232C195.606 187.167 195.728 186.105 195.985 185.072Z" fill="#F2F2F2"/>
<path d="M48.8481 191.559H60.8782C62.9357 184.634 60.8892 168.267 63.6012 161.577C68.8043 148.75 75.4513 135.216 87.8578 128.953C93.155 126.278 98.9307 125.234 104.829 125.291C112.977 125.368 121.355 127.554 129.024 130.452C132.162 131.635 135.271 132.936 138.367 134.265C150.033 139.276 161.572 144.734 174.118 146.21C189.993 148.075 208.658 140.975 212.994 125.681C216.303 113.972 210.343 101.815 204.093 91.3578C197.843 80.9004 190.856 69.7114 191.998 57.6038C192.002 57.5632 192.006 57.5185 192.014 57.4779C192.443 53.1291 195.041 50.0037 198.669 48H182.872C182.663 59.2947 189.2 69.2643 195.082 79.108C201.332 89.5614 207.292 101.722 203.983 113.431C199.647 128.721 163.743 110.798 147.868 108.928C143.385 108.404 150.506 110.27 146.232 108.928C139.528 106.827 138.784 126.099 132.26 123.271C128.198 121.507 124.132 119.755 120.013 118.198C118.307 117.552 116.565 116.947 114.802 116.386C114.798 116.386 114.798 116.386 114.794 116.382C102.956 112.634 90.0094 111.175 79.0714 116.593C78.9978 116.63 78.9201 116.666 78.8464 116.703C66.44 122.962 59.793 136.496 54.5898 149.323C50.2907 159.927 50.9669 180.375 48.8481 191.559Z" fill="#F2F2F2"/>
<path d="M115.779 191.205C146.294 191.205 171.032 166.475 171.032 135.969C171.032 105.464 146.294 80.7343 115.779 80.7343C85.2633 80.7343 60.5256 105.464 60.5256 135.969C60.5256 166.475 85.2633 191.205 115.779 191.205Z" fill="white"/>
<path d="M115.621 191.559C60.9534 192.815 59.7547 166.851 59.7547 135.969C59.7547 105.088 84.887 79.964 115.779 79.964C146.67 79.964 171.803 105.088 171.803 135.969C171.803 166.851 146.513 191.559 115.621 191.559ZM115.779 81.505C85.7368 81.505 61.8021 105.942 61.2962 135.969C60.8257 163.899 90.5056 198.75 115.779 190.434C129.332 175.513 167.651 159.441 170.261 135.969C173.581 106.122 145.821 81.505 115.779 81.505Z" fill="#3F3D56"/>
<path d="M108.241 164.717C107.287 164.717 106.346 164.495 105.493 164.068C104.639 163.641 103.897 163.022 103.325 162.259L88.2507 142.166C87.766 141.521 87.4133 140.786 87.2127 140.005C87.0121 139.223 86.9675 138.409 87.0815 137.61C87.1955 136.811 87.4659 136.042 87.8772 135.348C88.2884 134.653 88.8326 134.047 89.4785 133.562C90.1244 133.078 90.8594 132.726 91.6415 132.526C92.4236 132.326 93.2375 132.281 94.0367 132.396C94.8359 132.51 95.6048 132.781 96.2993 133.192C96.9938 133.604 97.6005 134.148 98.0846 134.794L107.946 147.938L133.275 109.957C134.18 108.602 135.586 107.662 137.184 107.343C138.782 107.024 140.441 107.352 141.797 108.256C143.153 109.159 144.094 110.564 144.414 112.161C144.734 113.759 144.407 115.418 143.503 116.774L113.356 161.981C112.81 162.798 112.077 163.473 111.217 163.949C110.356 164.425 109.395 164.687 108.412 164.715C108.355 164.716 108.298 164.717 108.241 164.717Z" fill="#F2F2F2"/>
<path d="M1.76145e-06 191.602C-0.000154102 191.654 0.0100352 191.706 0.0299806 191.755C0.0499259 191.803 0.0792355 191.847 0.116223 191.884C0.15321 191.921 0.197141 191.95 0.245496 191.97C0.293851 191.99 0.345677 192 0.397983 192H239.602C239.708 192 239.809 191.958 239.883 191.883C239.958 191.809 240 191.708 240 191.602C240 191.497 239.958 191.395 239.883 191.321C239.809 191.246 239.708 191.204 239.602 191.204H0.397983C0.345677 191.204 0.293856 191.214 0.245501 191.234C0.197147 191.254 0.153214 191.284 0.116228 191.32C0.079241 191.357 0.0499316 191.401 0.0299857 191.45C0.0100397 191.498 -0.000152326 191.55 1.76145e-06 191.602Z" fill="#CCCCCC"/>
<path d="M151.062 187.702H147.827L146.288 175.227L151.063 175.227L151.062 187.702Z" fill="#FFB6B6"/>
<path d="M151.176 191.076L141.227 191.076V190.95C141.227 189.924 141.635 188.939 142.362 188.213C143.088 187.487 144.073 187.079 145.1 187.079L146.917 185.701L150.308 187.079L151.176 187.079L151.176 191.076Z" fill="#2F2E41"/>
<path d="M136.997 172.241L134.008 173.48L127.806 162.546L132.217 160.718L136.997 172.241Z" fill="#FFB6B6"/>
<path d="M138.395 175.314L129.205 179.124L129.156 179.008C128.763 178.059 128.763 176.994 129.155 176.045C129.548 175.096 130.301 174.342 131.25 173.949L132.401 171.98L136.061 171.955L136.863 171.622L138.395 175.314Z" fill="#2F2E41"/>
<path d="M154.762 116.737L131.801 119.135L128.73 129.476L118.094 146.563C118.094 146.563 125.515 159.051 124.819 158.915C124.122 158.779 125.515 162.183 126.49 161.985C127.466 161.788 128.48 164.007 127.806 164.402C127.131 164.796 129.837 168.133 129.837 168.133L133.973 164.422C134.853 157.788 133.79 151.885 130.003 147.004L141.853 134.216L144.1 133.284L145.883 180.738L152.48 180.846C154.3 171.485 155.215 163.06 153.792 157.05C153.792 157.05 153.996 138.994 154.777 139.192C155.557 139.389 154.895 137.037 154.895 137.037C154.895 137.037 154.212 135.034 155.052 134.203C155.891 133.372 155.367 128.484 155.367 128.484C156.754 123.858 156.337 120.039 154.762 116.737Z" fill="#2F2E41"/>
<path d="M137.108 78.5751L143.455 76.9308L146.418 72.8456L153.455 73.7103L154.952 79.2826L159.962 82.1894C159.962 82.1894 157.193 111.465 157.852 113.073C158.51 114.68 160.872 114.547 158.855 116.62C156.838 118.692 156.571 117.857 157.039 120.113C157.507 122.369 160.918 124.757 157.039 124.733C153.16 124.709 129.75 124.375 130.419 121.701C131.088 119.026 131.078 119.705 132.086 118.028C133.095 116.352 133.773 117.289 133.434 114.814C133.095 112.34 133.429 110.668 133.429 109.331C133.429 107.994 134.55 95.8425 134.55 95.8425L137.108 78.5751Z" fill="#E6E6E6"/>
<path d="M149.919 72.0905C154.037 72.0905 157.375 68.7531 157.375 64.6363C157.375 60.5194 154.037 57.182 149.919 57.182C145.8 57.182 142.462 60.5194 142.462 64.6363C142.462 68.7531 145.8 72.0905 149.919 72.0905Z" fill="#FFB6B6"/>
<path d="M142.105 60.125C142.76 60.6539 142.61 63.2263 143.34 62.807C144.069 62.3877 144.221 61.6369 145.061 61.629C145.746 61.6668 146.392 61.9591 146.873 62.4484C146.962 62.5292 147.047 62.6139 147.13 62.6977C147.205 62.6712 147.28 62.6472 147.358 62.6275C147.947 62.4837 148.569 62.5712 149.096 62.8721C148.61 62.9068 148.147 63.0934 147.772 63.4056C147.933 63.5853 148.096 63.7659 148.267 63.9329C149.695 65.3319 152.623 63.842 154.592 63.5058C152.952 65.2957 153.275 66.2949 153.683 68.6873L153.685 68.818C153.769 68.2663 155.536 68.2938 155.245 69.0258C154.879 69.749 154.421 70.4219 153.882 71.0279C156.291 69.3599 158.235 67.0608 158.665 64.2836C158.753 63.6997 158.925 63.1039 158.759 62.5346C158.688 62.2467 158.524 61.9904 158.292 61.8056C158.06 61.6208 157.774 61.518 157.477 61.5132C157.745 60.6613 157.778 59.7527 157.571 58.8838C157.364 58.015 156.925 57.2185 156.301 56.579C155.678 55.9395 154.892 55.4809 154.029 55.252C153.165 55.0231 152.256 55.0324 151.397 55.2789C150.614 55.5572 149.849 55.8869 149.11 56.2658C148.363 56.6461 147.518 56.7892 146.687 56.6759C146.17 56.5691 145.646 56.3013 145.139 56.4529C144.551 56.6291 144.299 57.2494 144.063 57.8482C144.505 58.0096 144.889 58.2991 145.166 58.6797C144.709 58.5111 144.21 58.4908 143.741 58.6218C143.733 58.6233 143.724 58.6256 143.716 58.6287C143.184 59.5817 143.153 59.8153 142.105 60.125Z" fill="#2F2E41"/>
<path d="M144.564 74.934C140.745 74.6266 137.257 77.5465 135.668 81.0316C134.078 84.5166 133.973 88.4701 133.896 92.2997L133.656 104.204C133.621 105.965 133.585 107.727 133.498 109.487C133.452 111.199 133.237 112.903 132.854 114.573C132.076 117.636 130.363 120.367 128.675 123.04C132.996 124.346 137.391 125.395 141.836 126.182C144.056 119.004 146.302 111.62 145.756 104.126C145.467 100.161 144.4 96.2898 143.995 92.3348C143.421 86.7334 144.182 81.0907 144.942 75.5115" fill="#3F3D56"/>
<path d="M153.835 75.6036C157.618 76.2116 160.312 79.8759 161.029 83.6387C161.745 87.4015 160.907 91.2666 160.072 95.005C159.208 98.8785 158.343 102.752 157.478 106.626C157.094 108.345 156.71 110.065 156.377 111.795C156.054 113.476 157.408 115.632 157.423 117.343C157.452 120.504 156.838 123.108 157.842 126.105C153.334 126.348 148.816 126.324 144.311 126.033C143.859 118.534 143.432 110.828 145.743 103.678C146.965 99.8947 148.921 96.3873 150.254 92.6417C152.143 87.3369 152.744 81.6749 153.331 76.0749" fill="#3F3D56"/>
<path d="M156.357 129.645C156.076 129.155 155.997 128.575 156.137 128.029C156.277 127.482 156.625 127.012 157.107 126.718C157.206 126.659 157.309 126.609 157.417 126.568L156.934 110.149L162.16 108.819L160.167 127.949C160.304 128.406 160.285 128.895 160.113 129.341C159.942 129.786 159.628 130.162 159.221 130.411C158.988 130.55 158.729 130.641 158.461 130.681C158.192 130.72 157.918 130.706 157.655 130.639C157.391 130.573 157.144 130.455 156.926 130.293C156.708 130.131 156.524 129.927 156.385 129.694C156.376 129.678 156.366 129.661 156.357 129.645Z" fill="#FFB6B6"/>
<path d="M155.975 82.1632C155.975 82.1632 159.623 79.0796 162.692 85.2453C165.762 91.4111 164.047 105.497 163.614 106.249C163.182 107 162.919 105.953 163.155 107.957C163.348 109.587 162.204 109.383 162.614 109.731C163.696 110.648 160.666 110.752 162.222 111.56C163.779 112.368 156.812 112.52 156.812 112.52C156.812 112.52 155.969 111.918 156.554 109.649C156.883 108.375 157.706 107.909 156.828 107.319C155.951 106.73 157.735 104.907 157.736 104.507C157.737 104.107 154.954 95.3592 154.954 95.3592L155.975 82.1632Z" fill="#3F3D56"/>
<path d="M125.791 158.12C124.837 158.12 123.896 157.898 123.043 157.471C122.189 157.045 121.447 156.425 120.875 155.662L105.801 135.57C105.316 134.924 104.963 134.19 104.763 133.408C104.562 132.626 104.518 131.813 104.632 131.014C104.746 130.215 105.016 129.446 105.427 128.751C105.839 128.057 106.383 127.45 107.029 126.966C107.674 126.482 108.409 126.129 109.192 125.929C109.974 125.729 110.788 125.685 111.587 125.799C112.386 125.914 113.155 126.184 113.849 126.596C114.544 127.007 115.151 127.551 115.635 128.197L125.496 141.341L150.825 103.361C151.273 102.689 151.849 102.113 152.519 101.664C153.19 101.215 153.943 100.902 154.734 100.744C155.526 100.586 156.34 100.585 157.132 100.741C157.924 100.898 158.677 101.209 159.349 101.656C160.02 102.104 160.597 102.679 161.046 103.35C161.495 104.02 161.808 104.773 161.966 105.564C162.125 106.355 162.125 107.17 161.969 107.961C161.812 108.753 161.501 109.506 161.053 110.177L130.906 155.384C130.36 156.202 129.627 156.877 128.767 157.352C127.906 157.828 126.945 158.091 125.962 158.118C125.905 158.119 125.848 158.12 125.791 158.12Z" fill="#0D9488"/>
<path d="M137.282 126.793C137.589 126.319 137.7 125.745 137.59 125.191C137.481 124.638 137.159 124.149 136.694 123.829C136.599 123.765 136.498 123.709 136.394 123.662L137.783 107.294L132.639 105.678L133.571 124.888C133.41 125.337 133.401 125.827 133.548 126.281C133.694 126.736 133.987 127.129 134.38 127.399C134.605 127.551 134.858 127.657 135.124 127.711C135.39 127.765 135.664 127.766 135.931 127.714C136.197 127.662 136.451 127.558 136.678 127.408C136.904 127.258 137.099 127.065 137.251 126.84C137.261 126.824 137.271 126.809 137.282 126.793Z" fill="#FFB6B6"/>
<path d="M140.292 79.4385C140.292 79.4385 136.821 76.158 133.415 82.1447C130.009 88.1315 130.943 102.29 131.333 103.065C131.723 103.839 132.044 102.808 131.697 104.796C131.415 106.413 132.569 106.272 132.14 106.597C131.008 107.453 134.029 107.725 132.43 108.445C130.831 109.166 137.779 109.702 137.779 109.702C137.779 109.702 138.653 109.148 138.194 106.851C137.937 105.56 137.141 105.049 138.05 104.509C138.959 103.969 137.278 102.05 137.299 101.651C137.32 101.251 140.583 92.6708 140.583 92.6708L140.292 79.4385Z" fill="#3F3D56"/>
</g>
<defs>
<clipPath id="clip0_2270_3116">
<rect width="240" height="144" fill="white" transform="translate(0 48)"/>
</clipPath>
</defs>
</svg>
