<svg width="240" height="240" viewBox="0 0 240 240" fill="none" xmlns="http://www.w3.org/2000/svg">
<path d="M112.086 183.424L47.0001 183.268V182.911L112.086 183.067V183.424Z" fill="#D6D6E3"/>
<path d="M100.126 116.956L96.865 110.528L93.1129 112.432L96.3739 118.86C96.1973 119.419 96.1338 120.007 96.187 120.591C96.2402 121.175 96.4091 121.742 96.6838 122.26C97.7004 124.263 99.8683 125.205 101.526 124.364C103.184 123.523 103.704 121.217 102.687 119.213C102.432 118.686 102.073 118.214 101.634 117.827C101.194 117.439 100.681 117.143 100.126 116.955V116.956Z" fill="#ED9DA0"/>
<path d="M77.9937 87.8995L94.4685 118.691L100.91 115.245L86.4787 83.6937" fill="#0F766E"/>
<path d="M86.9929 95.116L91.4827 115.97L71.9131 116.654C71.9131 116.654 74.477 102.17 73.5668 99.6672L86.9929 95.116Z" fill="#ED9DA0"/>
<path d="M95.3048 172.723H90.7317V178.751H95.3048V172.723Z" fill="#ED9DA0"/>
<path d="M89.8059 182.319C89.6331 182.198 89.4879 182.042 89.3797 181.861C89.2716 181.68 89.203 181.478 89.1784 181.269C89.1495 180.833 89.3673 180.366 89.8259 179.88C89.8369 179.74 89.9793 178.008 90.2962 177.697C90.2696 177.604 90.1083 176.991 90.3728 176.59C90.4408 176.494 90.53 176.414 90.6337 176.358C90.7373 176.301 90.8525 176.269 90.9704 176.264L90.9823 176.263L90.9882 176.273C90.9959 176.287 91.7675 177.627 92.9283 177.745C93.5939 177.813 94.2601 177.47 94.9086 176.727C94.9314 176.672 95.1151 175.767 95.2334 175.169L95.2381 175.145L101.563 178.469L105.26 179.492C105.471 179.551 105.659 179.672 105.8 179.84C105.94 180.009 106.026 180.216 106.045 180.434C106.064 180.652 106.017 180.871 105.909 181.061C105.8 181.252 105.637 181.405 105.439 181.499L103.647 182.361C102.893 182.722 102.068 182.91 101.232 182.911H91.5121C90.8925 182.915 90.2904 182.707 89.8057 182.321L89.8059 182.319Z" fill="#090814"/>
<path d="M58.8871 175.761L63.2783 177.039L64.9619 171.251L60.5707 169.974L58.8871 175.761Z" fill="#ED9DA0"/>
<path d="M57.0022 178.93C56.8698 178.766 56.7737 178.575 56.7203 178.371C56.6669 178.166 56.6574 177.953 56.6923 177.745C56.7862 177.319 57.1254 176.931 57.7019 176.592C57.7516 176.461 58.3723 174.837 58.7634 174.628C58.7634 174.531 58.7804 173.896 59.1462 173.586C59.2384 173.512 59.3463 173.461 59.4616 173.435C59.5769 173.41 59.6964 173.411 59.8111 173.439L59.8227 173.441L59.8254 173.453C59.8291 173.468 60.1956 174.971 61.2773 175.408C61.8974 175.659 62.6328 175.516 63.4631 174.984C63.5007 174.938 63.9296 174.12 64.2105 173.578L64.2217 173.555L69.3666 178.516L72.6304 180.531C72.8168 180.646 72.9637 180.815 73.0515 181.016C73.1392 181.217 73.1637 181.439 73.1216 181.654C73.0795 181.869 72.9728 182.066 72.8158 182.219C72.6588 182.371 72.459 182.473 72.243 182.509L70.281 182.835C69.4563 182.971 68.6116 182.921 67.8088 182.689L58.4757 179.973C57.8799 179.804 57.36 179.436 57.0022 178.93Z" fill="#090814"/>
<path d="M69.7997 106.049L89.3693 106.505C89.3693 106.505 101.261 140.784 100.806 173.323H84.4812L83.512 135.549L80.6765 174.79L59.1638 173.551L69.7997 106.049Z" fill="#E6E6E6"/>
<path d="M88.5162 67.7644C88.5163 66.4787 88.1829 65.215 87.5487 64.0966C86.9145 62.9782 86.0011 62.0434 84.8977 61.3834C83.7943 60.7235 82.5386 60.361 81.2532 60.3313C79.9678 60.3017 78.6968 60.6058 77.5641 61.2141C76.4314 61.8224 75.4758 62.7141 74.7906 63.802C74.1055 64.8899 73.7142 66.137 73.6549 67.4213C73.5957 68.7056 73.8705 69.9834 74.4526 71.1298C75.0347 72.2762 75.9041 73.252 76.976 73.962C76.3609 75.4946 75.5429 76.9377 74.5439 78.2527L81.8706 84.3586L83.3078 74.8605C84.8178 74.3859 86.137 73.4419 87.0736 72.1659C88.0101 70.8899 88.5152 69.3483 88.5153 67.7655L88.5162 67.7644Z" fill="#ED9DA0"/>
<path d="M83.2914 78.4243L74.872 76.3763L69.4752 83.2865C68.1896 85.9091 67.9868 88.932 68.9104 91.7028L73.3855 105.128C73.3855 105.128 86.4552 115.22 89.4133 107.255L90.845 95.1687C91.4139 93.9834 91.6507 92.6661 91.5303 91.3569C91.4099 90.0478 90.9368 88.7957 90.1613 87.7341L83.2914 78.4243Z" fill="#0F766E"/>
<path d="M74.3296 122.811L74.486 115.606L70.2793 115.514L70.1229 122.719C69.7034 123.129 69.3697 123.618 69.1412 124.158C68.9127 124.698 68.794 125.278 68.7921 125.864C68.7433 128.11 70.2106 129.963 72.0693 130.004C73.9281 130.044 75.4749 128.255 75.5227 126.009C75.5461 125.424 75.4526 124.839 75.2478 124.29C75.043 123.741 74.7308 123.238 74.3296 122.81V122.811Z" fill="#ED9DA0"/>
<path d="M68.5217 86.7505V121.673H75.8279L77.9872 87.0452" fill="#0F766E"/>
<path d="M77.1609 68.8635C77.1609 68.8635 83.0168 66.9199 81.5732 64.7155C81.5732 64.7155 87.7882 65.7974 87.9486 64.7155C88.1091 63.6337 87.9486 56.696 79.5283 57.8188C71.108 58.9415 72.2309 65.9992 72.2309 65.9992C72.2309 65.9992 72.8463 72.8203 77.3766 74.2245C77.3768 74.2239 73.8733 67.4603 77.1609 68.8635Z" fill="#090814"/>
<path d="M75.316 61.8044C75.316 61.8044 73.5867 60.5557 71.5698 60.9399C70.8633 61.0743 70.1166 61.5912 69.4428 62.2063C68.099 63.4584 67.0667 65.0073 66.4281 66.7293C64.6647 71.3515 60.964 82.9132 67.4384 84.3307C75.5557 86.1093 76.0597 68.9372 76.0597 68.9372L75.3153 61.8044H75.316Z" fill="#090814"/>
<path d="M111.587 115.204C111.648 115.258 111.698 115.323 111.733 115.395C111.769 115.468 111.79 115.547 111.795 115.628C111.8 115.709 111.789 115.79 111.763 115.867C111.736 115.943 111.695 116.014 111.642 116.075L110.24 117.663L110.315 117.738L109.361 118.815L109.29 118.739L104.268 124.428C104.096 124.623 103.86 124.748 103.602 124.781C103.345 124.814 103.084 124.752 102.869 124.606L98.8481 121.894C98.7502 121.828 98.6679 121.741 98.6071 121.64C98.5462 121.539 98.5082 121.426 98.4958 121.308C98.4833 121.191 98.4967 121.072 98.535 120.96C98.5733 120.849 98.6356 120.747 98.7175 120.662L106.223 112.859C106.38 112.695 106.588 112.59 106.813 112.56C107.038 112.531 107.267 112.578 107.461 112.695L111.494 115.136C111.527 115.156 111.558 115.178 111.587 115.204Z" fill="#3F3D56"/>
<path d="M108.005 113.665L110.125 114.948C110.163 114.971 110.207 114.981 110.252 114.976C110.296 114.971 110.338 114.952 110.37 114.921C110.406 114.886 110.453 114.864 110.504 114.859C110.554 114.853 110.604 114.865 110.647 114.891L111.094 115.161C111.155 115.198 111.207 115.248 111.247 115.307C111.286 115.366 111.312 115.433 111.323 115.503C111.334 115.574 111.329 115.646 111.309 115.714C111.289 115.782 111.254 115.845 111.207 115.899L103.933 124.152C103.843 124.254 103.718 124.32 103.583 124.336C103.447 124.352 103.31 124.318 103.198 124.24L99.231 121.469C99.1804 121.434 99.138 121.388 99.1067 121.335C99.0754 121.282 99.056 121.222 99.0497 121.161C99.0435 121.099 99.0506 121.037 99.0705 120.979C99.0904 120.921 99.1227 120.867 99.1652 120.822L106.544 113.044C106.653 112.929 106.797 112.855 106.954 112.834C107.11 112.813 107.269 112.846 107.405 112.928L107.875 113.212C107.835 113.29 107.826 113.381 107.851 113.465C107.875 113.549 107.93 113.621 108.005 113.665Z" fill="#0F766E"/>
<path d="M152.391 80.7539L152.781 80.7964C152.699 81.5482 152.591 82.3064 152.462 83.05L152.074 82.9821C152.203 82.247 152.309 81.4974 152.391 80.7539ZM151.615 85.1859L151.997 85.2785C151.819 86.0129 151.615 86.7511 151.39 87.4723L151.014 87.3551C151.237 86.6418 151.439 85.912 151.615 85.1859ZM150.273 89.4834L150.64 89.6247C150.368 90.3303 150.07 91.0366 149.753 91.7235L149.396 91.5585C149.709 90.8788 150.005 90.1807 150.273 89.4828L150.273 89.4834ZM148.387 93.5723L148.733 93.7597C148.373 94.4239 147.986 95.0854 147.583 95.7261L147.25 95.5167C147.648 94.8832 148.031 94.2291 148.387 93.5731L148.387 93.5723ZM145.991 97.3837L146.31 97.614C145.867 98.2268 145.399 98.8332 144.918 99.4162L144.615 99.166C145.09 98.5891 145.552 97.9891 145.99 97.3835L145.991 97.3837ZM143.128 100.856L143.414 101.126C142.897 101.676 142.355 102.218 141.804 102.735L141.535 102.449C142.081 101.936 142.617 101.401 143.128 100.856ZM139.845 103.935L140.096 104.238C139.513 104.719 138.906 105.187 138.294 105.629L138.064 105.31C138.669 104.873 139.269 104.41 139.845 103.935V103.935ZM136.198 106.569L136.407 106.902C135.768 107.304 135.107 107.69 134.443 108.05L134.256 107.704C134.912 107.349 135.566 106.966 136.198 106.569ZM132.245 108.712L132.41 109.069C131.725 109.386 131.02 109.683 130.314 109.955L130.173 109.588C130.87 109.32 131.567 109.025 132.245 108.712ZM128.051 110.328L128.168 110.703C127.448 110.929 126.709 111.134 125.975 111.312L125.882 110.931C126.608 110.754 127.337 110.551 128.05 110.328H128.051ZM123.679 111.389L123.747 111.777C123.004 111.907 122.246 112.015 121.494 112.097L121.451 111.706C122.194 111.625 122.944 111.518 123.679 111.389L123.679 111.389Z" fill="#0F766E"/>
<path d="M119.282 110.461L119.557 110.742L118.171 112.098L119.623 113.382L119.361 113.676L117.591 112.112L119.282 110.461Z" fill="#0F766E"/>
<path d="M190.755 56H114.807C113.187 56 111.873 57.3135 111.873 58.9338V73.4428C111.873 75.0631 113.187 76.3766 114.807 76.3766H190.755C192.376 76.3766 193.689 75.0631 193.689 73.4428V58.9338C193.689 57.3135 192.376 56 190.755 56Z" fill="#090814"/>
<path d="M190.013 56.9264H115.551C114.032 56.9264 112.8 58.1578 112.8 59.6768V72.7002C112.8 74.2193 114.032 75.4507 115.551 75.4507H190.013C191.532 75.4507 192.763 74.2193 192.763 72.7002V59.6768C192.763 58.1578 191.532 56.9264 190.013 56.9264Z" fill="white"/>
<path d="M178.862 59.9823H186.25C186.903 59.9823 187.53 60.2418 187.991 60.7036C188.453 61.1655 188.713 61.7919 188.713 62.445V69.8332C188.713 70.4864 188.453 71.1128 187.991 71.5746C187.53 72.0365 186.903 72.2959 186.25 72.2959H178.862C178.209 72.2959 177.582 72.0365 177.12 71.5746C176.659 71.1128 176.399 70.4864 176.399 69.8332V62.445C176.399 61.7919 176.659 61.1655 177.12 60.7036C177.582 60.2418 178.209 59.9823 178.862 59.9823Z" fill="#0F766E"/>
<path d="M182.333 70.2442V69.4466C181.775 69.4373 181.236 69.2354 180.809 68.8749C180.617 68.694 180.464 68.475 180.361 68.232C180.258 67.9889 180.206 67.727 180.21 67.463H181.292C181.295 67.5949 181.325 67.7247 181.381 67.8443C181.437 67.9639 181.516 68.0707 181.615 68.158C181.82 68.3265 182.07 68.4303 182.334 68.4563V66.5493L182.004 66.4576C181.558 66.3548 181.146 66.1396 180.808 65.8324C180.664 65.6887 180.552 65.5167 180.478 65.3273C180.404 65.138 180.37 64.9353 180.378 64.7322C180.372 64.4031 180.46 64.079 180.631 63.7982C180.803 63.5251 181.042 63.3008 181.325 63.1471C181.636 62.9779 181.98 62.8762 182.333 62.8487V62.0352H182.825V62.8469C183.188 62.863 183.543 62.9603 183.863 63.1317C184.146 63.2842 184.384 63.5069 184.556 63.7784C184.725 64.0507 184.816 64.3641 184.82 64.6847H183.756C183.74 64.4608 183.638 64.2516 183.472 64.1011C183.29 63.9463 183.064 63.8511 182.827 63.8284V65.6279L183.102 65.7013C183.402 65.7787 183.692 65.891 183.966 66.0359C184.234 66.1751 184.466 66.3763 184.641 66.6227C184.823 66.8968 184.914 67.2215 184.901 67.5505C184.908 67.7959 184.864 68.0401 184.77 68.267C184.676 68.4939 184.535 68.6983 184.357 68.8668C183.933 69.2362 183.39 69.4415 182.828 69.4453V70.2439L182.333 70.2442ZM182.826 68.4535C183.088 68.4297 183.336 68.324 183.535 68.1515C183.621 68.0757 183.69 67.982 183.736 67.8769C183.783 67.7718 183.806 67.6579 183.804 67.543C183.809 67.4373 183.788 67.332 183.741 67.2371C183.694 67.1421 183.624 67.0607 183.537 67.0006C183.319 66.858 183.079 66.7526 182.827 66.6889L182.826 68.4535ZM182.333 65.4983V63.8367C182.101 63.8616 181.882 63.9617 181.711 64.1218C181.639 64.1924 181.582 64.277 181.543 64.3704C181.505 64.4639 181.486 64.5642 181.488 64.6653C181.482 64.7702 181.503 64.8748 181.549 64.9695C181.594 65.0642 181.663 65.1459 181.748 65.2071C181.927 65.3348 182.125 65.4332 182.335 65.4987L182.333 65.4983Z" fill="white"/>
<path d="M134.984 61.0083H165.287C166.216 61.0083 166.97 61.9271 166.97 63.0605C166.97 64.1938 166.217 65.1127 165.287 65.1127H134.984C134.055 65.1128 133.301 64.194 133.301 63.0605C133.301 61.9269 134.055 61.0083 134.984 61.0083Z" fill="#E6E6E6"/>
<path d="M135.353 67.1653H155.876C156.421 67.1653 156.943 67.3816 157.327 67.7664C157.712 68.1513 157.929 68.6733 157.929 69.2176C157.929 69.7619 157.712 70.2839 157.327 70.6688C156.943 71.0537 156.421 71.2699 155.876 71.2699H135.353C134.809 71.2699 134.287 71.0537 133.902 70.6688C133.517 70.2839 133.301 69.7619 133.301 69.2176C133.301 68.6733 133.517 68.1513 133.902 67.7664C134.287 67.3816 134.809 67.1653 135.353 67.1653Z" fill="#E6E6E6"/>
<path d="M123.064 72.3456C126.464 72.3456 129.221 69.5891 129.221 66.1887C129.221 62.7883 126.464 60.0318 123.064 60.0318C119.664 60.0318 116.907 62.7883 116.907 66.1887C116.907 69.5891 119.664 72.3456 123.064 72.3456Z" fill="white"/>
<path d="M123.064 60.7187C121.802 60.7197 120.579 61.1568 119.603 61.956C118.626 62.7552 117.956 63.8673 117.706 65.104C117.455 66.3408 117.64 67.626 118.228 68.7422C118.817 69.8584 119.773 70.7369 120.935 71.2289C122.271 71.7898 123.775 71.7978 125.117 71.2511C126.459 70.7045 127.529 69.6478 128.093 68.3129C128.657 66.978 128.668 65.474 128.124 64.1308C127.581 62.7876 126.526 61.715 125.193 61.1483C124.519 60.8633 123.795 60.7172 123.064 60.7187ZM123.064 60.0318C124.282 60.0318 125.472 60.3929 126.485 61.0694C127.497 61.746 128.286 62.7075 128.752 63.8326C129.218 64.9576 129.34 66.1955 129.103 67.3899C128.865 68.5842 128.279 69.6812 127.418 70.5423C126.556 71.4034 125.459 71.9897 124.265 72.2273C123.071 72.4649 121.833 72.343 120.708 71.8769C119.583 71.4109 118.621 70.6218 117.945 69.6093C117.268 68.5968 116.907 67.4064 116.907 66.1887C116.907 64.5558 117.556 62.9898 118.71 61.8351C119.865 60.6805 121.431 60.0318 123.064 60.0318Z" fill="#090814"/>
<path d="M125.825 65.6797L123.462 63.2461C123.411 63.1943 123.349 63.1535 123.281 63.1262C123.214 63.099 123.141 63.0858 123.068 63.0875H123.06C122.987 63.0859 122.914 63.0991 122.847 63.1264C122.779 63.1536 122.717 63.1944 122.665 63.2461L120.304 65.6797C120.296 65.6887 120.287 65.6965 120.28 65.7044C120.185 65.8055 120.135 65.9399 120.14 66.078C120.144 66.2161 120.204 66.3468 120.304 66.4413C120.412 66.5427 120.555 66.5992 120.703 66.5992C120.851 66.5992 120.993 66.5427 121.101 66.4413L122.501 64.9787V68.7501C122.508 68.8951 122.57 69.0318 122.675 69.132C122.78 69.2322 122.92 69.2881 123.065 69.2881C123.21 69.2881 123.35 69.2322 123.455 69.132C123.56 69.0318 123.623 68.8951 123.629 68.7501V64.9789L125.028 66.4415C125.136 66.5429 125.279 66.5993 125.427 66.5993C125.575 66.5993 125.718 66.5429 125.826 66.4415L125.851 66.4168C125.945 66.3156 125.995 66.1813 125.99 66.0432C125.986 65.9052 125.927 65.7745 125.826 65.6799L125.825 65.6797Z" fill="#0F766E"/>
</svg>
